<svg width="848" height="863" viewBox="0 0 848 863" fill="none" xmlns="http://www.w3.org/2000/svg">
<path d="M261.536 613.056C281.704 624.236 305.111 621.983 327.218 613.398C349.456 604.762 373.077 588.789 396.692 567.82C444.055 525.766 494.561 460.777 537.686 382.978C580.811 305.178 609.16 227.908 619.726 165.457C624.994 134.319 626.022 105.822 621.562 82.3872C617.128 59.0898 606.635 38.0462 586.467 26.867C566.299 15.6878 542.893 17.9407 520.785 26.5259C498.547 35.1619 474.926 51.1349 451.311 72.103C403.948 114.157 353.443 179.146 310.318 256.945C267.192 334.745 238.843 412.015 228.277 474.467C223.009 505.604 221.981 534.101 226.441 557.536C230.876 580.834 241.369 601.877 261.536 613.056Z" stroke="white" stroke-width="37"/>
<path d="M586.467 613.056C566.299 624.236 542.892 621.983 520.785 613.398C498.547 604.762 474.926 588.789 451.311 567.82C403.948 525.766 353.442 460.777 310.317 382.978C267.192 305.178 238.842 227.908 228.277 165.457C223.009 134.319 221.981 105.822 226.441 82.3872C230.875 59.0898 241.368 38.0462 261.536 26.867C281.704 15.6878 305.11 17.9407 327.218 26.5259C349.456 35.1619 373.077 51.1349 396.692 72.103C444.055 114.157 494.56 179.146 537.685 256.945C580.811 334.745 609.16 412.015 619.726 474.467C624.994 505.604 626.022 534.101 621.562 557.536C617.127 580.834 606.634 601.877 586.467 613.056Z" stroke="white" stroke-width="37"/>
<path d="M473.046 270.1V302.451H440.695V401H407.222V302.451H374.871V270.1H473.046Z" fill="#8D6A9F"/>
<path d="M0 349.848V292.897L154 195V262.374L51.9518 319.325L154 379.626V447L0 349.848Z" fill="#8D6A9F"/>
<path d="M848 349.848V292.897L694 195V262.374L796.048 319.325L694 379.626V447L848 349.848Z" fill="#8D6A9F"/>
<path d="M276.246 761.8V780.424H260.406V829H241.206V780.424H225.366V761.8H276.246ZM316.086 829L313.782 820.36H294.39L292.086 829H271.446L292.854 761.8H315.318L336.726 829H316.086ZM298.518 805H309.654L304.086 784.36L298.518 805ZM375.237 828.904L364.581 807.784H359.781V828.904H340.581V761.704H367.461C374.821 761.704 380.901 763.88 385.701 768.232C390.501 772.52 392.901 778.216 392.901 785.32C392.901 789.288 391.973 792.872 390.117 796.072C388.325 799.272 385.797 801.864 382.533 803.848L395.781 828.904H375.237ZM359.781 779.368V791.848H367.077C369.125 791.912 370.725 791.4 371.877 790.312C373.093 789.224 373.701 787.688 373.701 785.704C373.701 783.72 373.093 782.184 371.877 781.096C370.725 779.944 369.125 779.368 367.077 779.368H359.781ZM419.781 810.376H441.861V829H400.581V761.8H419.781V810.376ZM503.202 820.456C496.354 827.176 487.938 830.536 477.954 830.536C467.97 830.536 459.522 827.176 452.609 820.456C445.762 813.672 442.338 805.32 442.338 795.4C442.338 785.48 445.762 777.16 452.609 770.44C459.522 763.656 467.97 760.264 477.954 760.264C487.938 760.264 496.354 763.656 503.202 770.44C510.114 777.16 513.57 785.48 513.57 795.4C513.57 805.32 510.114 813.672 503.202 820.456ZM466.146 807.112C469.282 810.184 473.218 811.72 477.954 811.72C482.69 811.72 486.594 810.184 489.666 807.112C492.802 803.976 494.37 800.072 494.37 795.4C494.37 790.728 492.802 786.856 489.666 783.784C486.594 780.648 482.69 779.08 477.954 779.08C473.218 779.08 469.282 780.648 466.146 783.784C463.074 786.856 461.538 790.728 461.538 795.4C461.538 800.072 463.074 803.976 466.146 807.112ZM542.055 830.536C534.759 830.536 528.679 829.032 523.815 826.024C518.951 822.952 515.687 818.824 514.023 813.64L530.439 804.136C532.679 809.832 536.711 812.68 542.535 812.68C546.887 812.68 549.063 811.528 549.063 809.224C549.063 808.584 548.903 808.008 548.583 807.496C548.263 806.984 547.655 806.536 546.759 806.152C545.863 805.768 545.063 805.48 544.359 805.288C543.719 805.032 542.567 804.68 540.903 804.232C539.239 803.784 537.991 803.432 537.159 803.176C523.783 799.144 517.095 791.944 517.095 781.576C517.095 775.432 519.303 770.344 523.719 766.312C528.199 762.28 534.055 760.264 541.286 760.264C546.983 760.264 552.071 761.608 556.551 764.296C561.095 766.984 564.423 770.856 566.535 775.912L550.599 785.224C548.743 780.488 545.671 778.12 541.383 778.12C539.719 778.12 538.439 778.472 537.543 779.176C536.711 779.816 536.295 780.648 536.295 781.672C536.295 783.08 537.031 784.168 538.503 784.936C540.039 785.704 542.951 786.696 547.239 787.912C550.439 788.872 553.063 789.8 555.111 790.696C557.159 791.528 559.303 792.744 561.542 794.344C563.783 795.88 565.447 797.896 566.535 800.392C567.687 802.824 568.263 805.704 568.263 809.032C568.263 815.88 565.895 821.192 561.159 824.968C556.487 828.68 550.119 830.536 542.055 830.536ZM592.75 811.336H617.71V829H573.55V761.8H617.23V779.272H592.75V786.568H614.83V803.848H592.75V811.336Z" fill="white"/>
</svg>
