<svg width="2895" height="639" viewBox="0 0 2895 639" fill="none" xmlns="http://www.w3.org/2000/svg">
<path d="M1244.01 172.432V262.541H1167.42V497.568H1074.59V262.541H998V172.432H1244.01ZM1436.64 497.568L1425.5 455.765H1331.73L1320.59 497.568H1220.8L1324.31 172.432H1432.92L1536.43 497.568H1436.64ZM1351.69 381.448H1405.54L1378.61 281.585L1351.69 381.448ZM1722.63 497.104L1671.11 394.918H1647.9V497.104H1555.07V171.967H1685.04C1720.62 171.967 1750.02 182.496 1773.23 203.552C1796.43 224.299 1808.04 251.858 1808.04 286.23C1808.04 305.428 1803.55 322.769 1794.58 338.252C1785.91 353.734 1773.69 366.275 1757.91 375.874L1821.96 497.104H1722.63ZM1647.9 257.432V317.814H1683.18C1693.08 318.124 1700.82 315.647 1706.39 310.383C1712.27 305.119 1715.21 297.687 1715.21 288.087C1715.21 278.488 1712.27 271.057 1706.39 265.792C1700.82 260.219 1693.08 257.432 1683.18 257.432H1647.9ZM1938 407.459H2044.76V497.568H1845.17V172.432H1938V407.459ZM2341.35 456.229C2308.24 488.743 2267.55 505 2219.27 505C2171 505 2130.15 488.743 2096.73 456.229C2063.62 423.406 2047.07 382.996 2047.07 335C2047.07 287.004 2063.62 246.749 2096.73 214.235C2130.15 181.412 2171 165 2219.27 165C2267.55 165 2308.24 181.412 2341.35 214.235C2374.77 246.749 2391.48 287.004 2391.48 335C2391.48 382.996 2374.77 423.406 2341.35 456.229ZM2162.18 391.667C2177.34 406.53 2196.38 413.962 2219.27 413.962C2242.17 413.962 2261.05 406.53 2275.9 391.667C2291.06 376.494 2298.65 357.605 2298.65 335C2298.65 312.395 2291.06 293.661 2275.9 278.798C2261.05 263.625 2242.17 256.038 2219.27 256.038C2196.38 256.038 2177.34 263.625 2162.18 278.798C2147.33 293.661 2139.9 312.395 2139.9 335C2139.9 357.605 2147.33 376.494 2162.18 391.667ZM2529.2 505C2493.93 505 2464.53 497.723 2441.01 483.169C2417.5 468.306 2401.71 448.333 2393.67 423.251L2473.04 377.268C2483.87 404.827 2503.37 418.607 2531.53 418.607C2552.57 418.607 2563.09 413.033 2563.09 401.885C2563.09 398.789 2562.32 396.002 2560.77 393.524C2559.22 391.047 2556.28 388.88 2551.95 387.022C2547.62 385.164 2543.75 383.771 2540.34 382.842C2537.25 381.603 2531.68 379.9 2523.63 377.732C2515.59 375.565 2509.56 373.862 2505.53 372.623C2440.86 353.115 2408.52 318.279 2408.52 268.115C2408.52 238.388 2419.2 213.771 2440.55 194.262C2462.21 174.754 2490.52 165 2525.49 165C2553.03 165 2577.63 171.503 2599.29 184.508C2621.26 197.514 2637.35 216.248 2647.57 240.71L2570.52 285.765C2561.54 262.851 2546.69 251.393 2525.96 251.393C2517.91 251.393 2511.72 253.097 2507.39 256.503C2503.37 259.599 2501.35 263.625 2501.35 268.579C2501.35 275.392 2504.91 280.656 2512.03 284.372C2519.46 288.087 2533.54 292.887 2554.27 298.77C2569.74 303.415 2582.43 307.905 2592.33 312.24C2602.23 316.266 2612.6 322.149 2623.43 329.891C2634.26 337.322 2642.31 347.077 2647.57 359.153C2653.14 370.92 2655.92 384.854 2655.92 400.956C2655.92 434.089 2644.47 459.791 2621.57 478.06C2598.98 496.02 2568.19 505 2529.2 505ZM2774.32 412.104H2895V497.568H2681.48V172.432H2892.68V256.967H2774.32V292.268H2881.08V375.874H2774.32V412.104Z" fill="white"/>
<path d="M261.536 612.788C281.704 623.968 305.111 621.715 327.218 613.13C349.456 604.494 373.077 588.521 396.692 567.552C444.055 525.498 494.561 460.509 537.686 382.71C580.811 304.91 609.16 227.64 619.726 165.189C624.994 134.051 626.022 105.554 621.562 82.1196C617.128 58.8222 606.635 37.7786 586.467 26.5994C566.299 15.4202 542.893 17.6731 520.785 26.2583C498.547 34.8943 474.926 50.8673 451.311 71.8354C403.948 113.889 353.443 178.878 310.318 256.677C267.192 334.477 238.843 411.747 228.277 474.199C223.009 505.336 221.981 533.833 226.441 557.268C230.876 580.566 241.369 601.609 261.536 612.788Z" stroke="white" stroke-width="37"/>
<path d="M586.467 612.788C566.299 623.968 542.892 621.715 520.785 613.13C498.547 604.494 474.926 588.521 451.311 567.552C403.948 525.498 353.442 460.509 310.317 382.71C267.192 304.91 238.842 227.64 228.277 165.189C223.009 134.051 221.981 105.554 226.441 82.1196C230.875 58.8222 241.368 37.7786 261.536 26.5994C281.704 15.4202 305.11 17.6731 327.218 26.2583C349.456 34.8943 373.077 50.8673 396.692 71.8354C444.055 113.889 494.56 178.878 537.685 256.677C580.811 334.477 609.16 411.747 619.726 474.199C624.994 505.336 626.022 533.833 621.562 557.268C617.127 580.566 606.634 601.609 586.467 612.788Z" stroke="white" stroke-width="37"/>
<path d="M473.046 269.833V302.184H440.695V400.733H407.222V302.184H374.871V269.833H473.046Z" fill="#8D6A9F"/>
<path d="M0 349.58V292.629L154 194.732V262.106L51.9518 319.057L154 379.358V446.732L0 349.58Z" fill="#8D6A9F"/>
<path d="M848 349.58V292.629L694 194.732V262.106L796.048 319.057L694 379.358V446.732L848 349.58Z" fill="#8D6A9F"/>
</svg>
