<svg width="750" height="500" viewBox="0 0 750 500" fill="none" xmlns="http://www.w3.org/2000/svg">
<mask id="mask0_1000_23" style="mask-type:luminance" maskUnits="userSpaceOnUse" x="0" y="0" width="750" height="500">
<path d="M750 0H0V500H750V0Z" fill="white"/>
</mask>
<g mask="url(#mask0_1000_23)">
<path d="M387.555 83.6107C422.55 48.6154 422.55 -8.12322 387.555 -43.1185C352.56 -78.1139 295.821 -78.1139 260.826 -43.1185C225.83 -8.12321 225.83 48.6154 260.826 83.6107C295.821 118.606 352.56 118.606 387.555 83.6107Z" fill="#EFC974"/>
<path d="M600.581 194.66V335.647L459.594 194.66H600.581Z" fill="#EFC974"/>
<path d="M484.419 318.342C484.419 319.356 483.597 320.178 482.583 320.178C481.569 320.178 480.747 319.356 480.747 318.342C480.747 317.328 481.569 316.506 482.583 316.506C483.597 316.506 484.419 317.328 484.419 318.342Z" fill="#282A2B"/>
<path d="M500.279 318.342C500.279 319.356 499.457 320.178 498.443 320.178C497.429 320.178 496.607 319.356 496.607 318.342C496.607 317.328 497.429 316.506 498.443 316.506C499.457 316.506 500.279 317.328 500.279 318.342Z" fill="#282A2B"/>
<path d="M516.139 318.342C516.139 319.356 515.317 320.178 514.303 320.178C513.289 320.178 512.467 319.356 512.467 318.342C512.467 317.328 513.289 316.506 514.303 316.506C515.317 316.506 516.139 317.328 516.139 318.342Z" fill="#282A2B"/>
<path d="M531.999 318.342C531.999 319.356 531.177 320.178 530.163 320.178C529.149 320.178 528.327 319.356 528.327 318.342C528.327 317.328 529.149 316.506 530.163 316.506C531.177 316.506 531.999 317.328 531.999 318.342Z" fill="#282A2B"/>
<path d="M547.859 318.342C547.859 319.356 547.037 320.178 546.023 320.178C545.009 320.178 544.188 319.356 544.188 318.342C544.188 317.328 545.009 316.506 546.023 316.506C547.037 316.506 547.859 317.328 547.859 318.342Z" fill="#282A2B"/>
<path d="M563.719 318.342C563.719 319.356 562.897 320.178 561.883 320.178C560.869 320.178 560.047 319.356 560.047 318.342C560.047 317.328 560.869 316.506 561.883 316.506C562.897 316.506 563.719 317.328 563.719 318.342Z" fill="#282A2B"/>
<path d="M579.578 318.342C579.578 319.356 578.756 320.178 577.742 320.178C576.728 320.178 575.906 319.356 575.906 318.342C575.906 317.328 576.728 316.506 577.742 316.506C578.756 316.506 579.578 317.328 579.578 318.342Z" fill="#282A2B"/>
<path d="M484.419 301.103C484.419 302.117 483.597 302.939 482.583 302.939C481.569 302.939 480.747 302.117 480.747 301.103C480.747 300.089 481.569 299.267 482.583 299.267C483.597 299.267 484.419 300.089 484.419 301.103Z" fill="#282A2B"/>
<path d="M500.279 301.103C500.279 302.117 499.457 302.939 498.443 302.939C497.429 302.939 496.607 302.117 496.607 301.103C496.607 300.089 497.429 299.267 498.443 299.267C499.457 299.267 500.279 300.089 500.279 301.103Z" fill="#282A2B"/>
<path d="M516.139 301.103C516.139 302.117 515.317 302.939 514.303 302.939C513.289 302.939 512.467 302.117 512.467 301.103C512.467 300.089 513.289 299.267 514.303 299.267C515.317 299.267 516.139 300.089 516.139 301.103Z" fill="#282A2B"/>
<path d="M531.999 301.103C531.999 302.117 531.177 302.939 530.163 302.939C529.149 302.939 528.327 302.117 528.327 301.103C528.327 300.089 529.149 299.267 530.163 299.267C531.177 299.267 531.999 300.089 531.999 301.103Z" fill="#282A2B"/>
<path d="M547.859 301.103C547.859 302.117 547.037 302.939 546.023 302.939C545.009 302.939 544.188 302.117 544.188 301.103C544.188 300.089 545.009 299.267 546.023 299.267C547.037 299.267 547.859 300.089 547.859 301.103Z" fill="#282A2B"/>
<path d="M563.719 301.103C563.719 302.117 562.897 302.939 561.883 302.939C560.869 302.939 560.047 302.117 560.047 301.103C560.047 300.089 560.869 299.267 561.883 299.267C562.897 299.267 563.719 300.089 563.719 301.103Z" fill="#282A2B"/>
<path d="M579.578 301.103C579.578 302.117 578.756 302.939 577.742 302.939C576.728 302.939 575.906 302.117 575.906 301.103C575.906 300.089 576.728 299.267 577.742 299.267C578.756 299.267 579.578 300.089 579.578 301.103Z" fill="#282A2B"/>
<path d="M482.583 285.699C483.597 285.699 484.419 284.877 484.419 283.863C484.419 282.849 483.597 282.027 482.583 282.027C481.569 282.027 480.747 282.849 480.747 283.863C480.747 284.877 481.569 285.699 482.583 285.699Z" fill="#282A2B"/>
<path d="M498.443 285.699C499.457 285.699 500.279 284.877 500.279 283.863C500.279 282.849 499.457 282.027 498.443 282.027C497.429 282.027 496.607 282.849 496.607 283.863C496.607 284.877 497.429 285.699 498.443 285.699Z" fill="#282A2B"/>
<path d="M516.139 283.863C516.139 284.877 515.317 285.699 514.303 285.699C513.289 285.699 512.467 284.877 512.467 283.863C512.467 282.849 513.289 282.027 514.303 282.027C515.317 282.027 516.139 282.849 516.139 283.863Z" fill="#282A2B"/>
<path d="M531.999 283.863C531.999 284.877 531.177 285.699 530.163 285.699C529.149 285.699 528.327 284.877 528.327 283.863C528.327 282.849 529.149 282.027 530.163 282.027C531.177 282.027 531.999 282.849 531.999 283.863Z" fill="#282A2B"/>
<path d="M546.023 285.699C547.037 285.699 547.859 284.877 547.859 283.863C547.859 282.849 547.037 282.027 546.023 282.027C545.01 282.027 544.188 282.849 544.188 283.863C544.188 284.877 545.01 285.699 546.023 285.699Z" fill="#282A2B"/>
<path d="M561.883 285.699C562.897 285.699 563.719 284.877 563.719 283.863C563.719 282.849 562.897 282.027 561.883 282.027C560.869 282.027 560.047 282.849 560.047 283.863C560.047 284.877 560.869 285.699 561.883 285.699Z" fill="#282A2B"/>
<path d="M579.578 283.863C579.578 284.877 578.756 285.699 577.742 285.699C576.728 285.699 575.906 284.877 575.906 283.863C575.906 282.849 576.728 282.027 577.742 282.027C578.756 282.027 579.578 282.849 579.578 283.863Z" fill="#282A2B"/>
<path d="M482.583 268.46C483.597 268.46 484.419 267.638 484.419 266.624C484.419 265.61 483.597 264.788 482.583 264.788C481.569 264.788 480.747 265.61 480.747 266.624C480.747 267.638 481.569 268.46 482.583 268.46Z" fill="#282A2B"/>
<path d="M498.443 268.46C499.457 268.46 500.279 267.638 500.279 266.624C500.279 265.61 499.457 264.788 498.443 264.788C497.429 264.788 496.607 265.61 496.607 266.624C496.607 267.638 497.429 268.46 498.443 268.46Z" fill="#282A2B"/>
<path d="M516.139 266.624C516.139 267.638 515.317 268.46 514.303 268.46C513.289 268.46 512.467 267.638 512.467 266.624C512.467 265.61 513.289 264.788 514.303 264.788C515.317 264.788 516.139 265.61 516.139 266.624Z" fill="#282A2B"/>
<path d="M531.999 266.624C531.999 267.638 531.177 268.46 530.163 268.46C529.149 268.46 528.327 267.638 528.327 266.624C528.327 265.61 529.149 264.788 530.163 264.788C531.177 264.788 531.999 265.61 531.999 266.624Z" fill="#282A2B"/>
<path d="M546.023 268.46C547.037 268.46 547.859 267.638 547.859 266.624C547.859 265.61 547.037 264.788 546.023 264.788C545.01 264.788 544.188 265.61 544.188 266.624C544.188 267.638 545.01 268.46 546.023 268.46Z" fill="#282A2B"/>
<path d="M561.883 268.46C562.897 268.46 563.719 267.638 563.719 266.624C563.719 265.61 562.897 264.788 561.883 264.788C560.869 264.788 560.047 265.61 560.047 266.624C560.047 267.638 560.869 268.46 561.883 268.46Z" fill="#282A2B"/>
<path d="M579.578 266.624C579.578 267.638 578.756 268.46 577.742 268.46C576.728 268.46 575.906 267.638 575.906 266.624C575.906 265.61 576.728 264.788 577.742 264.788C578.756 264.788 579.578 265.61 579.578 266.624Z" fill="#282A2B"/>
<path d="M484.419 249.385C484.419 250.399 483.597 251.221 482.583 251.221C481.569 251.221 480.747 250.399 480.747 249.385C480.747 248.371 481.569 247.549 482.583 247.549C483.597 247.549 484.419 248.371 484.419 249.385Z" fill="#282A2B"/>
<path d="M500.279 249.385C500.279 250.399 499.457 251.221 498.443 251.221C497.429 251.221 496.607 250.399 496.607 249.385C496.607 248.371 497.429 247.549 498.443 247.549C499.457 247.549 500.279 248.371 500.279 249.385Z" fill="#282A2B"/>
<path d="M516.139 249.385C516.139 250.399 515.317 251.221 514.303 251.221C513.289 251.221 512.467 250.399 512.467 249.385C512.467 248.371 513.289 247.549 514.303 247.549C515.317 247.549 516.139 248.371 516.139 249.385Z" fill="#282A2B"/>
<path d="M531.999 249.385C531.999 250.399 531.177 251.221 530.163 251.221C529.149 251.221 528.327 250.399 528.327 249.385C528.327 248.371 529.149 247.549 530.163 247.549C531.177 247.549 531.999 248.371 531.999 249.385Z" fill="#282A2B"/>
<path d="M547.859 249.385C547.859 250.399 547.037 251.221 546.023 251.221C545.009 251.221 544.188 250.399 544.188 249.385C544.188 248.371 545.009 247.549 546.023 247.549C547.037 247.549 547.859 248.371 547.859 249.385Z" fill="#282A2B"/>
<path d="M563.719 249.385C563.719 250.399 562.897 251.221 561.883 251.221C560.869 251.221 560.047 250.399 560.047 249.385C560.047 248.371 560.869 247.549 561.883 247.549C562.897 247.549 563.719 248.371 563.719 249.385Z" fill="#282A2B"/>
<path d="M579.578 249.385C579.578 250.399 578.756 251.221 577.742 251.221C576.728 251.221 575.906 250.399 575.906 249.385C575.906 248.371 576.728 247.549 577.742 247.549C578.756 247.549 579.578 248.371 579.578 249.385Z" fill="#282A2B"/>
<path d="M484.419 232.145C484.419 233.159 483.597 233.981 482.583 233.981C481.569 233.981 480.747 233.159 480.747 232.145C480.747 231.131 481.569 230.309 482.583 230.309C483.597 230.309 484.419 231.131 484.419 232.145Z" fill="#282A2B"/>
<path d="M500.279 232.145C500.279 233.159 499.457 233.981 498.443 233.981C497.429 233.981 496.607 233.159 496.607 232.145C496.607 231.131 497.429 230.309 498.443 230.309C499.457 230.309 500.279 231.131 500.279 232.145Z" fill="#282A2B"/>
<path d="M516.139 232.145C516.139 233.159 515.317 233.981 514.303 233.981C513.289 233.981 512.467 233.159 512.467 232.145C512.467 231.131 513.289 230.309 514.303 230.309C515.317 230.309 516.139 231.131 516.139 232.145Z" fill="#282A2B"/>
<path d="M531.999 232.145C531.999 233.159 531.177 233.981 530.163 233.981C529.149 233.981 528.327 233.159 528.327 232.145C528.327 231.131 529.149 230.309 530.163 230.309C531.177 230.309 531.999 231.131 531.999 232.145Z" fill="#282A2B"/>
<path d="M547.859 232.145C547.859 233.159 547.037 233.981 546.023 233.981C545.009 233.981 544.188 233.159 544.188 232.145C544.188 231.131 545.009 230.309 546.023 230.309C547.037 230.309 547.859 231.131 547.859 232.145Z" fill="#282A2B"/>
<path d="M563.719 232.145C563.719 233.159 562.897 233.981 561.883 233.981C560.869 233.981 560.047 233.159 560.047 232.145C560.047 231.131 560.869 230.309 561.883 230.309C562.897 230.309 563.719 231.131 563.719 232.145Z" fill="#282A2B"/>
<path d="M579.578 232.145C579.578 233.159 578.756 233.981 577.742 233.981C576.728 233.981 575.906 233.159 575.906 232.145C575.906 231.131 576.728 230.309 577.742 230.309C578.756 230.309 579.578 231.131 579.578 232.145Z" fill="#282A2B"/>
<path d="M205.565 409.47C181.45 373.422 142.436 347.924 96.7457 342.214C93.3577 341.791 89.9357 341.464 86.4777 341.262C1.57074 336.303 -71.2803 401.115 -76.2383 486.022C-81.1973 570.929 -16.3853 643.78 68.5217 648.738C153.429 653.697 226.28 588.886 231.238 503.978C233.271 469.164 223.568 436.381 205.565 409.47Z" fill="#EFC974"/>
<path d="M570.477 333.977C572.138 319.07 578.315 305.764 587.488 295.264C566.328 305.526 550.736 326.09 547.94 351.189C543.609 390.069 571.616 425.098 610.495 429.429C634.468 432.1 656.972 422.473 671.724 405.587C660.107 411.221 646.812 413.752 633.032 412.217C594.153 407.886 566.146 372.857 570.477 333.977Z" fill="#282A2B"/>
<path d="M626.18 288.634C612.4 287.099 599.105 289.63 587.488 295.264C578.315 305.764 572.137 319.07 570.477 333.977C566.146 372.857 594.153 407.886 633.032 412.217C646.812 413.752 660.107 411.221 671.724 405.587C680.897 395.086 687.075 381.781 688.736 366.874C693.067 327.994 665.06 292.965 626.18 288.634Z" fill="#68B694"/>
<path d="M99.256 195.032C99.256 196.046 98.434 196.868 97.42 196.868C96.406 196.868 95.584 196.046 95.584 195.032C95.584 194.018 96.406 193.196 97.42 193.196C98.434 193.196 99.256 194.018 99.256 195.032Z" fill="#282A2B"/>
<path d="M115.116 195.032C115.116 196.046 114.294 196.868 113.28 196.868C112.266 196.868 111.444 196.046 111.444 195.032C111.444 194.018 112.266 193.196 113.28 193.196C114.294 193.196 115.116 194.018 115.116 195.032Z" fill="#282A2B"/>
<path d="M130.976 195.032C130.976 196.046 130.154 196.868 129.14 196.868C128.126 196.868 127.304 196.046 127.304 195.032C127.304 194.018 128.126 193.196 129.14 193.196C130.154 193.196 130.976 194.018 130.976 195.032Z" fill="#282A2B"/>
<path d="M146.836 195.032C146.836 196.046 146.014 196.868 145 196.868C143.986 196.868 143.164 196.046 143.164 195.032C143.164 194.018 143.986 193.196 145 193.196C146.014 193.196 146.836 194.018 146.836 195.032Z" fill="#282A2B"/>
<path d="M162.695 195.032C162.695 196.046 161.873 196.868 160.859 196.868C159.845 196.868 159.023 196.046 159.023 195.032C159.023 194.018 159.845 193.196 160.859 193.196C161.873 193.196 162.695 194.018 162.695 195.032Z" fill="#282A2B"/>
<path d="M178.555 195.032C178.555 196.046 177.733 196.868 176.719 196.868C175.705 196.868 174.883 196.046 174.883 195.032C174.883 194.018 175.705 193.196 176.719 193.196C177.733 193.196 178.555 194.018 178.555 195.032Z" fill="#282A2B"/>
<path d="M194.415 195.032C194.415 196.046 193.593 196.868 192.579 196.868C191.565 196.868 190.743 196.046 190.743 195.032C190.743 194.018 191.565 193.196 192.579 193.196C193.593 193.196 194.415 194.018 194.415 195.032Z" fill="#282A2B"/>
<path d="M99.256 177.792C99.256 178.806 98.434 179.628 97.42 179.628C96.406 179.628 95.584 178.806 95.584 177.792C95.584 176.778 96.406 175.956 97.42 175.956C98.434 175.957 99.256 176.779 99.256 177.792Z" fill="#282A2B"/>
<path d="M115.116 177.792C115.116 178.806 114.294 179.628 113.28 179.628C112.266 179.628 111.444 178.806 111.444 177.792C111.444 176.778 112.266 175.956 113.28 175.956C114.294 175.957 115.116 176.779 115.116 177.792Z" fill="#282A2B"/>
<path d="M130.976 177.792C130.976 178.806 130.154 179.628 129.14 179.628C128.126 179.628 127.304 178.806 127.304 177.792C127.304 176.778 128.126 175.956 129.14 175.956C130.154 175.957 130.976 176.779 130.976 177.792Z" fill="#282A2B"/>
<path d="M146.836 177.792C146.836 178.806 146.014 179.628 145 179.628C143.986 179.628 143.164 178.806 143.164 177.792C143.164 176.778 143.986 175.956 145 175.956C146.014 175.956 146.836 176.779 146.836 177.792Z" fill="#282A2B"/>
<path d="M162.695 177.792C162.695 178.806 161.873 179.628 160.859 179.628C159.845 179.628 159.023 178.806 159.023 177.792C159.023 176.778 159.845 175.956 160.859 175.956C161.873 175.956 162.695 176.779 162.695 177.792Z" fill="#282A2B"/>
<path d="M178.555 177.792C178.555 178.806 177.733 179.628 176.719 179.628C175.705 179.628 174.883 178.806 174.883 177.792C174.883 176.778 175.705 175.956 176.719 175.956C177.733 175.957 178.555 176.779 178.555 177.792Z" fill="#282A2B"/>
<path d="M194.415 177.792C194.415 178.806 193.593 179.628 192.579 179.628C191.565 179.628 190.743 178.806 190.743 177.792C190.743 176.778 191.565 175.956 192.579 175.956C193.593 175.957 194.415 176.779 194.415 177.792Z" fill="#282A2B"/>
<path d="M99.256 160.553C99.256 161.567 98.434 162.389 97.42 162.389C96.406 162.389 95.584 161.567 95.584 160.553C95.584 159.539 96.406 158.717 97.42 158.717C98.434 158.717 99.256 159.539 99.256 160.553Z" fill="#282A2B"/>
<path d="M115.116 160.553C115.116 161.567 114.294 162.389 113.28 162.389C112.266 162.389 111.444 161.567 111.444 160.553C111.444 159.539 112.266 158.717 113.28 158.717C114.294 158.717 115.116 159.539 115.116 160.553Z" fill="#282A2B"/>
<path d="M130.976 160.553C130.976 161.567 130.154 162.389 129.14 162.389C128.126 162.389 127.304 161.567 127.304 160.553C127.304 159.539 128.126 158.717 129.14 158.717C130.154 158.717 130.976 159.539 130.976 160.553Z" fill="#282A2B"/>
<path d="M146.836 160.553C146.836 161.567 146.014 162.389 145 162.389C143.986 162.389 143.164 161.567 143.164 160.553C143.164 159.539 143.986 158.717 145 158.717C146.014 158.717 146.836 159.539 146.836 160.553Z" fill="#282A2B"/>
<path d="M162.695 160.553C162.695 161.567 161.873 162.389 160.859 162.389C159.845 162.389 159.023 161.567 159.023 160.553C159.023 159.539 159.845 158.717 160.859 158.717C161.873 158.717 162.695 159.539 162.695 160.553Z" fill="#282A2B"/>
<path d="M178.555 160.553C178.555 161.567 177.733 162.389 176.719 162.389C175.705 162.389 174.883 161.567 174.883 160.553C174.883 159.539 175.705 158.717 176.719 158.717C177.733 158.717 178.555 159.539 178.555 160.553Z" fill="#282A2B"/>
<path d="M194.415 160.553C194.415 161.567 193.593 162.389 192.579 162.389C191.565 162.389 190.743 161.567 190.743 160.553C190.743 159.539 191.565 158.717 192.579 158.717C193.593 158.717 194.415 159.539 194.415 160.553Z" fill="#282A2B"/>
<path d="M99.256 143.314C99.256 144.328 98.434 145.15 97.42 145.15C96.406 145.15 95.584 144.328 95.584 143.314C95.584 142.3 96.406 141.478 97.42 141.478C98.434 141.478 99.256 142.3 99.256 143.314Z" fill="#282A2B"/>
<path d="M115.116 143.314C115.116 144.328 114.294 145.15 113.28 145.15C112.266 145.15 111.444 144.328 111.444 143.314C111.444 142.3 112.266 141.478 113.28 141.478C114.294 141.478 115.116 142.3 115.116 143.314Z" fill="#282A2B"/>
<path d="M130.976 143.314C130.976 144.328 130.154 145.15 129.14 145.15C128.126 145.15 127.304 144.328 127.304 143.314C127.304 142.3 128.126 141.478 129.14 141.478C130.154 141.478 130.976 142.3 130.976 143.314Z" fill="#282A2B"/>
<path d="M146.836 143.314C146.836 144.328 146.014 145.15 145 145.15C143.986 145.15 143.164 144.328 143.164 143.314C143.164 142.3 143.986 141.478 145 141.478C146.014 141.478 146.836 142.3 146.836 143.314Z" fill="#282A2B"/>
<path d="M162.695 143.314C162.695 144.328 161.873 145.15 160.859 145.15C159.845 145.15 159.023 144.328 159.023 143.314C159.023 142.3 159.845 141.478 160.859 141.478C161.873 141.478 162.695 142.3 162.695 143.314Z" fill="#282A2B"/>
<path d="M178.555 143.314C178.555 144.328 177.733 145.15 176.719 145.15C175.705 145.15 174.883 144.328 174.883 143.314C174.883 142.3 175.705 141.478 176.719 141.478C177.733 141.478 178.555 142.3 178.555 143.314Z" fill="#282A2B"/>
<path d="M194.415 143.314C194.415 144.328 193.593 145.15 192.579 145.15C191.565 145.15 190.743 144.328 190.743 143.314C190.743 142.3 191.565 141.478 192.579 141.478C193.593 141.478 194.415 142.3 194.415 143.314Z" fill="#282A2B"/>
<path d="M97.42 127.91C98.434 127.91 99.256 127.088 99.256 126.074C99.256 125.06 98.434 124.238 97.42 124.238C96.406 124.238 95.584 125.06 95.584 126.074C95.584 127.088 96.406 127.91 97.42 127.91Z" fill="#282A2B"/>
<path d="M115.116 126.074C115.116 127.088 114.294 127.91 113.28 127.91C112.266 127.91 111.444 127.088 111.444 126.074C111.444 125.06 112.266 124.238 113.28 124.238C114.294 124.238 115.116 125.06 115.116 126.074Z" fill="#282A2B"/>
<path d="M130.976 126.074C130.976 127.088 130.154 127.91 129.14 127.91C128.126 127.91 127.304 127.088 127.304 126.074C127.304 125.06 128.126 124.238 129.14 124.238C130.154 124.238 130.976 125.06 130.976 126.074Z" fill="#282A2B"/>
<path d="M145 127.91C146.014 127.91 146.836 127.088 146.836 126.074C146.836 125.06 146.014 124.238 145 124.238C143.986 124.238 143.164 125.06 143.164 126.074C143.164 127.088 143.986 127.91 145 127.91Z" fill="#282A2B"/>
<path d="M160.86 127.91C161.874 127.91 162.696 127.088 162.696 126.074C162.696 125.06 161.874 124.238 160.86 124.238C159.846 124.238 159.024 125.06 159.024 126.074C159.024 127.088 159.846 127.91 160.86 127.91Z" fill="#282A2B"/>
<path d="M178.555 126.074C178.555 127.088 177.733 127.91 176.719 127.91C175.705 127.91 174.883 127.088 174.883 126.074C174.883 125.06 175.705 124.238 176.719 124.238C177.733 124.238 178.555 125.06 178.555 126.074Z" fill="#282A2B"/>
<path d="M194.415 126.074C194.415 127.088 193.593 127.91 192.579 127.91C191.565 127.91 190.743 127.088 190.743 126.074C190.743 125.06 191.565 124.238 192.579 124.238C193.593 124.238 194.415 125.06 194.415 126.074Z" fill="#282A2B"/>
<path d="M97.42 110.671C98.434 110.671 99.256 109.849 99.256 108.835C99.256 107.821 98.434 106.999 97.42 106.999C96.406 106.999 95.584 107.821 95.584 108.835C95.584 109.849 96.406 110.671 97.42 110.671Z" fill="#282A2B"/>
<path d="M115.116 108.835C115.116 109.849 114.294 110.671 113.28 110.671C112.266 110.671 111.444 109.849 111.444 108.835C111.444 107.821 112.266 106.999 113.28 106.999C114.294 106.999 115.116 107.821 115.116 108.835Z" fill="#282A2B"/>
<path d="M130.976 108.835C130.976 109.849 130.154 110.671 129.14 110.671C128.126 110.671 127.304 109.849 127.304 108.835C127.304 107.821 128.126 106.999 129.14 106.999C130.154 106.999 130.976 107.821 130.976 108.835Z" fill="#282A2B"/>
<path d="M145 110.671C146.014 110.671 146.836 109.849 146.836 108.835C146.836 107.821 146.014 106.999 145 106.999C143.986 106.999 143.164 107.821 143.164 108.835C143.164 109.849 143.986 110.671 145 110.671Z" fill="#282A2B"/>
<path d="M160.86 110.671C161.874 110.671 162.696 109.849 162.696 108.835C162.696 107.821 161.874 106.999 160.86 106.999C159.846 106.999 159.024 107.821 159.024 108.835C159.024 109.849 159.846 110.671 160.86 110.671Z" fill="#282A2B"/>
<path d="M178.555 108.835C178.555 109.849 177.733 110.671 176.719 110.671C175.705 110.671 174.883 109.849 174.883 108.835C174.883 107.821 175.705 106.999 176.719 106.999C177.733 106.999 178.555 107.821 178.555 108.835Z" fill="#282A2B"/>
<path d="M194.415 108.835C194.415 109.849 193.593 110.671 192.579 110.671C191.565 110.671 190.743 109.849 190.743 108.835C190.743 107.821 191.565 106.999 192.579 106.999C193.593 106.999 194.415 107.821 194.415 108.835Z" fill="#282A2B"/>
<path d="M624.862 495.779C625.876 495.779 626.698 494.957 626.698 493.943C626.698 492.929 625.876 492.107 624.862 492.107C623.848 492.107 623.026 492.929 623.026 493.943C623.026 494.957 623.848 495.779 624.862 495.779Z" fill="#282A2B"/>
<path d="M642.558 493.943C642.558 494.957 641.736 495.779 640.722 495.779C639.708 495.779 638.886 494.957 638.886 493.943C638.886 492.929 639.708 492.107 640.722 492.107C641.737 492.107 642.558 492.929 642.558 493.943Z" fill="#282A2B"/>
<path d="M658.417 493.943C658.417 494.957 657.595 495.779 656.581 495.779C655.567 495.779 654.745 494.957 654.745 493.943C654.745 492.929 655.567 492.107 656.581 492.107C657.596 492.107 658.417 492.929 658.417 493.943Z" fill="#282A2B"/>
<path d="M672.441 495.779C673.455 495.779 674.277 494.957 674.277 493.943C674.277 492.929 673.455 492.107 672.441 492.107C671.427 492.107 670.605 492.929 670.605 493.943C670.605 494.957 671.427 495.779 672.441 495.779Z" fill="#282A2B"/>
<path d="M688.302 495.779C689.316 495.779 690.138 494.957 690.138 493.943C690.138 492.929 689.316 492.107 688.302 492.107C687.288 492.107 686.466 492.929 686.466 493.943C686.466 494.957 687.288 495.779 688.302 495.779Z" fill="#282A2B"/>
<path d="M705.997 493.943C705.997 494.957 705.175 495.779 704.161 495.779C703.147 495.779 702.325 494.957 702.325 493.943C702.325 492.929 703.147 492.107 704.161 492.107C705.175 492.107 705.997 492.929 705.997 493.943Z" fill="#282A2B"/>
<path d="M721.858 493.943C721.858 494.957 721.036 495.779 720.022 495.779C719.008 495.779 718.186 494.957 718.186 493.943C718.186 492.929 719.008 492.107 720.022 492.107C721.036 492.107 721.858 492.929 721.858 493.943Z" fill="#282A2B"/>
<path d="M626.698 476.703C626.698 477.717 625.876 478.539 624.862 478.539C623.848 478.539 623.026 477.717 623.026 476.703C623.026 475.689 623.848 474.867 624.862 474.867C625.876 474.867 626.698 475.689 626.698 476.703Z" fill="#282A2B"/>
<path d="M642.558 476.703C642.558 477.717 641.736 478.539 640.722 478.539C639.708 478.539 638.886 477.717 638.886 476.703C638.886 475.689 639.708 474.867 640.722 474.867C641.737 474.867 642.558 475.689 642.558 476.703Z" fill="#282A2B"/>
<path d="M658.417 476.703C658.417 477.717 657.595 478.539 656.581 478.539C655.567 478.539 654.745 477.717 654.745 476.703C654.745 475.689 655.567 474.867 656.581 474.867C657.596 474.867 658.417 475.689 658.417 476.703Z" fill="#282A2B"/>
<path d="M674.277 476.703C674.277 477.717 673.455 478.539 672.441 478.539C671.427 478.539 670.605 477.717 670.605 476.703C670.605 475.689 671.427 474.867 672.441 474.867C673.455 474.867 674.277 475.689 674.277 476.703Z" fill="#282A2B"/>
<path d="M690.138 476.703C690.138 477.717 689.316 478.539 688.302 478.539C687.288 478.539 686.466 477.717 686.466 476.703C686.466 475.689 687.288 474.867 688.302 474.867C689.316 474.867 690.138 475.689 690.138 476.703Z" fill="#282A2B"/>
<path d="M705.997 476.703C705.997 477.717 705.175 478.539 704.161 478.539C703.147 478.539 702.325 477.717 702.325 476.703C702.325 475.689 703.147 474.867 704.161 474.867C705.175 474.867 705.997 475.689 705.997 476.703Z" fill="#282A2B"/>
<path d="M721.858 476.703C721.858 477.717 721.036 478.539 720.022 478.539C719.008 478.539 718.186 477.717 718.186 476.703C718.186 475.689 719.008 474.867 720.022 474.867C721.036 474.867 721.858 475.689 721.858 476.703Z" fill="#282A2B"/>
<path d="M626.698 459.464C626.698 460.478 625.876 461.3 624.862 461.3C623.848 461.3 623.026 460.478 623.026 459.464C623.026 458.45 623.848 457.628 624.862 457.628C625.876 457.628 626.698 458.45 626.698 459.464Z" fill="#282A2B"/>
<path d="M642.558 459.464C642.558 460.478 641.736 461.3 640.722 461.3C639.708 461.3 638.886 460.478 638.886 459.464C638.886 458.45 639.708 457.628 640.722 457.628C641.737 457.628 642.558 458.45 642.558 459.464Z" fill="#282A2B"/>
<path d="M658.417 459.464C658.417 460.478 657.595 461.3 656.581 461.3C655.567 461.3 654.745 460.478 654.745 459.464C654.745 458.45 655.567 457.628 656.581 457.628C657.596 457.628 658.417 458.45 658.417 459.464Z" fill="#282A2B"/>
<path d="M674.277 459.464C674.277 460.478 673.455 461.3 672.441 461.3C671.427 461.3 670.605 460.478 670.605 459.464C670.605 458.45 671.427 457.628 672.441 457.628C673.455 457.628 674.277 458.45 674.277 459.464Z" fill="#282A2B"/>
<path d="M690.138 459.464C690.138 460.478 689.316 461.3 688.302 461.3C687.288 461.3 686.466 460.478 686.466 459.464C686.466 458.45 687.288 457.628 688.302 457.628C689.316 457.628 690.138 458.45 690.138 459.464Z" fill="#282A2B"/>
<path d="M705.997 459.464C705.997 460.478 705.175 461.3 704.161 461.3C703.147 461.3 702.325 460.478 702.325 459.464C702.325 458.45 703.147 457.628 704.161 457.628C705.175 457.628 705.997 458.45 705.997 459.464Z" fill="#282A2B"/>
<path d="M721.858 459.464C721.858 460.478 721.036 461.3 720.022 461.3C719.008 461.3 718.186 460.478 718.186 459.464C718.186 458.45 719.008 457.628 720.022 457.628C721.036 457.628 721.858 458.45 721.858 459.464Z" fill="#282A2B"/>
<path d="M633.129 247.552V336.67" stroke="#282A2B" stroke-width="4.252" stroke-miterlimit="10"/>
<path d="M719.957 324.38H620.839" stroke="#282A2B" stroke-width="4.252" stroke-miterlimit="10"/>
<path d="M550.837 95.6772H516.613" stroke="#282A2B" stroke-width="4.252" stroke-miterlimit="10"/>
<path d="M287.212 228.135H267.458V247.889H287.212V228.135Z" fill="white"/>
<path d="M277.335 220.9V255.124" stroke="#282A2B" stroke-width="4.252" stroke-miterlimit="10"/>
<path d="M294.447 238.012H260.223" stroke="#282A2B" stroke-width="4.252" stroke-miterlimit="10"/>
<path d="M631.897 156.134H577.556C564.828 156.134 554.51 145.816 554.51 133.088C554.51 120.36 564.828 110.042 577.556 110.042H631.897C644.625 110.042 654.943 120.36 654.943 133.088C654.943 145.816 644.625 156.134 631.897 156.134Z" fill="white"/>
<path d="M592.161 146.865C599.828 139.198 599.828 126.768 592.161 119.101C584.494 111.434 572.064 111.434 564.397 119.101C556.731 126.768 556.731 139.198 564.397 146.865C572.064 154.531 584.494 154.531 592.161 146.865Z" fill="#68B694"/>
<path d="M-86.8984 297.169C-86.8984 247.488 -46.6244 207.213 3.05656 207.213C52.7376 207.213 93.0126 247.488 93.0126 297.169" stroke="#282A2B" stroke-width="4.252" stroke-miterlimit="10"/>
<path d="M83.0886 311.106H102.516V291.679H83.0886V311.106Z" fill="white" stroke="black" stroke-width="3.3375" stroke-miterlimit="10"/>
<path d="M208.746 156.674L250.493 141.929L234.258 183.12L227.158 164.447L208.746 156.674Z" fill="white" stroke="black" stroke-width="3.3375" stroke-miterlimit="10"/>
<path d="M380.287 180.426L443.888 300.193C443.888 300.193 423.044 323.287 419.837 331.343C416.63 339.399 411.82 380.754 411.82 380.754H345.012C345.012 380.754 351.96 345.844 339.667 327.584C327.374 309.324 314.013 301.267 314.013 301.267L380.287 180.426Z" fill="white"/>
<path d="M386.031 182.4H384.715V169.225C384.715 166.13 382.206 163.621 379.111 163.621C376.016 163.621 373.507 166.13 373.507 169.225V182.4H372.191L308.796 301.009L312.511 304.23C325.105 315.145 333.786 329.615 337.638 345.502H323.755C320.66 345.502 318.151 348.012 318.151 351.107C318.151 354.202 320.66 356.712 323.755 356.712H339.523C339.758 359.193 339.899 361.691 339.899 364.207V380.762H351.106V364.207C351.106 361.693 350.974 359.196 350.768 356.712H369.226V380.762H407.116H418.323H418.65V357.306C418.667 357.108 418.68 356.91 418.698 356.712H434.466C437.561 356.712 440.07 354.202 440.07 351.107C440.07 348.012 437.561 345.502 434.466 345.502H420.583C424.435 329.615 433.116 315.144 445.711 304.229L449.425 301.009L386.031 182.4ZM409.073 345.503H349.15C345.383 327.636 336.279 311.208 322.856 298.483L373.508 203.715V296.516C370.925 298.299 369.227 301.273 369.227 304.649C369.227 310.108 373.653 314.534 379.112 314.534C384.571 314.534 388.997 310.108 388.997 304.649C388.997 301.273 387.299 298.299 384.716 296.516V203.715L435.368 298.483C421.944 311.208 412.841 327.636 409.073 345.503Z" fill="#282A2B"/>
<path d="M307.198 159.707H451.023" stroke="#282A2B" stroke-width="5.363" stroke-miterlimit="10"/>
<path d="M308.796 147.456H284.293V171.959H308.796V147.456Z" fill="white" stroke="black" stroke-width="4.2096" stroke-miterlimit="10"/>
<path d="M492.307 39.3213C492.307 101.984 441.509 152.783 378.845 152.783C316.182 152.783 265.383 101.984 265.383 39.3213" stroke="#282A2B" stroke-width="5.363" stroke-miterlimit="10"/>
<path d="M277.9 21.7422H253.397V46.2452H277.9V21.7422Z" fill="white" stroke="black" stroke-width="4.2096" stroke-miterlimit="10"/>
<path d="M503.759 21.7422H479.256V46.2452H503.759V21.7422Z" fill="white" stroke="black" stroke-width="4.2096" stroke-miterlimit="10"/>
<path d="M473.929 147.456H449.426V171.959H473.929V147.456Z" fill="white" stroke="black" stroke-width="4.2096" stroke-miterlimit="10"/>
<path d="M391.362 147.456H366.859V171.959H391.362V147.456Z" fill="white" stroke="black" stroke-width="4.2096" stroke-miterlimit="10"/>
<path d="M146.87 -24.0239H-25.5918V148.438H146.87V-24.0239Z" fill="#8D6A9F"/>
<path d="M718.301 111.965H694.909V307.454H718.301V111.965Z" fill="#8D6A9F"/>
<path d="M69.8799 406.081V382.689L-125.609 382.689V406.081L69.8799 406.081Z" fill="#68B694"/>
<path d="M-125.609 406.081V417.041H69.8796V406.081H-125.609Z" fill="#282A2B"/>
<path d="M842.018 438.353H326.27V471.884H842.018V438.353Z" fill="white"/>
<path d="M523.122 659.067H546.514V463.577H523.122V659.067Z" fill="#68B694"/>
<path d="M523.122 463.578H509.668V659.068H523.122V463.578Z" fill="#282A2B"/>
<path d="M568.932 33.6768V57.0688L764.421 57.0688V33.6768L568.932 33.6768Z" fill="#68B694"/>
<path d="M764.421 33.6762V20.2222L568.932 20.2222V33.6762L764.421 33.6762Z" fill="#282A2B"/>
<path d="M161.986 478.044L161.986 232.323H130.306L130.306 478.044H161.986Z" fill="white"/>
<path d="M201.99 478.043L201.99 303.355H170.31L170.31 478.043H201.99Z" fill="#68B694"/>
<path d="M120.225 382.617H96.833V478.096H120.225V382.617Z" fill="#8D6A9F"/>
<path d="M88.072 478.097H96.833L96.833 382.618H88.072L88.072 478.097Z" fill="#282A2B"/>
<path d="M55.9873 479.028H241.215" stroke="#282A2B" stroke-width="4.252" stroke-miterlimit="10"/>
<path d="M396.938 109.354V106.396H407.747V44.0449H401.603C395.761 44.4999 391.628 48.4449 389.201 55.8779L387.381 63.5009H384.195L384.763 41.0869H440.97L441.538 63.5009H438.352L436.532 55.8779C436.456 55.7269 436.418 55.4989 436.418 55.1949C434.37 47.7609 430.274 44.0449 424.13 44.0449H417.531V106.396H425.268C425.646 106.396 426.025 106.435 426.406 106.509C427.618 106.737 428.226 107.686 428.226 109.354H396.938Z" fill="black"/>
<path d="M206.456 72.049C168.81 109.695 127.776 109.695 90.1309 72.049C127.776 34.403 168.81 34.403 206.456 72.049Z" fill="white" stroke="black" stroke-width="3.3375" stroke-miterlimit="10"/>
<path d="M147.643 71.942V44.96C133.182 45.306 121.564 57.128 121.564 71.671C121.564 86.432 133.53 98.399 148.292 98.399C162.963 98.399 174.867 86.578 175.013 71.942H147.643Z" fill="#68B694"/>
<path d="M175.014 71.9419C175.015 71.8509 175.021 71.7619 175.021 71.6709C175.021 56.9099 163.054 44.9429 148.293 44.9429C148.075 44.9429 147.861 44.9539 147.644 44.9589V71.9409L175.014 71.9419Z" fill="#282A2B"/>
<path d="M148.005 71.792V59.814C141.585 59.967 136.428 65.216 136.428 71.672C136.428 78.225 141.74 83.537 148.293 83.537C154.806 83.537 160.091 78.289 160.155 71.792H148.005Z" fill="#282A2B"/>
<path d="M160.155 71.7921C160.155 71.7521 160.158 71.7121 160.158 71.6721C160.158 65.1191 154.846 59.8071 148.293 59.8071C148.196 59.8071 148.101 59.8121 148.005 59.8141V71.7921H160.155Z" fill="#282A2B"/>
<path d="M76.5474 136.901L62.2891 123.564L44.7839 142.279L59.0423 155.616L76.5474 136.901Z" fill="white" stroke="black" stroke-width="3.3375" stroke-miterlimit="10"/>
<path d="M73.4272 147.279L52.1426 127.37L30.8879 150.093L52.1725 170.002L73.4272 147.279Z" fill="#282A2B"/>
</g>
</svg>
