<svg width="73" height="50" viewBox="0 0 513 500" fill="none" xmlns="http://www.w3.org/2000/svg">
<path d="M224.94 185.938C228.421 191.402 230.238 197.947 230.009 204.811C230.009 214.201 227.879 221.451 223.399 226.791C213.511 238.577 195.991 241.931 181.369 241.931H170.069C167.509 241.931 164.729 241.721 161.749 241.511V169.831C163.239 169.611 166.229 169.401 170.489 169.611C174.549 169.401 179.449 169.401 184.999 169.401C199.7 169.401 216.483 172.667 224.94 185.938Z" fill="white"/>
<path d="M421.369 0.441406H90.7091C40.5691 0.441406 0.0390625 40.9714 0.0390625 91.1114V408.971C0.0390625 459.111 40.5691 499.641 90.7091 499.641H421.369C471.509 499.641 512.039 459.111 512.039 408.971V91.1114C512.039 40.9714 471.509 0.441406 421.369 0.441406ZM263.719 248.971C255.189 260.921 243.239 269.881 229.369 275.001C214.869 280.331 198.869 282.251 181.369 282.251C176.249 282.251 172.839 282.251 170.709 282.041C168.569 281.831 165.589 281.831 161.529 281.831V350.311C161.749 351.801 160.679 353.081 159.189 353.291H117.799C116.089 353.291 115.239 352.441 115.239 350.521V131.001C115.239 129.511 115.879 128.651 117.369 128.651C120.999 128.651 124.409 128.651 129.319 128.441C134.439 128.231 139.769 128.231 145.529 128.011C151.289 127.801 157.479 127.801 164.089 127.591C170.709 127.371 177.109 127.371 183.509 127.371C200.999 127.371 215.509 129.511 227.449 133.991C238.16 137.626 247.926 143.6 256.039 151.481C262.869 158.311 268.199 166.631 271.609 175.801C274.809 184.761 276.519 193.931 276.519 203.531C276.519 221.881 272.249 237.031 263.719 248.971ZM414.969 331.961C408.999 340.491 400.679 347.111 391.079 350.951C380.629 355.431 367.829 357.771 352.469 357.771C342.649 357.771 333.049 356.921 323.449 355.001C315.925 353.699 308.608 351.402 301.689 348.171C300.199 347.321 299.129 345.831 299.349 344.121V307.001C299.349 306.361 299.559 305.511 300.199 305.081C300.839 304.651 301.479 304.871 302.119 305.291C310.439 310.201 319.189 313.611 328.569 315.751C336.679 317.881 345.209 318.951 353.749 318.951C361.849 318.951 367.609 317.881 371.449 315.961C374.869 314.471 377.209 310.841 377.209 307.001C377.209 304.011 375.509 301.241 372.089 298.471C368.679 295.691 361.639 292.491 351.189 288.441C340.309 284.601 330.279 279.481 320.889 273.081C314.279 268.391 308.729 262.201 304.679 254.951C301.269 248.121 299.559 240.651 299.769 233.191C299.769 224.011 302.329 215.271 307.029 207.371C312.359 198.841 320.249 192.011 329.429 187.751C339.449 182.631 352.039 180.281 367.189 180.281C375.929 180.281 384.889 180.921 393.639 182.201C400.039 183.051 406.229 184.761 411.989 187.111C412.839 187.321 413.689 188.171 414.119 189.031C414.329 189.881 414.549 190.731 414.549 191.591V226.361C414.549 227.211 414.119 228.071 413.479 228.491C411.559 228.921 410.489 228.921 409.639 228.491C403.239 225.081 396.409 222.731 389.159 221.241C381.269 219.531 373.369 218.471 365.269 218.471C360.999 218.251 356.519 218.891 352.469 219.961C349.689 220.601 347.349 222.091 345.849 224.231C344.789 225.931 344.149 228.071 344.149 229.991C344.149 231.911 344.999 233.831 346.279 235.531C348.199 237.881 350.759 239.801 353.529 241.291C358.439 243.851 363.559 246.201 368.679 248.331C380.199 252.171 391.289 257.511 401.529 263.911C408.569 268.391 414.329 274.361 418.389 281.611C421.799 288.441 423.509 295.911 423.289 303.591C423.509 313.611 420.519 323.641 414.969 331.961Z" fill="white"/>
</svg>
