<svg width="73" height="50" viewBox="0 0 398 397" fill="none" xmlns="http://www.w3.org/2000/svg">
<g clip-path="url(#clip0_992_435)">
<path fill-rule="evenodd" clip-rule="evenodd" d="M397.265 198.97C397.265 308.323 308.393 396.97 198.765 396.97C89.1361 396.97 0.264648 308.323 0.264648 198.97C0.264648 89.6178 89.1361 0.970215 198.765 0.970215C308.393 0.970215 397.265 89.6178 397.265 198.97ZM279.882 243.981C281.382 240.967 282.824 239.587 284.462 239.587C286.832 239.587 289.103 241.617 289.103 246.048C289.103 266.057 253.187 327.701 191.072 327.701C132.551 327.701 94.6221 283.921 94.6221 217.668C94.6221 132.076 154.072 70.2158 220.965 70.2158C261.44 70.2158 285.568 90.5404 285.568 118.191C285.568 146.709 264.896 166.896 247.284 166.896C242.901 166.896 240.69 164.749 240.69 161.204C240.69 158.262 242.461 154.769 244.682 150.387C248.424 143.009 253.444 133.107 253.444 119.058C253.444 100.191 241.893 88.3347 222.98 88.3347C182.503 88.3347 136.42 136.035 136.42 218.535C136.42 267.239 160.666 302.493 199.819 302.493C233.68 302.493 262.941 278.247 279.882 243.981Z" fill="white"/>
</g>
<defs>
<clipPath id="clip0_992_435">
<rect width="397" height="396" fill="white" transform="translate(0.264648 0.970215)"/>
</clipPath>
</defs>
</svg>
