<svg width="73" height="50" viewBox="0 0 618 618" fill="none" xmlns="http://www.w3.org/2000/svg">
<g clip-path="url(#clip0_992_404)">
<path d="M360.186 553.051L347.332 617.322H301.815C283.434 617.322 267.61 604.352 263.998 586.317L257.353 553.051H360.186Z" fill="white"/>
<path d="M328.655 528.538L328.809 528.525L328.783 528.5L328.655 528.538Z" fill="white"/>
<path d="M249.023 335.571C249.036 335.636 249.049 335.687 249.062 335.738C249.165 335.764 249.268 335.803 249.383 335.828C249.255 335.751 249.139 335.661 249.023 335.571Z" fill="white"/>
<path d="M492.391 51.7383C482.828 44.0901 472.827 37.6501 462.788 32.0843C462.763 32.0843 462.698 32.0586 462.673 32.0586C462.711 32.0586 462.737 32.0714 462.775 32.0714C413.223 4.5635 363.014 0.373047 363.014 0.373047C374.454 7.80275 384.545 15.978 393.607 24.6674C393.633 24.6674 393.646 24.6674 393.671 24.6674C393.646 24.6674 393.646 24.6803 393.62 24.6803C462.57 90.7635 465.86 190.448 446.489 283.717C446.515 283.743 446.541 283.756 446.566 283.782C446.541 283.756 446.502 283.756 446.476 283.73C442.299 303.821 437.016 323.527 431.18 342.615C418.66 383.607 403.402 421.347 389.481 451.876C389.237 452.416 350.996 527.342 350.996 527.342C370.765 509.372 388.53 491.903 404.893 474.82C402.785 471.504 400.677 468.406 398.569 465.231C401.114 469.023 403.543 472.687 404.893 474.82C405.819 473.856 406.783 472.879 407.695 471.928C443.43 434.343 471.079 399.006 492.34 365.907C497.919 357.218 503.137 348.657 507.842 340.301C507.816 340.276 507.804 340.237 507.778 340.199C507.804 340.224 507.829 340.25 507.855 340.289C593.027 188.944 539.399 89.3496 492.391 51.7383Z" fill="white"/>
<path d="M350.584 24.719C339.992 11.9419 326.367 2.90546 308.769 0.347486V0.321777C308.744 0.321777 308.731 0.334632 308.705 0.334632C308.679 0.334632 308.654 0.321777 308.628 0.321777V0.347486C285.156 3.75384 268.703 18.6004 257.186 38.6272C227.248 90.6737 230.667 177.851 231.4 191.309C231.464 192.466 231.503 193.134 231.503 193.134C231.503 215.346 233.932 241.402 237.75 268.922C240.758 290.582 244.64 313.128 249.023 335.571C249.139 335.661 249.255 335.751 249.37 335.841C249.255 335.803 249.165 335.777 249.049 335.751C268.086 433.173 295.774 527.343 295.774 527.343H321.624C321.624 527.343 352.036 410.832 352.911 407.118C316.829 368.812 316.829 368.799 352.911 407.118C359.363 379.533 365.816 349.659 371.318 319.786C376.202 293.23 380.341 266.801 382.912 242.327C382.899 242.314 382.874 242.301 382.861 242.289C382.886 242.301 382.886 242.314 382.912 242.327C384.763 224.704 385.894 208.032 385.894 193.134C385.894 193.134 393.967 77.0611 350.584 24.719Z" fill="white"/>
<path d="M180.485 251.287C180.627 251.492 180.768 251.685 180.91 251.891C180.91 251.582 181.115 251.132 180.485 251.287Z" fill="white"/>
<path d="M206.656 391.307C194.483 358.799 183.043 322.768 175.202 285.568C172.181 271.275 169.829 256.814 168.029 242.353C165.612 223.046 164.25 203.713 164.61 184.702C159.237 184.509 159.237 184.509 164.623 184.702C165.51 138.658 175.716 94.5041 200.421 57.1113C214.587 35.6706 233.457 16.4408 258.188 0.373047C258.188 0.373047 185.601 6.31167 128.811 51.7383C109.195 67.4332 88.5131 93.9899 77.1629 130.547C71.7127 148.106 68.3963 167.927 68.4349 190.023C68.4478 194.767 68.8205 199.741 69.129 204.677C69.7332 214.369 70.7487 224.305 72.7539 234.794C83.3586 290.35 114.44 356.793 178.737 433.173L178.775 433.121L178.749 433.173C203.905 463.072 234.009 494.436 270.207 527.342C270.207 527.342 236.118 469.884 206.656 391.307Z" fill="white"/>
</g>
<defs>
<clipPath id="clip0_992_404">
<rect width="617" height="617" fill="white" transform="translate(0.269531 0.321777)"/>
</clipPath>
</defs>
</svg>
