<svg width="73" height="50" viewBox="0 0 460 399" fill="none" xmlns="http://www.w3.org/2000/svg">
<path d="M180.463 80.9861C199.759 74.5521 216.537 70.6393 231.722 69.0367C246.598 67.4608 257.79 66.7266 266.933 66.7266C276.713 66.7266 283.945 67.5614 292.237 68.9093L294.581 54.016C294.581 54.016 271.687 46.9783 241.626 49.4393L239.265 41.3355C248.6 39.3574 255.607 31.0725 255.607 21.1514C255.607 9.75515 246.367 0.518066 234.974 0.518066C223.577 0.518066 214.337 9.75515 214.337 21.1514C214.337 31.0725 221.341 39.3573 230.672 41.3322L233.301 50.3513C201.382 54.7569 175.964 67.2295 175.964 67.2295L180.463 80.9861Z" fill="white"/>
<path d="M89.8963 141.947C90.644 140.995 91.3783 140.09 92.1025 139.208L86.0171 134.776L76.4716 127.795C75.9116 128.563 60.9345 142.336 49.099 167.828C48.586 167.023 48.0026 165.414 47.3354 164.679C43.7848 160.767 38.8159 158.101 32.5326 158.101C32.4421 158.101 32.3482 158.101 32.2577 158.101C28.3282 158.101 25.666 157.598 23.8957 156.036C25.6426 153.813 26.692 151.432 26.692 148.388C26.692 141.169 20.8413 135.527 13.626 135.527C6.40734 135.527 0.556641 141.481 0.556641 148.7C0.556641 155.919 6.40734 161.816 13.626 161.816C14.7425 161.816 15.8255 161.692 16.8615 161.424C20.0802 165.001 25.1933 168.13 32.6634 167.999C36.4991 167.935 39.292 168.931 41.1964 171.02C43.3657 173.397 44.0932 176.807 44.3078 179.375C44.2944 179.405 44.281 179.442 44.2709 179.472C35.7413 202.724 38.1922 231.639 38.1922 231.639L58.8289 232.46C59.248 221.922 60.7635 203.512 66.0912 188.87C76.3878 160.586 89.2459 142.839 89.7857 142.098L89.8963 141.947Z" fill="white"/>
<path d="M446.653 84.0034C439.434 84.0034 433.587 89.8541 433.587 97.0694C433.587 98.1926 433.741 99.2756 434.009 100.315C430.442 103.537 427.33 108.65 427.451 116.11C427.508 119.949 426.522 122.739 424.433 124.646C422.797 126.138 420.671 126.95 418.67 127.379C403.277 105.884 384.343 92.7141 384.343 92.7141L369.524 108.613C380.736 118.826 392.162 131.577 403.304 147.506C410.988 158.487 418.888 172.706 425.496 186.838L445.509 177.366C445.509 177.366 436.373 154.782 423.498 134.547C425.741 133.753 427.997 132.559 429.955 130.779C433.868 127.232 435.806 122.256 435.706 115.976C435.642 111.896 436.996 109.15 438.596 107.339C440.819 109.086 443.615 110.135 446.656 110.135C453.875 110.135 459.725 104.281 459.725 97.0627C459.725 89.8541 453.871 84.0034 446.653 84.0034Z" fill="white"/>
<path d="M394.73 263.79C367.203 277.195 321.876 294.911 262.256 303.209C238.85 306.468 216.141 307.689 195.283 307.689C168.125 307.689 144.098 305.623 125.681 303.306C104.662 300.664 88.2301 297.416 78.1648 295.162C78.1447 295.156 78.128 295.152 78.1045 295.146C80.5655 302.948 83.5428 310.512 86.9929 317.74C87.0029 317.761 87.0096 317.781 87.0197 317.804C87.1035 317.982 87.1907 318.156 87.2779 318.334C87.697 319.212 88.1295 320.087 88.5653 320.959C88.9811 321.787 89.4036 322.605 89.8327 323.424C89.9434 323.638 90.054 323.849 90.1646 324.064C96.0858 335.222 103.17 345.445 111.274 354.317C139.388 385.102 168.044 389.94 168.333 389.987L168.775 390.058L169.204 390.199C169.449 390.279 194.864 398.507 233.512 398.507C271.513 398.507 308.803 390.846 344.34 375.734C370.66 362.269 395.585 341.8 407.883 323.548C417.438 309.449 424.345 294.378 428.429 278.73C430.598 270.398 432.295 257.125 431.309 243.1C423.544 248.26 411.306 255.723 394.73 263.79Z" fill="white"/>
<path d="M260.412 286.86C317.588 278.901 360.793 262.002 387.156 249.225C409.063 238.606 423.025 229.004 428.476 225.037C423.061 204.954 408.057 173.434 394.334 153.82C355.183 97.8476 312.927 83.4774 291.238 79.8965C282.96 78.5252 276.318 77.7373 266.943 77.7373C258.196 77.7373 247.366 78.4481 232.878 79.9804C218.354 81.516 202.17 85.318 183.411 91.6013C157.071 100.423 133.239 114.266 114.503 131.627L113.876 132.211C111.083 134.793 105.29 140.16 98.6275 148.65C97.8061 149.796 86.5037 166.715 77.0755 192.629C70.0044 212.072 70.9666 240.417 70.9666 240.702V240.782C70.9666 247.394 70.7051 254.003 71.4327 260.551C71.4427 260.655 71.1376 260.762 71.151 260.866C71.2416 261.681 71.1879 262.495 71.2919 263.31C71.3522 263.769 71.3556 264.235 71.4193 264.695C71.9758 268.846 73.0521 272.97 73.8903 277.05C73.9004 277.05 74.3161 277.06 74.3161 277.06V277.063C87.7308 280.52 169.168 299.561 260.412 286.86ZM338.312 135.634C357.114 135.634 372.36 150.879 372.36 169.682C372.36 188.485 357.114 203.73 338.312 203.73C319.509 203.73 304.264 188.488 304.264 169.682C304.264 150.876 319.506 135.634 338.312 135.634ZM177.319 134.263C207.709 134.263 232.349 158.899 232.349 189.29C232.349 219.68 207.709 244.313 177.319 244.313C146.932 244.313 122.292 219.68 122.292 189.29C122.292 158.896 146.932 134.263 177.319 134.263Z" fill="white"/>
</svg>
