<svg width="73" height="50" viewBox="0 0 278 281" fill="none" xmlns="http://www.w3.org/2000/svg">
<path d="M259.206 115.032C262.358 105.6 263.409 95.6448 262.446 85.7765C261.483 75.9082 258.243 66.3894 253.252 57.831C245.809 44.9063 234.426 34.6887 220.767 28.5756C207.108 22.4625 191.871 20.8906 177.249 24.0345C170.681 16.6113 162.538 10.673 153.432 6.65583C144.325 2.63865 134.519 0.542742 124.536 0.630063C109.563 0.630063 95.028 5.25854 82.857 14.0789C70.7734 22.8118 61.7545 35.2126 57.1138 49.3601C47.3945 51.3686 38.2005 55.3857 30.1448 61.2369C22.0892 67.088 15.3469 74.511 10.4434 83.1566C2.91313 96.0814 -0.239036 111.015 1.33707 125.861C2.91318 140.707 9.13001 154.68 19.1996 165.77C16.0474 175.202 14.9967 185.158 15.9599 195.026C17.0106 204.894 20.1628 214.413 25.1539 222.972C32.5966 235.896 43.9796 246.113 57.6391 252.227C71.2988 258.34 86.5345 259.912 101.157 256.768C107.724 264.191 115.868 270.129 124.974 274.147C134.08 278.164 143.887 280.26 153.869 280.172C168.843 280.172 183.465 275.543 195.549 266.724C207.632 257.99 216.651 245.59 221.291 231.355C231.011 229.347 240.205 225.329 248.26 219.478C256.316 213.627 262.972 206.204 267.962 197.559C275.493 184.633 278.645 169.7 277.069 154.854C275.493 140.009 269.276 126.035 259.206 115.032ZM154.483 261.833C140.56 261.833 129.703 257.555 120.333 249.694C120.771 249.432 121.472 249.083 121.997 248.734L177.774 216.597C179.175 215.81 180.313 214.676 181.102 213.278C181.889 211.88 182.327 210.308 182.327 208.737V130.315L205.881 143.938C205.881 143.938 206.144 144.113 206.231 144.201C206.231 144.287 206.319 144.462 206.407 144.55V209.523C206.407 238.953 181.801 261.921 154.483 261.921V261.833ZM41.09 213.802C34.9607 203.235 32.6841 190.746 34.8732 178.695C35.311 178.957 36.0116 179.394 36.5368 179.656L92.3137 211.793C93.7146 212.579 95.2908 213.016 96.8669 213.016C98.443 213.016 100.019 212.579 101.42 211.793L169.544 172.582V199.742C169.544 199.742 169.544 200.003 169.544 200.179C169.544 200.266 169.368 200.44 169.28 200.528L112.891 233.014C100.807 239.914 86.5346 241.835 73.0501 238.254C59.5656 234.674 48.095 225.854 41.1777 213.889L41.09 213.802ZM26.3798 92.3263C32.5091 81.672 42.2284 73.5504 53.6989 69.3585V135.555C53.6989 137.127 54.1368 138.699 54.9248 140.095C55.7128 141.493 56.8511 142.629 58.2522 143.414L126.375 182.626L102.821 196.248C102.821 196.248 102.558 196.336 102.471 196.424C102.296 196.424 102.208 196.424 102.033 196.424L45.6432 163.937C33.5598 156.95 24.8036 145.511 21.2136 132.148C17.6236 118.7 19.4623 104.465 26.3798 92.4136V92.3263ZM220.154 137.301L152.031 98.0901L175.585 84.5539C175.585 84.5539 175.848 84.4666 175.935 84.3793H176.372L232.763 116.866C241.432 121.843 248.436 129.18 253.076 138C257.718 146.819 259.644 156.775 258.855 166.644C257.98 176.599 254.303 186.031 248.26 193.89C242.219 201.838 234.077 207.864 224.707 211.269V145.073C224.707 143.502 224.269 141.93 223.482 140.532C222.693 139.134 221.555 138 220.154 137.213V137.301ZM243.62 102.02C243.62 102.02 242.481 101.321 241.956 101.059L186.18 68.9219C184.779 68.1359 183.203 67.6993 181.627 67.6993C180.051 67.6993 178.387 68.1359 177.073 68.9219L108.95 108.133V80.9734C108.95 80.9734 108.95 80.7113 108.95 80.5368C108.95 80.4495 109.125 80.2747 109.213 80.1875L165.603 47.7007C174.272 42.723 184.078 40.2777 194.06 40.7144C204.042 41.151 213.674 44.3822 221.818 50.0587C229.96 55.735 236.352 63.6821 240.205 72.8517C244.057 82.0213 245.196 92.1516 243.532 101.933L243.62 102.02ZM96.0789 150.488L72.5247 136.865C72.5247 136.865 72.262 136.69 72.1745 136.602C72.1745 136.516 72.0869 136.34 71.9994 136.252V71.2798C71.9994 61.3242 74.8888 51.6306 80.2301 43.1596C85.5713 34.776 93.1892 28.0516 102.296 23.8598C111.315 19.6679 121.384 18.096 131.279 19.3186C141.173 20.6286 150.542 24.6458 158.16 31.0207C157.722 31.2828 157.022 31.6321 156.496 31.9814L100.72 64.1188C99.3186 64.9047 98.1803 66.0401 97.3922 67.4373C96.6042 68.8345 96.1664 70.4065 96.1664 71.9784V150.4L96.0789 150.488ZM108.863 122.979L139.159 105.513L169.456 122.979V157.911L139.159 175.376L108.863 157.911V122.979Z" fill="white"/>
</svg>
