<svg width="73" height="50" viewBox="0 0 513 513" fill="none" xmlns="http://www.w3.org/2000/svg">
<path d="M259.575 274.389L199.041 450.295C217.554 455.741 236.751 458.511 256.048 458.52C279.536 458.52 302.08 454.455 323.039 447.079C322.482 446.196 322.003 445.265 321.608 444.297L259.575 274.389ZM54.2681 256.729C54.2681 336.602 100.685 405.62 167.993 438.321L71.7483 174.618C60.2084 200.454 54.2519 228.434 54.2681 256.729Z" fill="white"/>
<path d="M392.242 246.551C392.242 221.616 383.293 204.352 375.617 190.9C365.386 174.28 355.798 160.211 355.798 143.586C355.798 125.039 369.863 107.775 389.682 107.775C390.579 107.775 391.424 107.886 392.3 107.928C356.411 75.0532 308.589 54.9702 256.054 54.9702C185.552 54.9702 123.535 91.1344 87.4707 145.919C91.7967 146.063 96.1245 146.144 100.453 146.162C121.56 146.162 154.234 143.601 154.234 143.601C165.121 142.947 166.388 158.928 155.528 160.211C155.528 160.211 144.594 161.493 132.436 162.138L205.899 380.69L250.051 248.256L218.607 162.132C211.538 161.691 204.484 161.049 197.452 160.205C186.587 159.572 187.854 142.952 198.724 143.596C198.724 143.596 232.053 146.157 251.867 146.157C272.969 146.157 305.654 143.596 305.654 143.596C316.54 142.952 317.813 158.922 306.937 160.205C306.937 160.205 295.993 161.488 283.845 162.132L356.77 379.027L376.895 311.778C385.611 283.871 392.242 263.82 392.242 246.551ZM433.084 159.931C433.95 166.351 434.446 173.261 434.446 180.679C434.446 201.153 430.629 224.171 419.109 252.949L357.472 431.136C417.451 396.154 457.813 331.164 457.813 256.74C457.867 222.901 449.361 189.598 433.084 159.931Z" fill="white"/>
<path d="M256.038 0.739746C114.654 0.739746 0.0429688 115.356 0.0429688 256.74C0.0429688 398.123 114.654 512.74 256.038 512.74C397.421 512.74 512.032 398.123 512.032 256.74C512.032 115.356 397.421 0.739746 256.038 0.739746ZM256.048 481.153C132.298 481.153 31.6351 380.49 31.6351 256.729C31.6351 132.99 132.293 32.3266 256.048 32.3266C379.782 32.3266 480.44 132.995 480.44 256.729C480.446 380.479 379.777 481.153 256.048 481.153Z" fill="white"/>
</svg>
