<svg xmlns="http://www.w3.org/2000/svg" version="1.1" xmlns:xlink="http://www.w3.org/1999/xlink" width="88" height="88" x="0" y="0" viewBox="0 0 510 510" style="enable-background:new 0 0 512 512" xml:space="preserve" fill-rule="evenodd" class=""><g><path d="M118.366 474.875c9.957-66.546 67.338-117.589 136.634-117.589 69.333 0 126.715 51.044 136.65 117.59a4.998 4.998 0 0 1-4.951 5.701c-35.582 0-227.804 0-263.395-.013a4.99 4.99 0 0 1-4.938-5.689zM255 347.286c-38.468 0-69.825-31.394-69.825-69.863 0-38.468 31.357-69.862 69.825-69.862 38.505 0 69.862 31.394 69.862 69.862 0 38.469-31.357 69.863-69.862 69.863zm-139.19-53.073c0 4.416-3.585 8-8 8s-8-3.584-8-8c0-85.651 69.538-155.19 155.19-155.19s155.19 69.539 155.19 155.19c0 4.416-3.585 8-8 8s-8-3.584-8-8c0-76.821-62.369-139.19-139.19-139.19s-139.19 62.369-139.19 139.19zM247 79.154V37.423c0-4.415 3.585-8 8-8s8 3.585 8 8v41.731l2.248-1.972a8.004 8.004 0 0 1 11.289.736 8.003 8.003 0 0 1-.736 11.29l-15.524 13.623a8 8 0 0 1-10.554 0l-15.524-13.623a8.003 8.003 0 0 1-.736-11.29 8.004 8.004 0 0 1 11.289-.736zm-126.54 52.415.194-2.984c.288-4.406 4.098-7.75 8.504-7.462a8.003 8.003 0 0 1 7.462 8.504l-1.344 20.61a7.999 7.999 0 0 1-7.462 7.462l-20.611 1.345a8.005 8.005 0 0 1-8.504-7.463 8.004 8.004 0 0 1 7.463-8.503l2.984-.195-29.508-29.508a8.003 8.003 0 0 1 0-11.314 8.003 8.003 0 0 1 11.313 0zM56.731 269.423l-1.972-2.247c-2.913-3.319-2.583-8.378.736-11.29s8.377-2.582 11.29.736l13.623 15.525a8 8 0 0 1 0 10.553l-13.623 15.525c-2.913 3.318-7.971 3.648-11.29.736s-3.649-7.971-.736-11.29l1.972-2.248H15c-4.415 0-8-3.584-8-8 0-4.415 3.585-8 8-8zM389.54 131.569l29.509-29.508a8.003 8.003 0 0 1 11.313 0 8.003 8.003 0 0 1 0 11.314l-29.508 29.508 2.984.195a8.004 8.004 0 0 1 7.463 8.503 8.005 8.005 0 0 1-8.504 7.463l-20.611-1.345a7.999 7.999 0 0 1-7.462-7.462l-1.344-20.61a8.003 8.003 0 0 1 7.462-8.504c4.406-.288 8.216 3.056 8.504 7.462zm63.729 137.854H495c4.415 0 8 3.585 8 8 0 4.416-3.585 8-8 8h-41.731l1.972 2.248c2.913 3.319 2.583 8.378-.736 11.29s-8.377 2.582-11.29-.736L429.592 282.7a8 8 0 0 1 0-10.553l13.623-15.525c2.913-3.318 7.971-3.648 11.29-.736s3.649 7.971.736 11.29z" fill="#ffffff" opacity="1" data-original="#000000" class=""></path></g></svg>