<svg width="496" height="304" viewBox="0 0 496 304" fill="none" xmlns="http://www.w3.org/2000/svg">
<path d="M24.5 47.5V0.5H471.5V47.5H24.5ZM472.5 0.505214C485.247 0.771309 495.5 11.1885 495.5 24C495.5 36.8115 485.247 47.2287 472.5 47.4948V0.505214ZM23.5 47.4948C10.7523 47.2287 0.5 36.8115 0.5 24C0.5 11.1885 10.7523 0.771302 23.5 0.505214V47.4948ZM24.5 175.5V128.5H407.5V175.5H24.5ZM408.5 128.505C421.247 128.771 431.5 139.189 431.5 152C431.5 164.811 421.247 175.229 408.5 175.495V128.505ZM23.5 175.495C10.7523 175.229 0.5 164.811 0.5 152C0.5 139.189 10.7523 128.771 23.5 128.505V175.495ZM24.5 303.5V256.5H247.5V303.5H24.5ZM248.5 256.505C261.247 256.771 271.5 267.189 271.5 280C271.5 292.811 261.247 303.229 248.5 303.495V256.505ZM23.5 303.495C10.7523 303.229 0.5 292.811 0.5 280C0.5 267.189 10.7523 256.771 23.5 256.505V303.495Z" fill="#8D6A9F" stroke="#8D6A9F"/>
</svg>
