<svg xmlns="http://www.w3.org/2000/svg" version="1.1" xmlns:xlink="http://www.w3.org/1999/xlink" width="88" height="88" x="0" y="0" viewBox="0 0 506.161 506.161" style="enable-background:new 0 0 512 512" xml:space="preserve" class=""><g><path d="M165.858 329.247c6.161-5.421 6.766-14.807 1.352-20.974l-.818-.939a14.755 14.755 0 0 0-10.195-4.98h-.989a14.76 14.76 0 0 0-9.79 3.693l-19.921 17.488-18.142 15.923c-6.143 5.428-6.744 14.799-1.345 20.967l.832.953c5.425 6.158 14.811 6.763 20.981 1.352l13.945-12.237z" fill="#ffffff" opacity="1" data-original="#000000" class=""></path><path d="M118.026 369.9c-.413 0-.818 0-1.231-.036a18.292 18.292 0 0 1-12.643-6.218l-.84-.96c-6.678-7.643-5.931-19.245 1.672-25.969l38.078-33.439a18.495 18.495 0 0 1 13.347-4.539 18.288 18.288 0 0 1 12.643 6.218l1.167 1.359c6.366 7.663 5.477 19.001-2.006 25.577l-38.064 33.439a18.239 18.239 0 0 1-12.123 4.568zm37.167-64.032a11.306 11.306 0 0 0-7.442 2.846l-38.064 33.439c-4.669 4.132-5.123 11.259-1.017 15.951l.84.96c4.128 4.676 11.262 5.131 15.951 1.017l38.057-33.439c4.682-4.122 5.14-11.257 1.025-15.944l-.832-.96a11.196 11.196 0 0 0-7.748-3.806zM219.282 366.414a14.81 14.81 0 0 0-9.797 3.685l-19.644 17.246c-6.173 5.417-6.786 14.812-1.37 20.985 5.417 6.173 14.812 6.786 20.985 1.37l19.644-17.246c6.173-5.41 6.791-14.8 1.381-20.973a14.863 14.863 0 0 0-11.199-5.067z" fill="#ffffff" opacity="1" data-original="#000000" class=""></path><path d="M199.667 416.942c-10.173.018-18.434-8.215-18.452-18.388a18.42 18.42 0 0 1 6.279-13.884l19.651-17.246c7.748-6.414 19.154-5.672 26.004 1.693 6.714 7.651 5.956 19.295-1.693 26.011l-19.644 17.246a18.332 18.332 0 0 1-12.145 4.568zm19.622-46.956a11.273 11.273 0 0 0-7.478 2.76l-19.651 17.246c-4.698 4.126-5.161 11.279-1.035 15.976 4.126 4.698 11.279 5.161 15.976 1.035l19.651-17.225c4.696-4.115 5.166-11.258 1.051-15.953a11.309 11.309 0 0 0-8.521-3.854zM44.004 93.793 4.062 268.046l31.931 17.943 82.63-134.41z" fill="#ffffff" opacity="1" data-original="#000000" class=""></path><path d="M37.231 290.763 0 269.846 41.77 87.568l81.549 63.143zM8.125 266.246l26.63 14.941 79.172-128.776-67.703-52.393zM119.648 309.013c6.171-5.42 6.782-14.815 1.366-20.988l-.256-.292a14.756 14.756 0 0 0-10.202-5.023h-.989a14.76 14.76 0 0 0-9.79 3.693l-23.856 20.889c-6.171 5.42-6.782 14.815-1.366 20.988 5.309 6.317 14.734 7.133 21.051 1.823l.194-.166 1.807-1.587 18.157-15.937z" fill="#ffffff" opacity="1" data-original="#000000" class=""></path><path d="M86.152 337.172c-.455 0-.918 0-1.387-.05a18.912 18.912 0 0 1-12.849-6.481c-6.715-7.647-5.96-19.289 1.686-26.004l23.827-20.91c7.647-6.706 19.28-5.951 25.997 1.686a18.539 18.539 0 0 1 4.795 13.653 18.29 18.29 0 0 1-6.225 12.65l-23.82 20.91a18.103 18.103 0 0 1-12.024 4.546zm23.414-50.912a11.272 11.272 0 0 0-7.442 2.846l-23.827 20.91c-4.696 4.121-5.161 11.269-1.04 15.964l.001.001a11.828 11.828 0 0 0 8.025 4.084 11.05 11.05 0 0 0 8.189-2.746l23.82-20.91c4.692-4.124 5.157-11.269 1.039-15.965a11.459 11.459 0 0 0-8.018-4.119zM202.755 350.641a14.765 14.765 0 0 0-3.664-10.779l-.213-.242a14.75 14.75 0 0 0-10.181-4.98h-.989a14.755 14.755 0 0 0-9.79 3.693l-2.334 2.049-24.105 21.159-6.403 5.592c-6.183 5.595-6.659 15.142-1.065 21.324a15.095 15.095 0 0 0 10.115 4.929 14.717 14.717 0 0 0 10.779-3.664l32.82-28.807a14.777 14.777 0 0 0 5.03-10.274z" fill="#ffffff" opacity="1" data-original="#000000" class=""></path><path d="M155.115 396.936c-.406 0-.804 0-1.209-.036-10.248-.634-18.041-9.456-17.406-19.704a18.59 18.59 0 0 1 6.236-12.775l32.792-28.843a18.59 18.59 0 0 1 13.347-4.539 18.261 18.261 0 0 1 12.629 6.204 18.5 18.5 0 0 1 4.781 13.632 18.32 18.32 0 0 1-6.211 12.621l-32.82 28.807a18.298 18.298 0 0 1-12.139 4.633zm22.767-53.937-30.458 26.737c-4.698 4.12-5.175 11.264-1.067 15.972a11.477 11.477 0 0 0 7.976 4.063 11.197 11.197 0 0 0 8.225-2.796l32.82-28.807c4.695-4.116 5.165-11.258 1.049-15.954l-.01-.012a11.386 11.386 0 0 0-7.983-4.07h-.754a11.149 11.149 0 0 0-7.442 2.846z" fill="#ffffff" opacity="1" data-original="#000000" class=""></path><path d="m399.398 303.122-115.785-94.348c-44.339 23.543-75.736 11.426-90.748 1.843-7.825-5.106-10.029-15.59-4.923-23.415a16.913 16.913 0 0 1 6.346-5.755l38.59-20.497a58.095 58.095 0 0 0-2.846-.363 746.768 746.768 0 0 1-105.248 9.064L57.323 279.373l15.04 11.462 17.68-15.524c12.275-10.776 30.962-9.561 41.738 2.714l.004.004.256.292a29.33 29.33 0 0 1 6.802 14.315 29 29 0 0 1 18.271-4.98 29.373 29.373 0 0 1 20.305 10.003l.832.953a29.373 29.373 0 0 1 7.278 21.415v.043a29.835 29.835 0 0 1 4.077-.135 29.383 29.383 0 0 1 20.305 10.003l-5.315 5.094 5.528-4.852a29.387 29.387 0 0 1 7.293 21.429c0 .1-.043.192-.05.292 16.199-1.153 30.265 11.045 31.418 27.244.096 1.352.099 2.709.008 4.061a29.294 29.294 0 0 1-4.895 14.229l31.724 18.306c6.955 3.944 15.787 1.604 19.878-5.265 3.88-6.556 1.988-15-4.319-19.274l-50.514-35.004c-.043 0-.064-.078-.1-.107l-3.401-2.355a7.356 7.356 0 0 1-1.682-10.267 7.356 7.356 0 0 1 10.056-1.828l71.247 49.355c6.572 4.555 15.592 2.92 20.147-3.652l.009-.012c4.471-6.535 2.889-15.445-3.557-20.042l-70.898-50.287c-.043 0-.057-.078-.1-.107a7.363 7.363 0 0 1 8.538-11.996l79.485 56.391c6.952 4.909 16.568 3.253 21.477-3.7 4.752-6.729 3.37-16.006-3.136-21.059l-85.526-61.627c-3.38-2.255-4.292-6.822-2.037-10.202a7.356 7.356 0 0 1 10.575-1.771l5.848 4.169h.078l79.265 57.11c.149.107.256.242.398.349l1.309.939c.249.172.487.359.711.562l1.423.975c6.625 4.747 15.807 3.478 20.896-2.889a15.086 15.086 0 0 0 2.64-13.632 14.733 14.733 0 0 0-4.934-7.393z" fill="#ffffff" opacity="1" data-original="#000000" class=""></path><path d="M282.83 421.24a17.903 17.903 0 0 1-8.957-2.398l-35.026-20.199 2.134-3.13c7.907-11.928 4.646-28.007-7.282-35.914a25.908 25.908 0 0 0-12.689-4.263 17.59 17.59 0 0 0-2.647.071l-4.774.299.277-4.048a25.984 25.984 0 0 0-4.198-16.3L207 337.706l-4.81-5.236 2.704-2.59a25.831 25.831 0 0 0-15.467-6.403 23.906 23.906 0 0 0-3.109.1l-3.821.285-.477-4.212v-.15a25.976 25.976 0 0 0-6.403-18.548l-.84-.96c-8.565-9.832-23.125-11.713-33.909-4.383l-4.532 3.045-.953-5.379c-2.417-14.221-15.905-23.789-30.126-21.371A26.129 26.129 0 0 0 92.431 278L72.56 295.445l-19.957-15.19 70.158-114.12 1.914-.057a745.756 745.756 0 0 0 104.679-9l.498-.1.505.043c.939.085 1.978.228 3.052.384l10.672 1.601-48.124 25.556c-6.556 3.387-9.124 11.448-5.737 18.004a13.367 13.367 0 0 0 4.577 5.062c14.123 9.014 44.261 20.761 87.148-1.999l2.085-1.11 117.606 95.828a18.315 18.315 0 0 1 6.069 9.199 18.6 18.6 0 0 1-3.244 16.819c-6.284 7.853-17.615 9.416-25.791 3.557l-3.991-2.981-84.978-61.186a3.785 3.785 0 0 0-5.282.867l-.011.016a3.793 3.793 0 0 0 .87 5.292l.012.009 85.54 61.677c8.293 6.401 9.827 18.312 3.426 26.605-6.195 8.027-17.608 9.761-25.908 3.939l-79.507-56.363a3.808 3.808 0 0 0-2.846-.647 3.8 3.8 0 0 0-1.565 6.845l71.019 50.408c8.024 5.733 9.982 16.833 4.404 24.965-5.664 8.194-16.898 10.245-25.092 4.581l-.009-.006-71.232-49.362a3.799 3.799 0 1 0-4.318 6.247l54.029 37.466c8.216 5.625 10.316 16.845 4.691 25.061a18.03 18.03 0 0 1-10.169 7.218 18.604 18.604 0 0 1-4.923.667zm-34.022-25.08 28.622 16.52c5.336 2.887 12.002.903 14.889-4.433a10.984 10.984 0 0 0-3.136-14.065l-40.376-28.018a32.906 32.906 0 0 1 3.557 17.267 32.052 32.052 0 0 1-3.556 12.729zm-7.413-59.357a10.838 10.838 0 0 1 6.19 1.928l71.232 49.355c4.961 3.429 11.763 2.19 15.197-2.768 3.375-4.927 2.185-11.649-2.675-15.119L259.935 319.5a10.914 10.914 0 0 1 13.027-17.502l79.507 56.391c5.368 3.747 12.757 2.432 16.504-2.936a11.853 11.853 0 0 0-2.395-16.103l-85.433-61.563c-4.902-3.505-6.034-10.32-2.529-15.222s10.32-6.034 15.222-2.529l5.934 4.205 80.965 58.405c.364.262.711.547 1.039.854l1.003.655c5.068 3.672 12.125 2.734 16.058-2.134a11.556 11.556 0 0 0 2.035-10.444 11.237 11.237 0 0 0-3.707-5.692L283.18 213.01c-44.958 22.98-77.009 10.331-92.228.605-9.487-6.155-12.188-18.835-6.033-28.322a20.47 20.47 0 0 1 7.734-7.024l21.814-11.583c-22.184 3.01-52.471 5.251-87.639 6.403L62.083 278.455l10.181 7.748L87.767 272.6c13.747-12.071 34.678-10.712 46.749 3.035l.009.01a33.576 33.576 0 0 1 6.674 11.547 32.075 32.075 0 0 1 16.214-3.152 32.92 32.92 0 0 1 22.767 11.213l.84.96a32.846 32.846 0 0 1 8.175 20.085h.711a32.913 32.913 0 0 1 20.483 8.943l.114-.1 1.928 2.206.206.228 2.241 2.554-.1.1a32.81 32.81 0 0 1 6.268 17.965h.434c3.16.206 6.275.863 9.249 1.949-1.368-5.858 2.273-11.716 8.131-13.084.833-.194 1.686-.29 2.541-.285zM462.149 91.146l-74.605 57.786 69.013 112.249c.454.235.881.519 1.274.847a7.227 7.227 0 0 1 2.021 4.511l10.338 16.812 31.902-17.95z" fill="#ffffff" opacity="1" data-original="#000000" class=""></path><path d="m468.922 288.124-12.557-20.433-.078-.825a3.696 3.696 0 0 0-.996-2.334l-1.366-.811-.42-.711-70.685-114.939 81.563-63.15 41.777 182.278zm-5.691-22.81 8.153 13.255 26.63-14.941-38.085-166.263-67.696 52.421 66.878 108.777c.441.264.849.579 1.217.939a10.596 10.596 0 0 1 2.924 5.813zM368.385 168.86a65.57 65.57 0 0 1-45.463 1.651l-39.166-12.714a21.34 21.34 0 0 0-16.321 1.423l-13.276 7.051c-.142.071-.263.157-.413.221l-52.606 27.947a2.233 2.233 0 0 0-1.266 1.935 2.022 2.022 0 0 0 .946 1.871c15.474 9.875 41.977 17.075 79.919-4.696a7.371 7.371 0 0 1 8.31.676l119.584 97.471a28.388 28.388 0 0 1 4.482 4.632l29.569-29.59-63.015-102.494z" fill="#ffffff" opacity="1" data-original="#000000" class=""></path><path d="m412.809 301.649-2.476-3.138a24.458 24.458 0 0 0-3.913-4.055l-119.612-97.443a3.836 3.836 0 0 0-4.269-.349c-39.494 22.682-67.262 15.026-83.605 4.61a5.558 5.558 0 0 1-2.583-5.051 5.76 5.76 0 0 1 3.166-4.909l66.273-35.196a24.9 24.9 0 0 1 19.082-1.679l39.152 12.693a62.018 62.018 0 0 0 43.008-1.551l14.108-5.777 66.067 107.432zM284.381 189.037a10.96 10.96 0 0 1 6.908 2.433l119.591 97.471a27.092 27.092 0 0 1 2.398 2.184l24.901-24.901-59.956-97.55-8.481 3.472a69.127 69.127 0 0 1-47.932 1.736l-39.131-12.707a17.786 17.786 0 0 0-13.575 1.21l-64.267 34.151c14.891 8.651 39.387 13.923 74.156-6.047a10.898 10.898 0 0 1 5.388-1.452z" fill="#ffffff" opacity="1" data-original="#000000" class=""></path></g></svg>