<svg width="40" height="40" viewBox="0 0 40 40" fill="none" xmlns="http://www.w3.org/2000/svg">
<g clip-path="url(#clip0_143_2)">
<path fill-rule="evenodd" clip-rule="evenodd" d="M0.9375 13.4848H3.4375C3.68614 13.4848 3.9246 13.386 4.10041 13.2102C4.27623 13.0344 4.375 12.7959 4.375 12.5473C4.375 12.2987 4.27623 12.0602 4.10041 11.8844C3.9246 11.7086 3.68614 11.6098 3.4375 11.6098H0.9375C0.68886 11.6098 0.450403 11.7086 0.274587 11.8844C0.098772 12.0602 0 12.2987 0 12.5473C0 12.7959 0.098772 13.0344 0.274587 13.2102C0.450403 13.386 0.68886 13.4848 0.9375 13.4848ZM5.3575 4.82728C5.50516 4.91846 5.67521 4.96692 5.84875 4.96728C6.05269 4.96721 6.25105 4.90063 6.41374 4.77764C6.57643 4.65466 6.69458 4.48198 6.75027 4.28579C6.80596 4.08959 6.79616 3.88059 6.72235 3.69048C6.64853 3.50036 6.51474 3.3395 6.34125 3.23228L4.21125 1.91978C3.99941 1.78933 3.74442 1.74837 3.50238 1.80592C3.26034 1.86347 3.05108 2.01481 2.92062 2.22666C2.79017 2.4385 2.74922 2.69349 2.80677 2.93552C2.86432 3.17756 3.01566 3.38683 3.2275 3.51728L5.3575 4.82728ZM3.15576 23.1245C3.31866 23.2474 3.5172 23.3137 3.72125 23.3136C3.89413 23.3137 4.06369 23.2661 4.21125 23.1761L6.34125 21.8636C6.5394 21.727 6.67752 21.5195 6.7271 21.284C6.77668 21.0485 6.73392 20.803 6.60766 20.5981C6.4814 20.3932 6.28127 20.2447 6.04862 20.1831C5.81597 20.1215 5.56857 20.1517 5.3575 20.2673L3.2275 21.5786C3.05392 21.6858 2.92008 21.8468 2.84629 22.037C2.7725 22.2273 2.7628 22.4364 2.81865 22.6327C2.8745 22.8289 2.99286 23.0016 3.15576 23.1245ZM35.9375 13.4848H38.4375C38.6861 13.4848 38.9246 13.386 39.1004 13.2102C39.2762 13.0344 39.375 12.7959 39.375 12.5473C39.375 12.2987 39.2762 12.0602 39.1004 11.8844C38.9246 11.7086 38.6861 11.6098 38.4375 11.6098H35.9375C35.6889 11.6098 35.4504 11.7086 35.2746 11.8844C35.0988 12.0602 35 12.2987 35 12.5473C35 12.7959 35.0988 13.0344 35.2746 13.2102C35.4504 13.386 35.6889 13.4848 35.9375 13.4848ZM32.96 4.7782C33.1231 4.90125 33.3219 4.96765 33.5262 4.96728V4.96603C33.6996 4.96642 33.8696 4.91883 34.0175 4.82853L36.1475 3.51603C36.3592 3.38558 36.5104 3.17638 36.5678 2.93446C36.6252 2.69254 36.5842 2.43771 36.4538 2.22603C36.3233 2.01436 36.1141 1.86317 35.8722 1.80574C35.6303 1.74831 35.3754 1.78933 35.1637 1.91978L33.0337 3.23103C32.8597 3.338 32.7253 3.49891 32.6511 3.68928C32.5769 3.87965 32.5669 4.08905 32.6227 4.28562C32.6784 4.48218 32.7969 4.65515 32.96 4.7782ZM35.1637 23.1761C35.3113 23.2661 35.4809 23.3137 35.6538 23.3136C35.8578 23.3137 36.0563 23.2474 36.2192 23.1245C36.3821 23.0016 36.5005 22.8289 36.5564 22.6327C36.6122 22.4364 36.6025 22.2273 36.5287 22.037C36.4549 21.8468 36.3211 21.6858 36.1475 21.5786L34.0175 20.2673C33.8058 20.1368 33.551 20.0958 33.3091 20.1533C33.0672 20.2107 32.858 20.3619 32.7275 20.5736C32.597 20.7852 32.556 21.0401 32.6135 21.282C32.6709 21.5239 32.8221 21.7331 33.0337 21.8636L35.1637 23.1761ZM15.625 24.9111V25.3598H18.75V22.2173C17.434 22.0708 16.3882 21.0125 16.2627 19.6901C16.2543 19.6019 16.25 19.5126 16.25 19.4223C16.25 17.9773 17.3463 16.7836 18.75 16.6273V13.4848H15.9375C15.6889 13.4848 15.4504 13.386 15.2746 13.2102C15.0988 13.0344 15 12.7959 15 12.5473V11.9223C15 11.4061 14.5787 10.9848 14.0625 10.9848C13.5463 10.9848 13.125 11.4061 13.125 11.9223V12.5473C13.125 12.7959 13.0262 13.0344 12.8504 13.2102C12.6746 13.386 12.4361 13.4848 12.1875 13.4848H9.41949C9.54067 14.787 9.90791 16.0574 10.5047 17.2275C11.244 18.677 12.3148 19.9317 13.63 20.8898C14.5464 21.5551 15.1913 22.5408 15.4704 23.654C15.5719 24.0587 15.625 24.4804 15.625 24.9098V24.9111ZM23.75 25.3598H20.625V21.2973C20.625 21.0487 20.5262 20.8102 20.3504 20.6344C20.1746 20.4586 19.9361 20.3598 19.6875 20.3598H19.0625C18.5462 20.3598 18.125 19.9386 18.125 19.4223C18.125 18.9061 18.5462 18.4848 19.0625 18.4848H19.6875C19.9361 18.4848 20.1746 18.386 20.3504 18.2102C20.5262 18.0344 20.625 17.796 20.625 17.5473V13.4848H22.5175C22.6737 14.8886 23.8675 15.9848 25.3125 15.9848C26.7575 15.9848 27.9513 14.8886 28.1075 13.4848H29.9551C29.8342 14.7783 29.4707 16.0404 28.8806 17.204C28.6474 17.6637 28.381 18.1039 28.0841 18.5214C27.4458 19.4171 26.6672 20.2071 25.7763 20.8598C25.3677 21.1645 25.0122 21.5282 24.7179 21.9344C24.5554 22.1573 24.4109 22.3938 24.2863 22.6418C23.9329 23.3451 23.7492 24.1214 23.75 24.9086V24.9098V25.3598ZM16.8575 11.6098H18.75V8.79728C18.75 8.54864 18.8488 8.31018 19.0246 8.13437C19.2004 7.95855 19.4389 7.85978 19.6875 7.85978H20.3125C20.8288 7.85978 21.25 7.43853 21.25 6.92228C21.25 6.40603 20.8288 5.98478 20.3125 5.98478H19.6875C19.4389 5.98478 19.2004 5.88601 19.0246 5.71019C18.8488 5.53438 18.75 5.29592 18.75 5.04728V2.27853C13.8112 2.73478 9.86625 6.68103 9.4175 11.6098H11.2675C11.4237 10.2061 12.6175 9.10978 14.0625 9.10978C15.5075 9.10978 16.7013 10.2061 16.8575 11.6098ZM15.2547 1.18936C16.6915 0.628484 18.2212 0.347223 19.7619 0.359777H20C20.9181 0.384623 21.8118 0.513116 22.67 0.733696C27.9349 2.08168 31.875 6.91705 31.875 12.5473C31.875 14.7788 31.2549 16.9446 30.1308 18.8161C29.2997 20.2008 28.2012 21.4099 26.8962 22.3711C26.5806 22.6059 26.3124 22.8971 26.1048 23.2292C26.0524 23.3136 26.0039 23.4005 25.9594 23.4898C25.7397 23.9309 25.6252 24.417 25.625 24.9098V25.3598H25.9375C27.1437 25.3598 28.125 26.3411 28.125 27.5473V30.0473C28.125 31.2536 27.1437 32.2348 25.9375 32.2348H25.625V33.7973C25.625 37.0723 22.9625 39.7348 19.6875 39.7348C16.4125 39.7348 13.75 37.0723 13.75 33.7973V32.2348H13.4375C12.2312 32.2348 11.25 31.2536 11.25 30.0473V27.5473C11.25 26.3411 12.2312 25.3598 13.4375 25.3598H13.75V24.9098C13.75 24.7627 13.7403 24.6171 13.7215 24.4741C13.6105 23.6332 13.1809 22.8807 12.525 22.4086C10.9699 21.2768 9.7041 19.7937 8.83087 18.0801C7.95763 16.3664 7.50162 14.4706 7.5 12.5473C7.49481 10.9184 7.81877 9.30525 8.45243 7.80465C9.08609 6.30406 10.0164 4.94695 11.1875 3.81478C12.3529 2.67508 13.7363 1.78214 15.2547 1.18936ZM14.6875 30.3598H24.6875H25.9375C26.0204 30.3598 26.0999 30.3269 26.1585 30.2683C26.2171 30.2097 26.25 30.1302 26.25 30.0473V27.5473C26.25 27.4644 26.2171 27.3849 26.1585 27.3263C26.0999 27.2677 26.0204 27.2348 25.9375 27.2348H24.6875H19.6875H19.6856H14.6875H13.4375C13.3546 27.2348 13.2751 27.2677 13.2165 27.3263C13.1579 27.3849 13.125 27.4644 13.125 27.5473V30.0473C13.125 30.2198 13.265 30.3598 13.4375 30.3598H14.6875ZM15.625 32.2348V33.7973C15.625 36.0373 17.4475 37.8598 19.6875 37.8598C21.9275 37.8598 23.75 36.0373 23.75 33.7973V32.2348H15.625ZM29.9567 11.6098C29.5034 6.71378 25.54 2.72643 20.625 2.27701V4.12728C22.0287 4.28353 23.125 5.47728 23.125 6.92228C23.125 8.36728 22.0287 9.56103 20.625 9.71728V11.6098H23.4375C23.6551 11.6098 23.8648 11.6854 24.0316 11.8221C24.0555 11.8416 24.0784 11.8624 24.1004 11.8844C24.2652 12.0492 24.3624 12.2691 24.3738 12.5008C24.3746 12.5163 24.375 12.5318 24.375 12.5473V13.1723C24.375 13.6886 24.7962 14.1098 25.3125 14.1098C25.8288 14.1098 26.25 13.6886 26.25 13.1723V12.5473C26.25 12.2986 26.3488 12.0602 26.5246 11.8844C26.7004 11.7086 26.9389 11.6098 27.1875 11.6098H29.9567Z" fill="url(#paint0_linear_143_2)"/>
</g>
<defs>
<linearGradient id="paint0_linear_143_2" x1="47.0377" y1="6.57654" x2="-1.88057" y2="8.42281" gradientUnits="userSpaceOnUse">
<stop stop-color="#C1ADCC"/>
<stop offset="1" stop-color="#9D6BB7"/>
</linearGradient>
<clipPath id="clip0_143_2">
<rect width="40" height="40" fill="white"/>
</clipPath>
</defs>
</svg>
