<svg width="41" height="41" viewBox="0 0 41 41" fill="none" xmlns="http://www.w3.org/2000/svg">
<mask id="mask0_143_5" style="mask-type:luminance" maskUnits="userSpaceOnUse" x="0" y="0" width="41" height="41">
<path d="M40.332 0.357422H0.332031V40.3574H40.332V0.357422Z" fill="white"/>
</mask>
<g mask="url(#mask0_143_5)">
<path d="M24.543 7.72283C24.3165 7.64703 24.0773 7.61663 23.8391 7.63338C23.6009 7.65013 23.3683 7.71368 23.1547 7.82042C22.941 7.92715 22.7505 8.07496 22.5941 8.2554C22.4376 8.43583 22.3183 8.64535 22.2429 8.87195L14.9701 30.6907C14.8177 31.1483 14.8533 31.6477 15.0692 32.0791C15.285 32.5104 15.6634 32.8385 16.121 32.9909C16.5786 33.1432 17.078 33.1075 17.5094 32.8916C17.9407 32.6758 18.2687 32.2974 18.421 31.8398L25.6939 10.021C25.7694 9.79461 25.7995 9.55548 25.7825 9.31737C25.7655 9.07926 25.7017 8.84683 25.5948 8.63338C25.4879 8.41994 25.34 8.22965 25.1595 8.07341C24.979 7.91717 24.7695 7.79804 24.543 7.72283ZM10.7082 11.7974C10.3672 11.4566 9.90486 11.2651 9.42273 11.2651C8.94061 11.2651 8.47822 11.4566 8.13725 11.7974L0.864381 19.0704C0.523518 19.4113 0.332031 19.8737 0.332031 20.3559C0.332031 20.838 0.523518 21.3004 0.864381 21.6414L8.13725 28.9143C8.48017 29.2455 8.93946 29.4288 9.41619 29.4246C9.89292 29.4205 10.3489 29.2292 10.686 28.8921C11.0231 28.555 11.2143 28.099 11.2185 27.6222C11.2226 27.1455 11.0394 26.6862 10.7082 26.3433L4.72082 20.3559L10.7082 14.3684C11.049 14.0275 11.2405 13.5651 11.2405 13.0829C11.2405 12.6008 11.049 12.1384 10.7082 11.7974ZM39.7996 19.0704L32.5268 11.7974C32.1838 11.4662 31.7246 11.283 31.2478 11.2871C30.7711 11.2913 30.3151 11.4825 29.978 11.8196C29.6408 12.1567 29.4496 12.6127 29.4455 13.0895C29.4413 13.5662 29.6246 14.0255 29.9558 14.3684L35.9432 20.3559L29.9558 26.3433C29.7821 26.511 29.6436 26.7117 29.5483 26.9335C29.4531 27.1553 29.4029 27.3939 29.4008 27.6353C29.3987 27.8768 29.4447 28.1162 29.5361 28.3396C29.6275 28.5631 29.7626 28.7661 29.9333 28.9368C30.104 29.1075 30.307 29.2425 30.5305 29.334C30.7539 29.4254 30.9933 29.4714 31.2347 29.4693C31.4762 29.4672 31.7148 29.417 31.9366 29.3217C32.1584 29.2265 32.359 29.0879 32.5268 28.9143L39.7996 21.6414C40.1405 21.3004 40.332 20.838 40.332 20.3559C40.332 19.8737 40.1405 19.4113 39.7996 19.0704Z" fill="url(#paint0_linear_143_5)"/>
</g>
<defs>
<linearGradient id="paint0_linear_143_5" x1="48.1164" y1="11.6481" x2="-1.47474" y2="14.5893" gradientUnits="userSpaceOnUse">
<stop stop-color="#C1ADCC"/>
<stop offset="1" stop-color="#9D6BB7"/>
</linearGradient>
</defs>
</svg>
