<svg width="32" height="33" viewBox="0 0 32 33" fill="none" xmlns="http://www.w3.org/2000/svg">
<g clip-path="url(#clip0_143_17)">
<path fill-rule="evenodd" clip-rule="evenodd" d="M27 2.85742H25.375V1.60742C25.375 0.917047 24.8154 0.357422 24.125 0.357422C23.4346 0.357422 22.875 0.917047 22.875 1.60742V2.85742H17.1875V1.60742C17.1875 0.917047 16.6279 0.357422 15.9375 0.357422C15.2471 0.357422 14.6875 0.917047 14.6875 1.60742V2.85742H9.0625V1.60742C9.0625 0.917047 8.50288 0.357422 7.8125 0.357422C7.12213 0.357422 6.5625 0.917047 6.5625 1.60742V2.85742H5C2.243 2.85742 0 5.10042 0 7.85742V27.3574C0 30.1144 2.243 32.3574 5 32.3574H14.5625C15.2529 32.3574 15.8125 31.7978 15.8125 31.1074C15.8125 30.417 15.2529 29.8574 14.5625 29.8574H5C3.6215 29.8574 2.5 28.7359 2.5 27.3574V7.85742C2.5 6.47892 3.6215 5.35742 5 5.35742H6.5625V6.60742C6.5625 7.29779 7.12213 7.85742 7.8125 7.85742C8.50288 7.85742 9.0625 7.29779 9.0625 6.60742V5.35742H14.6875V6.60742C14.6875 7.29779 15.2471 7.85742 15.9375 7.85742C16.6279 7.85742 17.1875 7.29779 17.1875 6.60742V5.35742H22.875V6.60742C22.875 7.29779 23.4346 7.85742 24.125 7.85742C24.8154 7.85742 25.375 7.29779 25.375 6.60742V5.35742H27C28.3785 5.35742 29.5 6.47892 29.5 7.85742V14.9824C29.5 15.6728 30.0596 16.2324 30.75 16.2324C31.4404 16.2324 32 15.6728 32 14.9824V7.85742C32 5.10042 29.757 2.85742 27 2.85742ZM24.125 14.7324C24.8154 14.7324 25.375 14.1728 25.375 13.4824C25.375 12.792 24.8154 12.2324 24.125 12.2324C23.4346 12.2324 22.875 12.792 22.875 13.4824C22.875 14.1728 23.4346 14.7324 24.125 14.7324ZM16.875 24.7949C16.875 20.6249 20.2675 17.2324 24.4375 17.2324C28.6075 17.2324 32 20.6249 32 24.7949C32 28.9649 28.6075 32.3574 24.4375 32.3574C20.2675 32.3574 16.875 28.9649 16.875 24.7949ZM19.375 24.7949C19.375 27.5864 21.6461 29.8574 24.4375 29.8574C27.2289 29.8574 29.5 27.5864 29.5 24.7949C29.5 22.0034 27.2289 19.7324 24.4375 19.7324C21.6461 19.7324 19.375 22.0034 19.375 24.7949ZM26.25 23.5449H25.6875V22.2324C25.6875 21.542 25.1279 20.9824 24.4375 20.9824C23.7471 20.9824 23.1875 21.542 23.1875 22.2324V24.7949C23.1875 25.4853 23.7471 26.0449 24.4375 26.0449H26.25C26.9404 26.0449 27.5 25.4853 27.5 24.7949C27.5 24.1045 26.9404 23.5449 26.25 23.5449ZM19.9375 13.4824C19.9375 14.1728 19.3779 14.7324 18.6875 14.7324C17.9971 14.7324 17.4375 14.1728 17.4375 13.4824C17.4375 12.792 17.9971 12.2324 18.6875 12.2324C19.3779 12.2324 19.9375 12.792 19.9375 13.4824ZM13.25 20.1699C13.9404 20.1699 14.5 19.6103 14.5 18.9199C14.5 18.2295 13.9404 17.6699 13.25 17.6699C12.5596 17.6699 12 18.2295 12 18.9199C12 19.6103 12.5596 20.1699 13.25 20.1699ZM9.0625 13.4824C9.0625 14.1728 8.50286 14.7324 7.8125 14.7324C7.12214 14.7324 6.5625 14.1728 6.5625 13.4824C6.5625 12.792 7.12214 12.2324 7.8125 12.2324C8.50286 12.2324 9.0625 12.792 9.0625 13.4824ZM7.8125 20.1699C8.50286 20.1699 9.0625 19.6103 9.0625 18.9199C9.0625 18.2295 8.50286 17.6699 7.8125 17.6699C7.12214 17.6699 6.5625 18.2295 6.5625 18.9199C6.5625 19.6103 7.12214 20.1699 7.8125 20.1699ZM9.0625 24.3574C9.0625 25.0478 8.50286 25.6074 7.8125 25.6074C7.12214 25.6074 6.5625 25.0478 6.5625 24.3574C6.5625 23.667 7.12214 23.1074 7.8125 23.1074C8.50286 23.1074 9.0625 23.667 9.0625 24.3574ZM13.25 25.6074C13.9404 25.6074 14.5 25.0478 14.5 24.3574C14.5 23.667 13.9404 23.1074 13.25 23.1074C12.5596 23.1074 12 23.667 12 24.3574C12 25.0478 12.5596 25.6074 13.25 25.6074ZM14.5 13.4824C14.5 14.1728 13.9404 14.7324 13.25 14.7324C12.5596 14.7324 12 14.1728 12 13.4824C12 12.792 12.5596 12.2324 13.25 12.2324C13.9404 12.2324 14.5 12.792 14.5 13.4824Z" fill="url(#paint0_linear_143_17)"/>
</g>
<defs>
<linearGradient id="paint0_linear_143_17" x1="38.2275" y1="5.41005" x2="-1.52833" y2="6.91052" gradientUnits="userSpaceOnUse">
<stop stop-color="#C1ADCC"/>
<stop offset="1" stop-color="#9D6BB7"/>
</linearGradient>
<clipPath id="clip0_143_17">
<rect width="32" height="33" fill="white"/>
</clipPath>
</defs>
</svg>
