<svg width="35" height="35" viewBox="0 0 35 35" fill="none" xmlns="http://www.w3.org/2000/svg">
<path d="M13.8093 22.4639C13.6722 22.4639 13.5395 22.415 13.4352 22.3258L9.69608 19.142C9.63236 19.0878 9.58119 19.0203 9.5461 18.9443C9.511 18.8684 9.49283 18.7857 9.49283 18.702C9.49283 18.6183 9.511 18.5357 9.5461 18.4597C9.58119 18.3837 9.63236 18.3163 9.69608 18.262L13.4352 15.0782C13.5519 14.9788 13.7032 14.9299 13.8559 14.9421C14.0087 14.9543 14.1503 15.0266 14.2497 15.1432C14.4564 15.3864 14.4274 15.751 14.1843 15.9577L10.962 18.7019L14.1843 21.4459C14.2744 21.5225 14.3388 21.625 14.3688 21.7394C14.3988 21.8539 14.393 21.9748 14.3521 22.0858C14.3112 22.1968 14.2372 22.2926 14.1401 22.3602C14.043 22.4278 13.9276 22.464 13.8093 22.4639ZM21.1907 22.4639C21.0272 22.4639 20.8648 22.3949 20.7506 22.2604C20.6513 22.1437 20.6023 21.9924 20.6145 21.8396C20.6267 21.6869 20.6991 21.5453 20.8158 21.4459L24.038 18.7019L20.8158 15.9577C20.7033 15.8572 20.6346 15.7167 20.6243 15.5662C20.6141 15.4157 20.6631 15.2671 20.7609 15.1523C20.8587 15.0374 20.9975 14.9654 21.1477 14.9515C21.298 14.9376 21.4476 14.9831 21.5648 15.0781L25.3039 18.262C25.3677 18.3162 25.4188 18.3836 25.4539 18.4596C25.489 18.5356 25.5072 18.6183 25.5072 18.7019C25.5072 18.7856 25.489 18.8683 25.4539 18.9443C25.4188 19.0202 25.3677 19.0877 25.3039 19.1419L21.5648 22.3258C21.4606 22.4149 21.3279 22.4639 21.1908 22.4639H21.1907ZM16.1764 24.8519C16.0903 24.8521 16.0053 24.8329 15.9276 24.796C15.8498 24.759 15.7813 24.7052 15.727 24.6384C15.6728 24.5716 15.6341 24.4935 15.6139 24.4098C15.5936 24.3262 15.5924 24.2391 15.6101 24.1548L17.9404 13.0905C17.972 12.9406 18.0619 12.8093 18.1903 12.7256C18.3187 12.6419 18.475 12.6127 18.625 12.6443C18.775 12.6759 18.9062 12.7657 18.9899 12.8941C19.0736 13.0225 19.1029 13.1789 19.0713 13.3289L16.741 24.3931C16.7137 24.5227 16.6427 24.639 16.54 24.7225C16.4372 24.8061 16.3088 24.8517 16.1764 24.8519Z" fill="white"/>
<path d="M31.1203 30.8797H3.87972C1.74059 30.8797 0 29.1395 0 27V3.87972C0 1.74059 1.74059 0 3.87972 0H31.1203C33.2594 0 35 1.74059 35 3.87972V27C35 29.1395 33.2594 30.8797 31.1203 30.8797ZM3.87972 1.15566C2.37777 1.15566 1.15566 2.37777 1.15566 3.87972V27C1.15566 28.502 2.37777 29.7241 3.87972 29.7241H31.1203C32.6222 29.7241 33.8443 28.502 33.8443 27V3.87972C33.8443 2.37777 32.6222 1.15566 31.1203 1.15566H3.87972Z" fill="white"/>
<path d="M34.4222 9.25274H0.577819C0.426261 9.25018 0.281776 9.18818 0.175502 9.08009C0.0692281 8.97201 0.00967407 8.82649 0.00967407 8.67491C0.00967407 8.52333 0.0692281 8.37782 0.175502 8.26974C0.281776 8.16165 0.426261 8.09965 0.577819 8.09708H34.4222C34.5737 8.09965 34.7182 8.16165 34.8245 8.26974C34.9307 8.37782 34.9903 8.52333 34.9903 8.67491C34.9903 8.82649 34.9307 8.97201 34.8245 9.08009C34.7182 9.18818 34.5737 9.25018 34.4222 9.25274ZM9.8728 6.48774C8.86481 6.48774 8.04413 5.66706 8.04413 4.65908C8.04413 3.65085 8.86481 2.83049 9.8728 2.83049C10.881 2.83049 11.7014 3.65085 11.7014 4.65908C11.7014 5.66706 10.881 6.48774 9.8728 6.48774ZM9.8728 3.98615C9.50191 3.98615 9.19979 4.28794 9.19979 4.65908C9.19979 5.03021 9.50191 5.33208 9.8728 5.33208C10.2439 5.33208 10.5457 5.03029 10.5457 4.65908C10.5457 4.28786 10.2439 3.98615 9.8728 3.98615ZM4.25447 6.47C3.24607 6.47 2.4258 5.64964 2.4258 4.64141C2.4258 3.6331 3.24607 2.81274 4.25439 2.81274C5.2627 2.81274 6.08297 3.6331 6.08297 4.64141C6.08297 5.64964 5.26278 6.47 4.25447 6.47ZM4.25447 3.9684C3.88359 3.9684 3.58146 4.27053 3.58146 4.64141C3.58146 5.01254 3.88359 5.31434 4.25439 5.31434C4.62552 5.31434 4.92731 5.01254 4.92731 4.64141C4.92731 4.27053 4.6256 3.9684 4.25447 3.9684ZM15.4911 6.50516C14.4832 6.50516 13.6629 5.68481 13.6629 4.67649C13.6629 3.66859 14.4831 2.84824 15.4911 2.84824C16.4994 2.84824 17.3197 3.66851 17.3197 4.67649C17.3197 5.68481 16.4994 6.50516 15.4911 6.50516ZM15.4911 4.00357C15.1203 4.00357 14.8185 4.30536 14.8185 4.67649C14.8185 5.04763 15.1203 5.3495 15.4911 5.3495C15.8623 5.3495 16.164 5.04763 16.164 4.67649C16.164 4.30536 15.8623 4.00357 15.4911 4.00357Z" fill="white"/>
</svg>
