<svg width="80" height="80" viewBox="0 0 80 80" fill="none" xmlns="http://www.w3.org/2000/svg">
<rect x="0.25" y="0.25" width="79.5" height="79.5" rx="11.75" fill="#53DD83" stroke="#F5F5F5" stroke-width="0.5"/>
<path d="M36.8093 47.4639C36.6722 47.4639 36.5395 47.415 36.4352 47.3258L32.6961 44.142C32.6324 44.0878 32.5812 44.0203 32.5461 43.9443C32.511 43.8684 32.4928 43.7857 32.4928 43.702C32.4928 43.6183 32.511 43.5357 32.5461 43.4597C32.5812 43.3837 32.6324 43.3163 32.6961 43.262L36.4352 40.0782C36.5519 39.9788 36.7032 39.9299 36.8559 39.9421C37.0087 39.9543 37.1503 40.0266 37.2497 40.1432C37.4564 40.3864 37.4274 40.751 37.1843 40.9577L33.962 43.7019L37.1843 46.4459C37.2744 46.5225 37.3388 46.625 37.3688 46.7394C37.3988 46.8539 37.393 46.9748 37.3521 47.0858C37.3112 47.1968 37.2372 47.2926 37.1401 47.3602C37.043 47.4278 36.9276 47.464 36.8093 47.4639ZM44.1907 47.4639C44.0272 47.4639 43.8648 47.3949 43.7506 47.2604C43.6513 47.1437 43.6023 46.9924 43.6145 46.8396C43.6267 46.6869 43.6991 46.5453 43.8158 46.4459L47.038 43.7019L43.8158 40.9577C43.7033 40.8572 43.6346 40.7167 43.6243 40.5662C43.6141 40.4157 43.6631 40.2671 43.7609 40.1523C43.8587 40.0374 43.9975 39.9654 44.1477 39.9515C44.298 39.9376 44.4476 39.9831 44.5648 40.0781L48.3039 43.262C48.3677 43.3162 48.4188 43.3836 48.4539 43.4596C48.489 43.5356 48.5072 43.6183 48.5072 43.7019C48.5072 43.7856 48.489 43.8683 48.4539 43.9443C48.4188 44.0202 48.3677 44.0877 48.3039 44.1419L44.5648 47.3258C44.4606 47.4149 44.3279 47.4639 44.1908 47.4639H44.1907ZM39.1764 49.852C39.0903 49.8521 39.0053 49.8329 38.9276 49.796C38.8498 49.759 38.7813 49.7052 38.727 49.6384C38.6728 49.5716 38.6341 49.4935 38.6139 49.4098C38.5936 49.3262 38.5924 49.2391 38.6101 49.1548L40.9404 38.0905C40.972 37.9406 41.0619 37.8093 41.1903 37.7256C41.3187 37.6419 41.475 37.6127 41.625 37.6443C41.775 37.6759 41.9062 37.7657 41.9899 37.8941C42.0736 38.0225 42.1029 38.1789 42.0713 38.3289L39.741 49.3931C39.7137 49.5227 39.6427 49.639 39.54 49.7225C39.4372 49.8061 39.3088 49.8517 39.1764 49.852Z" fill="white"/>
<path d="M54.1203 55.8797H26.8797C24.7406 55.8797 23 54.1395 23 52V28.8797C23 26.7406 24.7406 25 26.8797 25H54.1203C56.2594 25 58 26.7406 58 28.8797V52C58 54.1395 56.2594 55.8797 54.1203 55.8797ZM26.8797 26.1557C25.3778 26.1557 24.1557 27.3778 24.1557 28.8797V52C24.1557 53.502 25.3778 54.7241 26.8797 54.7241H54.1203C55.6222 54.7241 56.8443 53.502 56.8443 52V28.8797C56.8443 27.3778 55.6222 26.1557 54.1203 26.1557H26.8797Z" fill="white"/>
<path d="M57.4222 34.2527H23.5778C23.4263 34.2502 23.2818 34.1882 23.1755 34.0801C23.0692 33.972 23.0097 33.8265 23.0097 33.6749C23.0097 33.5233 23.0692 33.3778 23.1755 33.2697C23.2818 33.1617 23.4263 33.0996 23.5778 33.0971H57.4222C57.5737 33.0996 57.7182 33.1617 57.8245 33.2697C57.9307 33.3778 57.9903 33.5233 57.9903 33.6749C57.9903 33.8265 57.9307 33.972 57.8245 34.0801C57.7182 34.1882 57.5737 34.2502 57.4222 34.2527ZM32.8728 31.4877C31.8648 31.4877 31.0441 30.6671 31.0441 29.6591C31.0441 28.6508 31.8648 27.8305 32.8728 27.8305C33.881 27.8305 34.7014 28.6508 34.7014 29.6591C34.7014 30.6671 33.881 31.4877 32.8728 31.4877ZM32.8728 28.9862C32.5019 28.9862 32.1998 29.2879 32.1998 29.6591C32.1998 30.0302 32.5019 30.3321 32.8728 30.3321C33.2439 30.3321 33.5457 30.0303 33.5457 29.6591C33.5457 29.2879 33.2439 28.9862 32.8728 28.9862ZM27.2545 31.47C26.2461 31.47 25.4258 30.6496 25.4258 29.6414C25.4258 28.6331 26.2461 27.8127 27.2544 27.8127C28.2627 27.8127 29.083 28.6331 29.083 29.6414C29.083 30.6496 28.2628 31.47 27.2545 31.47ZM27.2545 28.9684C26.8836 28.9684 26.5815 29.2705 26.5815 29.6414C26.5815 30.0125 26.8836 30.3143 27.2544 30.3143C27.6255 30.3143 27.9273 30.0125 27.9273 29.6414C27.9273 29.2705 27.6256 28.9684 27.2545 28.9684ZM38.4911 31.5052C37.4832 31.5052 36.6629 30.6848 36.6629 29.6765C36.6629 28.6686 37.4831 27.8482 38.4911 27.8482C39.4994 27.8482 40.3197 28.6685 40.3197 29.6765C40.3197 30.6848 39.4994 31.5052 38.4911 31.5052ZM38.4911 29.0036C38.1203 29.0036 37.8185 29.3054 37.8185 29.6765C37.8185 30.0476 38.1203 30.3495 38.4911 30.3495C38.8623 30.3495 39.164 30.0476 39.164 29.6765C39.164 29.3054 38.8623 29.0036 38.4911 29.0036Z" fill="white"/>
</svg>
