<svg width="80" height="80" viewBox="0 0 80 80" fill="none" xmlns="http://www.w3.org/2000/svg">
<rect x="0.25" y="0.25" width="79.5" height="79.5" rx="11.75" fill="#212529" stroke="#F5F5F5" stroke-width="0.5"/>
<g clip-path="url(#clip0_19_21)">
<path d="M51.4557 28.7222H28.5639L28.2614 26.7401C28.1101 25.7478 27.6852 24.8376 27.0651 24.1767C26.7213 23.805 26.3042 23.5086 25.8402 23.3061C25.3761 23.1036 24.8752 22.9994 24.3688 23H19.5443C19.2542 23 18.976 23.1152 18.7709 23.3204C18.5658 23.5255 18.4506 23.8037 18.4506 24.0938C18.4506 24.3838 18.5658 24.662 18.7709 24.8672C18.976 25.0723 19.2542 25.1875 19.5443 25.1875H24.3688C25.4339 25.1875 25.9665 26.2016 26.0989 27.0701L28.7855 44.6771C27.9873 45.148 27.366 45.8682 27.0174 46.7268C26.6688 47.5855 26.6122 48.535 26.8562 49.429C27.1003 50.323 27.6316 51.112 28.3681 51.6744C29.1047 52.2368 30.0058 52.5414 30.9325 52.5413H31.6104C31.238 53.055 31.0148 53.6616 30.9656 54.2942C30.9163 54.9267 31.0429 55.5606 31.3312 56.1258C31.6196 56.6909 32.0585 57.1654 32.5996 57.4967C33.1406 57.8281 33.7628 58.0035 34.3972 58.0035C35.0317 58.0035 35.6538 57.8281 36.1949 57.4967C36.7359 57.1654 37.1749 56.6909 37.4632 56.1258C37.7516 55.5606 37.8781 54.9267 37.8289 54.2942C37.7796 53.6616 37.5565 53.055 37.1841 52.5413H43.2873C42.9145 53.0558 42.6913 53.6635 42.6426 54.297C42.5939 54.9305 42.7215 55.5651 43.0112 56.1306C43.301 56.6961 43.7416 57.1703 44.2843 57.5007C44.827 57.8312 45.4506 58.0049 46.086 58.0028C46.7214 58.0007 47.3438 57.8227 47.8842 57.4886C48.4247 57.1545 48.8621 56.6773 49.148 56.1099C49.434 55.5424 49.5573 54.907 49.5043 54.2738C49.4513 53.6406 49.224 53.0345 48.8477 52.5225C49.116 52.4731 49.356 52.3251 49.5208 52.1078C49.6856 51.8904 49.7632 51.6193 49.7384 51.3477C49.7135 51.076 49.5881 50.8235 49.3866 50.6396C49.1852 50.4557 48.9222 50.3538 48.6495 50.3538H30.9325C30.4356 50.3538 29.9558 50.1723 29.5834 49.8434C29.2109 49.5144 28.9715 49.0607 28.9102 48.5676C28.8489 48.0745 28.9699 47.5759 29.2504 47.1658C29.531 46.7556 29.9517 46.4621 30.4335 46.3405H46.6636C48.2241 46.3387 49.7201 45.718 50.8235 44.6146C51.9269 43.5112 52.5476 42.0152 52.5494 40.4547V29.8159C52.5494 29.5258 52.4342 29.2477 52.2291 29.0425C52.0239 28.8374 51.7458 28.7222 51.4557 28.7222ZM34.3969 55.8125C34.1488 55.8125 33.9062 55.7389 33.6999 55.6011C33.4935 55.4632 33.3327 55.2673 33.2377 55.0381C33.1428 54.8088 33.1179 54.5566 33.1663 54.3132C33.2147 54.0698 33.3342 53.8463 33.5097 53.6708C33.6851 53.4953 33.9087 53.3758 34.152 53.3274C34.3954 53.279 34.6477 53.3038 34.8769 53.3988C35.1062 53.4938 35.3021 53.6546 35.44 53.8609C35.5778 54.0672 35.6514 54.3098 35.6514 54.5579C35.6511 54.8905 35.5188 55.2094 35.2836 55.4446C35.0484 55.6798 34.7295 55.8121 34.3969 55.8125ZM46.0739 55.8125C45.8258 55.8125 45.5832 55.7389 45.3769 55.6011C45.1705 55.4632 45.0097 55.2673 44.9148 55.0381C44.8198 54.8088 44.7949 54.5566 44.8433 54.3132C44.8917 54.0698 45.0112 53.8463 45.1867 53.6708C45.3621 53.4953 45.5857 53.3758 45.829 53.3274C46.0724 53.279 46.3247 53.3038 46.5539 53.3988C46.7832 53.4938 46.9791 53.6546 47.117 53.8609C47.2548 54.0672 47.3284 54.3098 47.3284 54.5579C47.3281 54.8905 47.1958 55.2094 46.9606 55.4446C46.7254 55.6798 46.4065 55.8121 46.0739 55.8125ZM50.3619 36.4376H45.2692V30.9097H50.3619V36.4376ZM30.9184 44.153L30.0749 38.6251H34.1403V44.153H30.9184ZM36.3278 38.6251H43.0817V44.153H36.3278V38.6251ZM36.3278 36.4376V30.9097H43.0817V36.4376H36.3278ZM34.1403 30.9097V36.4376H29.7411L28.8977 30.9097H34.1403ZM46.6638 44.153H45.2692V38.6251H50.362V40.4547C50.3609 41.4353 49.9709 42.3753 49.2776 43.0686C48.5842 43.7619 47.6442 44.1519 46.6636 44.153H46.6638Z" fill="white"/>
</g>
<defs>
<clipPath id="clip0_19_21">
<rect width="35" height="35" fill="white" transform="translate(18 23)"/>
</clipPath>
</defs>
</svg>
