<svg width="35" height="35" viewBox="0 0 35 35" fill="none" xmlns="http://www.w3.org/2000/svg">
<path d="M33.4557 5.72216H10.5639L10.2614 3.74015C10.1101 2.74784 9.68523 1.83757 9.06514 1.17667C8.7213 0.805022 8.30421 0.508604 7.84016 0.306092C7.37611 0.10358 6.87516 -0.000638338 6.36884 2.94156e-06H1.54431C1.25423 2.94156e-06 0.976031 0.115237 0.770913 0.320355C0.565796 0.525473 0.450562 0.803672 0.450562 1.09375C0.450562 1.38383 0.565796 1.66203 0.770913 1.86715C0.976031 2.07227 1.25423 2.1875 1.54431 2.1875H6.36884C7.43388 2.1875 7.96647 3.20161 8.09895 4.07005L10.7855 21.6771C9.98727 22.148 9.36601 22.8682 9.0174 23.7268C8.66879 24.5855 8.61216 25.535 8.85624 26.429C9.10032 27.323 9.63156 28.112 10.3681 28.6744C11.1047 29.2368 12.0058 29.5414 12.9325 29.5413H13.6104C13.238 30.055 13.0148 30.6616 12.9656 31.2942C12.9163 31.9267 13.0429 32.5606 13.3312 33.1258C13.6196 33.6909 14.0585 34.1654 14.5996 34.4967C15.1406 34.8281 15.7628 35.0035 16.3972 35.0035C17.0317 35.0035 17.6538 34.8281 18.1949 34.4967C18.7359 34.1654 19.1749 33.6909 19.4632 33.1258C19.7516 32.5606 19.8781 31.9267 19.8289 31.2942C19.7796 30.6616 19.5565 30.055 19.1841 29.5413H25.2873C24.9145 30.0558 24.6913 30.6635 24.6426 31.297C24.5939 31.9305 24.7215 32.5651 25.0112 33.1306C25.301 33.6961 25.7416 34.1703 26.2843 34.5007C26.827 34.8312 27.4506 35.0049 28.086 35.0028C28.7214 35.0007 29.3438 34.8227 29.8842 34.4886C30.4247 34.1545 30.8621 33.6773 31.148 33.1099C31.434 32.5424 31.5573 31.907 31.5043 31.2738C31.4513 30.6406 31.224 30.0345 30.8477 29.5225C31.116 29.4731 31.356 29.3251 31.5208 29.1078C31.6856 28.8904 31.7632 28.6193 31.7384 28.3477C31.7135 28.076 31.5881 27.8235 31.3866 27.6396C31.1852 27.4557 30.9222 27.3538 30.6495 27.3538H12.9325C12.4356 27.3538 11.9558 27.1723 11.5834 26.8434C11.2109 26.5144 10.9715 26.0607 10.9102 25.5676C10.8489 25.0745 10.9699 24.5759 11.2504 24.1658C11.531 23.7556 11.9517 23.4621 12.4335 23.3405H28.6636C30.2241 23.3387 31.7201 22.718 32.8235 21.6146C33.9269 20.5112 34.5476 19.0152 34.5494 17.4547V6.81591C34.5494 6.52584 34.4342 6.24765 34.2291 6.04254C34.0239 5.83742 33.7458 5.72218 33.4557 5.72216ZM16.3969 32.8125C16.1488 32.8125 15.9062 32.7389 15.6999 32.6011C15.4935 32.4632 15.3327 32.2673 15.2377 32.0381C15.1428 31.8088 15.1179 31.5566 15.1663 31.3132C15.2147 31.0698 15.3342 30.8463 15.5097 30.6708C15.6851 30.4953 15.9087 30.3758 16.152 30.3274C16.3954 30.279 16.6477 30.3038 16.8769 30.3988C17.1062 30.4938 17.3021 30.6546 17.44 30.8609C17.5778 31.0672 17.6514 31.3098 17.6514 31.5579C17.6511 31.8905 17.5188 32.2094 17.2836 32.4446C17.0484 32.6798 16.7295 32.8121 16.3969 32.8125ZM28.0739 32.8125C27.8258 32.8125 27.5832 32.7389 27.3769 32.6011C27.1705 32.4632 27.0097 32.2673 26.9148 32.0381C26.8198 31.8088 26.7949 31.5566 26.8433 31.3132C26.8917 31.0698 27.0112 30.8463 27.1867 30.6708C27.3621 30.4953 27.5857 30.3758 27.829 30.3274C28.0724 30.279 28.3247 30.3038 28.5539 30.3988C28.7832 30.4938 28.9791 30.6546 29.117 30.8609C29.2548 31.0672 29.3284 31.3098 29.3284 31.5579C29.3281 31.8905 29.1958 32.2094 28.9606 32.4446C28.7254 32.6798 28.4065 32.8121 28.0739 32.8125ZM32.3619 13.4376H27.2692V7.90966H32.3619V13.4376ZM12.9184 21.153L12.0749 15.6251H16.1403V21.153H12.9184ZM18.3278 15.6251H25.0817V21.153H18.3278V15.6251ZM18.3278 13.4376V7.90966H25.0817V13.4376H18.3278ZM16.1403 7.90966V13.4376H11.7411L10.8977 7.90966H16.1403ZM28.6638 21.153H27.2692V15.6251H32.362V17.4547C32.3609 18.4353 31.9709 19.3753 31.2776 20.0686C30.5842 20.7619 29.6442 21.1519 28.6636 21.153H28.6638Z" fill="white"/>
</svg>
