<svg width="40" height="40" viewBox="0 0 40 40" fill="none" xmlns="http://www.w3.org/2000/svg">
<path d="M24.6735 7.94834L29.5384 3.0835L39.9942 13.5394L35.1294 18.4042L24.6735 7.94834ZM22.7871 9.37021L14.002 14.5966L8.8493 32.774L18.9389 22.7068L18.9289 20.3441L22.9556 20.2982L23.0016 24.3418L20.6099 24.3517L10.506 34.4339L28.8732 29.1394L33.7449 20.3279L22.7871 9.37021Z" fill="white"/>
<path d="M8.84906 32.7747L8.02102 33.6027C7.39391 34.2298 6.56016 34.5752 5.67328 34.5752C4.78641 34.5752 3.95266 34.2298 3.32547 33.6027C2.06703 32.3443 2.02164 30.3292 3.22219 29.0153L4.80664 27.2811C6.85492 25.0393 6.77758 21.6014 4.63031 19.4542L1.65781 16.4817L0 18.1396L2.9725 21.1121C4.23094 22.3705 4.27633 24.3856 3.07578 25.6995L1.49133 27.4337C-0.556953 29.6754 -0.479609 33.1134 1.66766 35.2606C2.73758 36.3306 4.16016 36.9198 5.67336 36.9198C7.18656 36.9198 8.60906 36.3305 9.67898 35.2606L10.5059 34.4337L10.506 34.4338L8.84906 32.7747Z" fill="white"/>
</svg>
