<svg width="34" height="33" viewBox="0 0 34 33" fill="none" xmlns="http://www.w3.org/2000/svg">
<g clip-path="url(#clip0_143_14)">
<path fill-rule="evenodd" clip-rule="evenodd" d="M25.668 30.3574H31.918C32.2495 30.3574 32.5675 30.4891 32.8019 30.7235C33.0363 30.9579 33.168 31.2759 33.168 31.6074C33.168 31.9389 33.0363 32.2569 32.8019 32.4913C32.5675 32.7257 32.2495 32.8574 31.918 32.8574H1.91797C1.58645 32.8574 1.2685 32.7257 1.03408 32.4913C0.799665 32.2569 0.667969 31.9389 0.667969 31.6074C0.667969 31.2759 0.799665 30.9579 1.03408 30.7235C1.2685 30.4891 1.58645 30.3574 1.91797 30.3574H3.16797V6.60742C3.16797 6.2759 3.29966 5.95796 3.53408 5.72353C3.7685 5.48911 4.08645 5.35742 4.41797 5.35742H8.16797V1.60742C8.16797 1.2759 8.29966 0.957959 8.53408 0.723539C8.7685 0.489118 9.08644 0.357422 9.41797 0.357422H24.418C24.7495 0.357422 25.0675 0.489118 25.3019 0.723539C25.5363 0.957959 25.668 1.2759 25.668 1.60742V5.35742H29.418C29.7495 5.35742 30.0675 5.48911 30.3019 5.72353C30.5363 5.95796 30.668 6.2759 30.668 6.60742V26.6074C30.668 26.9389 30.5363 27.2569 30.3019 27.4913C30.0675 27.7257 29.7495 27.8574 29.418 27.8574C29.0865 27.8574 28.7686 27.7257 28.5341 27.4913C28.2997 27.2569 28.168 26.9389 28.168 26.6074V7.85742H25.668V30.3574ZM8.16797 7.85742H5.66797V30.3574H13.168V26.6074C13.168 26.2759 13.2997 25.9579 13.5341 25.7235C13.7686 25.4891 14.0865 25.3574 14.418 25.3574H19.418C19.7495 25.3574 20.0675 25.4891 20.3019 25.7235C20.5363 25.9579 20.668 26.2759 20.668 26.6074V30.3574H23.168V2.85742H10.668V26.6074C10.668 26.9389 10.5363 27.2569 10.3019 27.4913C10.0675 27.7257 9.74949 27.8574 9.41797 27.8574C9.08644 27.8574 8.7685 27.7257 8.53408 27.4913C8.29966 27.2569 8.16797 26.9389 8.16797 26.6074V7.85742ZM15.668 30.3574H18.168V27.8574H15.668V30.3574ZM15.668 5.35742H13.168V7.85742H15.668V5.35742ZM15.668 10.3574H13.168V12.8574H15.668V10.3574ZM15.668 15.3574H13.168V17.8574H15.668V15.3574ZM15.668 20.3574H13.168V22.8574H15.668V20.3574ZM20.668 5.35742H18.168V7.85742H20.668V5.35742ZM20.668 10.3574H18.168V12.8574H20.668V10.3574ZM20.668 15.3574H18.168V17.8574H20.668V15.3574ZM20.668 20.3574H18.168V22.8574H20.668V20.3574Z" fill="url(#paint0_linear_143_14)"/>
</g>
<defs>
<linearGradient id="paint0_linear_143_14" x1="39.4927" y1="5.48899" x2="-0.884245" y2="7.01291" gradientUnits="userSpaceOnUse">
<stop stop-color="#C1ADCC"/>
<stop offset="1" stop-color="#9D6BB7"/>
</linearGradient>
<clipPath id="clip0_143_14">
<rect width="34" height="33" fill="white"/>
</clipPath>
</defs>
</svg>
