<svg width="35" height="29" viewBox="0 0 35 29" fill="none" xmlns="http://www.w3.org/2000/svg">
<path d="M31.25 0.46875H29.75C25.5799 0.474126 21.5348 1.89301 18.275 4.49375C18.0543 4.66814 17.7813 4.763 17.5 4.763C17.2187 4.763 16.9457 4.66814 16.725 4.49375C13.4652 1.89301 9.42011 0.474126 5.25 0.46875H3.75C2.75544 0.46875 1.80161 0.863838 1.09835 1.5671C0.395088 2.27036 0 3.22419 0 4.21875V20.4688C0 21.4633 0.395088 22.4171 1.09835 23.1204C1.80161 23.8237 2.75544 24.2187 3.75 24.2188H5.25C8.85141 24.2266 12.3445 25.4512 15.1625 27.6938C15.8266 28.2231 16.6507 28.5114 17.5 28.5114C18.3493 28.5114 19.1734 28.2231 19.8375 27.6938C22.6555 25.4512 26.1486 24.2266 29.75 24.2188H31.25C32.2446 24.2187 33.1984 23.8237 33.9017 23.1204C34.6049 22.4171 35 21.4633 35 20.4688V4.21875C35 3.22419 34.6049 2.27036 33.9017 1.5671C33.1984 0.863838 32.2446 0.46875 31.25 0.46875ZM5.25 21.7188H3.75C3.41848 21.7188 3.10054 21.5871 2.86612 21.3526C2.6317 21.1182 2.5 20.8003 2.5 20.4688V4.21875C2.5 3.88723 2.6317 3.56929 2.86612 3.33487C3.10054 3.10045 3.41848 2.96875 3.75 2.96875H5.25C8.85141 2.97663 12.3445 4.20119 15.1625 6.44375C15.4869 6.70926 15.8548 6.9165 16.25 7.05625V25.4688C13.0856 23.0616 9.22581 21.7458 5.25 21.7188ZM32.5 20.4688C32.5 20.8003 32.3683 21.1182 32.1339 21.3526C31.8995 21.5871 31.5815 21.7188 31.25 21.7188H29.75C25.7839 21.7313 21.9272 23.0198 18.75 25.3938V7.05625C19.1452 6.9165 19.5131 6.70926 19.8375 6.44375C22.6555 4.20119 26.1486 2.97663 29.75 2.96875H31.25C31.5815 2.96875 31.8995 3.10045 32.1339 3.33487C32.3683 3.56929 32.5 3.88723 32.5 4.21875V20.4688Z" fill="white"/>
</svg>
