<svg width="80" height="80" viewBox="0 0 80 80" fill="none" xmlns="http://www.w3.org/2000/svg">
<rect x="0.25" y="0.25" width="79.5" height="79.5" rx="11.75" fill="#E8EFFB" stroke="#F5F5F5" stroke-width="0.5"/>
<path d="M54.25 27.4688H52.75C48.5799 27.4741 44.5348 28.893 41.275 31.4938C41.0543 31.6681 40.7813 31.763 40.5 31.763C40.2187 31.763 39.9457 31.6681 39.725 31.4938C36.4652 28.893 32.4201 27.4741 28.25 27.4688H26.75C25.7554 27.4688 24.8016 27.8638 24.0983 28.5671C23.3951 29.2704 23 30.2242 23 31.2188V47.4688C23 48.4633 23.3951 49.4171 24.0983 50.1204C24.8016 50.8237 25.7554 51.2188 26.75 51.2188H28.25C31.8514 51.2266 35.3445 52.4512 38.1625 54.6938C38.8266 55.2231 39.6507 55.5114 40.5 55.5114C41.3493 55.5114 42.1734 55.2231 42.8375 54.6938C45.6555 52.4512 49.1486 51.2266 52.75 51.2188H54.25C55.2446 51.2188 56.1984 50.8237 56.9017 50.1204C57.6049 49.4171 58 48.4633 58 47.4688V31.2188C58 30.2242 57.6049 29.2704 56.9017 28.5671C56.1984 27.8638 55.2446 27.4688 54.25 27.4688ZM28.25 48.7188H26.75C26.4185 48.7188 26.1005 48.5871 25.8661 48.3526C25.6317 48.1182 25.5 47.8003 25.5 47.4688V31.2188C25.5 30.8872 25.6317 30.5693 25.8661 30.3349C26.1005 30.1004 26.4185 29.9688 26.75 29.9688H28.25C31.8514 29.9766 35.3445 31.2012 38.1625 33.4437C38.4869 33.7093 38.8548 33.9165 39.25 34.0563V52.4688C36.0856 50.0616 32.2258 48.7458 28.25 48.7188ZM55.5 47.4688C55.5 47.8003 55.3683 48.1182 55.1339 48.3526C54.8995 48.5871 54.5815 48.7188 54.25 48.7188H52.75C48.7839 48.7313 44.9272 50.0198 41.75 52.3938V34.0563C42.1452 33.9165 42.5131 33.7093 42.8375 33.4437C45.6555 31.2012 49.1486 29.9766 52.75 29.9688H54.25C54.5815 29.9688 54.8995 30.1004 55.1339 30.3349C55.3683 30.5693 55.5 30.8872 55.5 31.2188V47.4688Z" fill="#212529"/>
</svg>
