<svg width="500" height="500" viewBox="0 0 500 500" fill="none" xmlns="http://www.w3.org/2000/svg">
<path d="M126.047 399.254C126.047 399.254 170.545 425.887 224.552 403.87C278.558 381.853 298.523 334.089 327.965 299.078C343.383 280.744 367.371 271.45 386.146 256.382C446.178 208.201 430.817 120.698 380.146 93.8966C336.28 70.6956 283.743 74.9086 217.107 105.73C150.471 136.552 102.616 156.145 64.5744 223.252C26.5334 290.36 70.9503 362.37 126.047 399.254Z" fill="#8D6F9F"/>
<path opacity="0.7" d="M126.047 399.254C126.047 399.254 170.545 425.887 224.552 403.87C278.558 381.853 298.523 334.089 327.965 299.078C343.383 280.744 367.371 271.45 386.146 256.382C446.178 208.201 430.817 120.698 380.146 93.8966C336.28 70.6956 283.743 74.9086 217.107 105.73C150.471 136.552 102.616 156.145 64.5744 223.252C26.5334 290.36 70.9503 362.37 126.047 399.254Z" fill="white"/>
<path d="M427.082 325.548C423.867 324.965 419.696 329.127 418.32 331.7C418.224 331.88 417.251 334.328 416.914 335.259C416.915 335.228 416.919 335.196 416.92 335.165C417.056 332.042 416.8 329.045 416.42 326.214C416.044 323.389 415.45 320.761 414.841 318.357C414.238 315.95 413.537 313.786 412.902 311.876C412.551 310.848 412.209 309.905 411.883 309.037C411.924 309.053 411.946 309.062 411.946 309.062C412.002 309.083 412.23 305.121 412.216 304.869C412.051 301.956 410.018 296.425 406.857 295.601C404.579 295.007 402.493 296.675 402.147 298.907C401.793 301.186 403.29 303.602 404.807 305.167C406.361 306.771 410.638 308.542 411.703 308.967C412.023 309.874 412.358 310.861 412.702 311.943C413.294 313.862 413.945 316.034 414.494 318.443C414.65 319.122 414.803 319.823 414.952 320.536C414.478 319.447 413.775 317.895 413.692 317.755C412.203 315.246 407.851 311.273 404.665 311.999C402.37 312.522 401.287 314.963 402.008 317.103C402.745 319.289 405.186 320.743 407.253 321.433C409.404 322.151 414.12 321.729 415.168 321.623C415.456 323.113 415.714 324.663 415.893 326.282C416.208 329.074 416.397 332.066 416.196 335.129C416.184 335.309 416.162 335.491 416.148 335.671C416.013 335.111 414.999 331.966 414.904 331.756C413.699 329.099 409.81 324.672 406.563 325.044C404.224 325.312 402.88 327.619 403.362 329.826C403.854 332.08 406.121 333.792 408.1 334.706C410.37 335.754 415.885 335.766 416.14 335.766C415.915 338.631 415.453 341.557 414.83 344.502C414.381 346.643 413.845 348.791 413.279 350.942C413.084 350.214 412.143 347.299 412.052 347.098C410.847 344.441 406.958 340.014 403.711 340.386C401.372 340.654 400.028 342.961 400.51 345.168C401.002 347.421 403.269 349.135 405.248 350.048C407.418 351.049 412.564 351.105 413.236 351.107C412.979 352.081 412.718 353.056 412.453 354.031C411.589 357.214 410.709 360.401 409.937 363.572C409.673 364.657 409.433 365.739 409.206 366.82C408.867 365.703 408.23 363.744 408.156 363.58C406.951 360.923 403.062 356.496 399.815 356.868C397.548 357.127 396.231 359.303 396.59 361.446C393.854 362.309 391.838 366.9 391.526 369.423C391.515 369.512 391.504 370.118 391.497 370.82C391.305 369.793 391.124 368.758 390.965 367.71C390.523 364.806 390.164 361.834 389.79 358.857C389.713 358.237 389.634 357.616 389.553 356.996C390.612 356.651 394.498 355.325 395.982 353.984C397.45 352.657 398.953 350.558 398.769 348.471C398.59 346.427 396.799 344.79 394.699 345.191C391.784 345.747 389.609 350.638 389.283 353.269C389.271 353.362 389.259 354.026 389.253 354.773C389.028 353.164 388.782 351.562 388.489 349.981C387.98 347.207 387.336 344.496 386.499 341.927C387.115 341.732 391.525 340.299 393.128 338.85C394.597 337.523 396.099 335.424 395.916 333.337C395.737 331.293 393.946 329.656 391.846 330.057C388.931 330.613 386.756 335.504 386.43 338.135C386.407 338.319 386.382 340.711 386.401 341.611C386.392 341.584 386.385 341.556 386.376 341.529C385.471 338.838 384.274 336.381 383.027 334.106C381.785 331.835 380.423 329.801 379.122 327.963C377.824 326.12 376.523 324.515 375.361 323.104C374.728 322.348 374.13 321.66 373.569 321.031C373.609 321.031 373.63 321.031 373.63 321.031C373.684 321.031 372.583 317.598 372.489 317.389C371.397 314.974 367.867 310.95 364.918 311.285C362.793 311.526 361.57 313.621 362.006 315.626C362.451 317.673 364.509 319.231 366.306 320.062C368.147 320.914 372.351 321.017 373.392 321.029C373.96 321.693 374.566 322.42 375.211 323.225C376.34 324.658 377.602 326.286 378.854 328.149C379.208 328.673 379.567 329.218 379.926 329.774C379.168 329.006 378.065 327.92 377.949 327.828C375.867 326.188 370.88 324.243 368.417 325.9C366.643 327.093 366.522 329.516 367.833 331.094C369.172 332.706 371.716 333.14 373.693 333.05C375.751 332.956 379.61 331.057 380.463 330.625C381.195 331.794 381.919 333.023 382.6 334.336C383.779 336.6 384.917 339.074 385.748 341.735C385.797 341.891 385.837 342.053 385.884 342.21C385.586 341.779 383.699 339.445 383.55 339.299C381.661 337.44 376.917 334.96 374.288 336.335C372.393 337.326 372.008 339.721 373.137 341.434C374.29 343.183 376.771 343.894 378.747 344.022C381.013 344.168 385.692 342.376 385.908 342.293C386.654 344.794 387.218 347.426 387.653 350.125C387.972 352.086 388.22 354.082 388.443 356.09C388.04 355.536 386.29 353.373 386.147 353.233C384.258 351.374 379.514 348.894 376.885 350.269C374.99 351.26 374.605 353.655 375.734 355.368C376.887 357.117 379.368 357.828 381.344 357.955C383.51 358.094 387.89 356.46 388.461 356.242C388.562 357.152 388.659 358.063 388.753 358.976C389.061 361.956 389.357 364.944 389.739 367.885C389.869 368.891 390.02 369.887 390.181 370.876C389.529 370.04 388.349 368.588 388.232 368.473C386.343 366.614 381.6 364.134 378.97 365.51C377.075 366.501 376.69 368.896 377.819 370.609C378.972 372.358 381.453 373.069 383.429 373.197C385.402 373.324 389.2 371.983 390.297 371.577C390.582 373.241 390.909 374.883 391.3 376.487C391.484 377.175 391.627 377.889 391.841 378.539C392.042 379.199 392.242 379.853 392.439 380.5C392.895 381.824 393.314 383.056 393.77 384.278C393.984 384.864 394.199 385.441 394.414 386.009C393.882 385.069 393.056 383.661 392.965 383.539C391.379 381.416 387.066 378.245 384.258 379.207C382.235 379.9 381.491 382.209 382.348 384.073C383.223 385.977 385.568 387.056 387.501 387.48C389.58 387.937 394.013 387.032 394.747 386.876C395.313 388.344 395.878 389.751 396.431 391.073C397.035 392.526 397.618 393.87 398.176 395.123H393.354V398.298H394.509L396.385 420.523H411.394L413.27 398.298H414.136V395.123H409.876C409.758 393.535 409.649 391.816 409.561 389.969C409.49 388.547 409.435 387.048 409.397 385.498C410.198 385.424 415.177 384.922 417.218 383.756C419.11 382.675 421.221 380.773 421.516 378.485C421.805 376.245 420.266 374.063 417.913 373.998C414.647 373.909 411.154 378.655 410.184 381.407C410.121 381.585 409.612 383.79 409.383 384.891C409.363 383.951 409.349 382.999 409.345 382.02C409.328 380.619 409.357 379.138 409.376 377.702C409.413 376.958 409.451 376.207 409.489 375.448C409.511 374.681 409.626 373.954 409.69 373.194C409.81 372.081 409.969 370.947 410.145 369.807C411.593 369.877 415.794 370.003 417.754 369.25C419.788 368.468 422.162 366.907 422.801 364.691C423.426 362.521 422.236 360.13 419.919 359.71C416.704 359.127 412.533 363.289 411.157 365.862C411.11 365.949 410.859 366.567 410.574 367.286C410.783 366.155 411.008 365.02 411.26 363.88C411.956 360.722 412.764 357.527 413.56 354.322C413.726 353.654 413.89 352.986 414.054 352.317C415.278 352.382 419.795 352.559 421.851 351.769C423.885 350.988 426.259 349.426 426.898 347.21C427.523 345.04 426.332 342.649 424.016 342.229C420.801 341.646 416.63 345.808 415.254 348.381C415.205 348.472 414.93 349.149 414.627 349.914C415.033 348.172 415.414 346.429 415.74 344.689C416.316 341.638 416.728 338.599 416.885 335.628C417.595 335.671 422.692 335.946 424.912 335.093C426.946 334.311 429.32 332.75 429.959 330.534C430.588 328.358 429.398 325.968 427.082 325.548ZM400.231 395.12C399.546 393.684 398.814 392.104 398.051 390.376C397.526 389.194 396.99 387.942 396.451 386.64C396.981 386.377 399.743 384.98 401.49 383.579C403.766 384.427 406.922 384.958 407.562 385.06C407.562 386.792 407.585 388.461 407.629 390.038C407.676 391.861 407.748 393.547 407.83 395.12H400.231ZM408.134 373.024C408.05 373.804 407.914 374.594 407.877 375.347C407.822 376.105 407.769 376.856 407.715 377.598C407.659 379.139 407.602 380.571 407.586 382.006C407.574 382.693 407.566 383.371 407.562 384.039C407.388 382.862 407.097 381.089 407.052 380.928C406.264 378.119 403.09 373.154 399.824 373.03C397.472 372.94 395.793 375.018 395.935 377.272C395.973 377.869 396.138 378.446 396.387 378.998C395.957 380.422 395.75 381.867 395.78 382.917C395.785 383.088 396.074 385.123 396.24 386.132C395.916 385.342 395.593 384.54 395.269 383.711C394.797 382.529 394.337 381.264 393.884 380.041C393.673 379.399 393.459 378.749 393.243 378.094C393.011 377.437 392.871 376.783 392.677 376.118C392.414 375.135 392.179 374.123 391.956 373.099C393.206 372.685 396.807 371.419 398.222 370.14C399.303 369.163 400.396 367.768 400.828 366.267C401.002 366.358 401.177 366.451 401.349 366.53C403.325 367.442 407.758 367.569 409.046 367.586C408.681 369.406 408.368 371.221 408.134 373.024Z" fill="#263238"/>
<path d="M423.186 318.447C424.942 317.156 426.819 315.023 426.85 312.717C426.88 310.459 425.1 308.468 422.755 308.674C419.5 308.96 416.576 314.077 415.929 316.921C415.873 317.167 415.439 321.112 415.498 321.101C415.502 321.101 421.125 319.963 423.186 318.447Z" fill="#263238"/>
<path d="M380.577 330.07C380.58 330.068 384.974 327.266 386.226 325.308C387.292 323.64 388.187 321.219 387.459 319.254C386.746 317.33 384.587 316.224 382.667 317.165C380.002 318.471 379.196 323.763 379.577 326.386C379.61 326.614 380.532 330.1 380.577 330.07Z" fill="#263238"/>
<path d="M425.942 139.759H217.293V265.532H425.942V139.759Z" fill="white" stroke="#263238" stroke-miterlimit="10" stroke-linecap="round" stroke-linejoin="round"/>
<path d="M425.942 261.669H217.293V265.532H425.942V261.669Z" fill="white" stroke="#263238" stroke-miterlimit="10" stroke-linecap="round" stroke-linejoin="round"/>
<path d="M392.293 225.02C392.361 225.138 393.916 223.921 393.986 224.042C394.146 224.319 387.558 229.794 387.719 230.072C388.076 230.69 400.564 221.88 400.9 222.462C401.298 223.151 385.817 232.608 386.223 233.311C386.736 234.2 404.062 222.055 404.476 222.772C404.905 223.516 385.235 234.367 385.685 235.146C386.17 235.986 405.865 222.384 406.346 223.217C406.855 224.099 384.862 235.647 385.394 236.569C385.967 237.562 407.2 222.815 407.704 223.688C408.207 224.56 384.757 238.876 385.246 239.722C385.914 240.879 409.952 224.117 410.532 225.123C411.15 226.194 384.749 239.477 385.304 240.438C385.866 241.411 410.493 224.421 411.131 225.527C411.675 226.47 384.746 240.448 385.396 241.574C385.97 242.568 411.409 225.037 412.066 226.176C412.647 227.182 385.414 243.237 385.979 244.216C386.657 245.39 413.381 226.878 414.038 228.016C414.675 229.119 385.866 244.611 386.598 245.878C387.246 247.001 414.433 228.043 415.197 229.367C415.833 230.469 386.184 245.271 386.772 246.289C387.469 247.497 414.785 228.515 415.478 229.715C416.128 230.841 386.336 245.681 387.005 246.841C387.77 248.167 415.115 229.049 415.792 230.221C416.378 231.237 386.644 246.302 387.285 247.41C388 248.648 415.468 229.618 416.126 230.758C416.847 232.007 387.929 248.329 388.661 249.597C389.287 250.681 416.605 231.794 417.328 233.046C418 234.21 388.88 249.487 389.527 250.607C390.248 251.856 417.213 233.172 417.841 234.26C418.433 235.285 389.57 250.323 390.161 251.346C390.888 252.604 417.489 234.129 418.112 235.209C418.762 236.334 391.457 251.979 392.104 253.099C392.741 254.203 417.916 236.513 418.645 237.775C419.223 238.777 391.594 252.056 392.256 253.201C392.976 254.448 418.012 236.835 418.66 237.957C419.321 239.102 391.751 252.236 392.342 253.259C392.959 254.327 418.003 236.906 418.669 238.059C419.245 239.057 394.411 253.853 394.993 254.862C395.525 255.784 418.125 240.055 418.753 241.144C419.225 241.962 396.672 254.866 397.196 255.775C397.738 256.714 417.971 242.686 418.445 243.507C418.964 244.406 397.084 255.056 397.576 255.907C398.028 256.691 417.794 242.917 418.364 243.905C418.837 244.723 401.221 255.971 401.61 256.645C401.991 257.305 416.577 247.011 417.007 247.756C417.309 248.279 405.521 255.969 405.804 256.459C406.033 256.856 414.417 250.88 414.68 251.335C414.798 251.539 409.275 255.152 409.41 255.387C409.496 255.536 411.983 253.674 412.081 253.845C412.125 253.922 409.997 255.043 410.042 255.12C410.126 255.265 411.652 254.003 411.733 254.144" stroke="#263238" stroke-width="0.72" stroke-linecap="round" stroke-linejoin="round"/>
<path d="M399.383 246.285C399.918 246.174 400.383 245.968 400.777 245.666C401.125 245.404 401.418 245.08 401.651 244.696C402.017 244.115 402.2 243.46 402.2 242.728C402.2 242.02 402.04 241.417 401.72 240.92C401.399 240.423 400.924 240.06 400.294 239.831C400.708 239.619 401.022 239.385 401.235 239.128C401.615 238.671 401.806 238.065 401.806 237.312C401.806 236.581 401.617 235.953 401.239 235.429C400.612 234.576 399.546 234.138 398.042 234.115H392.078V246.453H397.638C398.266 246.453 398.848 246.397 399.383 246.285ZM394.541 236.258H397.225C397.816 236.258 398.302 236.322 398.683 236.451C399.125 236.635 399.346 237.014 399.346 237.589C399.346 238.108 399.179 238.47 398.844 238.673C398.51 238.877 398.075 238.978 397.539 238.978H394.54V236.258H394.541ZM394.541 244.31V241.021H397.578C398.109 241.027 398.519 241.096 398.812 241.23C399.336 241.47 399.598 241.91 399.598 242.552C399.598 243.311 399.328 243.825 398.787 244.093C398.49 244.238 398.072 244.31 397.538 244.31H394.541Z" fill="white"/>
<path d="M404.289 245.64C405.217 246.389 406.288 246.763 407.502 246.763C408.974 246.763 410.118 246.32 410.934 245.432C411.46 244.873 411.755 244.324 411.819 243.783H409.383C409.241 244.051 409.077 244.26 408.892 244.41C408.552 244.689 408.111 244.829 407.568 244.829C407.055 244.829 406.617 244.714 406.253 244.485C405.654 244.117 405.336 243.475 405.299 242.559H411.944C411.956 241.772 411.929 241.168 411.866 240.749C411.755 240.034 411.513 239.405 411.139 238.863C410.725 238.248 410.199 237.798 409.562 237.513C408.927 237.228 408.211 237.086 407.417 237.086C406.081 237.086 404.993 237.507 404.155 238.351C403.317 239.193 402.898 240.406 402.898 241.986C402.897 243.674 403.361 244.892 404.289 245.64ZM405.993 239.575C406.331 239.228 406.805 239.054 407.417 239.054C407.98 239.054 408.452 239.218 408.833 239.545C409.213 239.873 409.425 240.354 409.468 240.987H405.358C405.444 240.393 405.656 239.923 405.993 239.575Z" fill="white"/>
<path d="M409.944 234.825H404.582V236.07H409.944V234.825Z" fill="white"/>
<path d="M388.346 149.036C388.421 149.166 389.972 147.942 390.039 148.059C390.205 148.346 383.314 154.26 383.497 154.577C383.815 155.128 397.184 145.856 397.538 146.47C397.875 147.053 382.825 154.682 383.156 155.255C383.524 155.892 397.915 145.878 398.285 146.52C398.617 147.095 382.076 156.284 382.427 156.892C382.905 157.719 399.683 146.005 400.083 146.698C400.504 147.427 380.989 159.688 381.463 160.509C381.977 161.4 403.091 146.653 403.683 147.68C404.147 148.483 380.809 160.663 381.355 161.608C381.949 162.636 404.109 147.089 404.708 148.126C405.216 149.006 380.812 162.941 381.304 163.795C381.856 164.751 406.047 148.161 406.631 149.172C407.296 150.323 380.784 163.515 381.362 164.516C381.94 165.517 406.547 148.391 407.234 149.579C407.874 150.688 380.885 164.387 381.428 165.328C382.07 166.441 407.316 149.005 407.912 150.037C408.509 151.071 380.83 164.683 381.465 165.782C382.119 166.915 407.624 149.22 408.255 150.314C408.944 151.507 380.789 164.8 381.482 166C382.18 167.21 407.804 149.398 408.412 150.452C408.993 151.458 381.114 165.98 381.747 167.076C382.433 168.264 408.638 150.125 409.255 151.194C409.965 152.424 381.189 166.243 381.804 167.309C382.561 168.62 408.827 150.297 409.438 151.355C410.104 152.509 381.575 167.74 382.188 168.802C382.902 170.038 409.748 151.227 410.468 152.474C411.085 153.543 382.42 169.787 383.107 170.976C383.879 172.314 411.228 153.163 411.911 154.346C412.592 155.525 383.743 172.01 384.344 173.051C385.022 174.226 412.401 155.2 413.116 156.44C413.833 157.683 383.752 172.013 384.457 173.234C385.226 174.566 412.56 155.53 413.2 156.639C413.793 157.666 384.63 173.188 385.216 174.203C385.896 175.381 413.028 156.643 413.678 157.77C414.351 158.937 385.473 174.12 386.151 175.293C386.792 176.403 413.491 158.008 414.141 159.133C414.859 160.376 386.116 174.747 386.806 175.942C387.483 177.115 413.643 158.785 414.363 160.032C415.029 161.186 388.256 176.477 388.927 177.639C389.517 178.662 414.207 161.738 414.773 162.717C415.375 163.759 390.374 177.852 390.938 178.829C391.517 179.833 414.222 164.018 414.814 165.044C415.324 165.928 390.943 178.195 391.461 179.092C392.001 180.027 414.215 164.664 414.774 165.632C415.293 166.53 392.764 178.945 393.257 179.799C393.847 180.82 413.919 166.538 414.496 167.537C414.978 168.372 395.43 179.738 395.846 180.459C396.256 181.169 413.288 169.267 413.774 170.108C414.126 170.718 396.684 179.878 397.118 180.629C397.57 181.413 412.882 170.543 413.308 171.282C413.617 171.818 400.737 179.986 401.073 180.567C401.351 181.048 411.059 174.197 411.321 174.65C411.446 174.866 405.879 178.961 406.004 179.178C406.088 179.324 407.767 177.998 407.837 178.12C407.882 178.198 406.056 179.071 406.096 179.14C406.177 179.28 407.704 178.019 407.787 178.164" stroke="#263238" stroke-width="0.72" stroke-linecap="round" stroke-linejoin="round"/>
<path d="M395.275 174.249H399.564V163.508H402.557L402.876 159.912H399.564C399.564 159.912 399.564 158.569 399.564 157.864C399.564 157.016 399.734 156.681 400.554 156.681C401.214 156.681 402.875 156.681 402.875 156.681V152.949C402.875 152.949 400.428 152.949 399.905 152.949C396.713 152.949 395.274 154.355 395.274 157.045C395.274 159.389 395.274 159.912 395.274 159.912H393.043V163.553H395.274V174.249H395.275Z" fill="white"/>
<path d="M339.333 178.492C339.403 178.613 340.947 177.378 341.026 177.514C341.155 177.737 335.596 181.885 335.727 182.111C336.016 182.611 345.904 175.599 346.179 176.076C346.511 176.651 333.699 184.478 333.999 184.998C334.378 185.654 349.16 175.25 349.591 175.996C350.059 176.807 332.278 187.696 332.748 188.509C333.284 189.437 352.785 175.79 353.284 176.653C353.836 177.609 331.77 190.784 332.3 191.703C332.875 192.698 355.723 176.926 356.266 177.866C356.883 178.935 331.78 191.153 332.279 192.018C332.928 193.142 355.891 176.871 356.547 178.007C357.06 178.895 331.686 191.752 332.251 192.729C332.903 193.859 356.508 177.16 357.186 178.333C357.765 179.335 331.914 194.253 332.449 195.181C333.08 196.273 358.627 178.733 359.205 179.734C359.763 180.701 332.483 196.911 333.088 197.959C333.753 199.111 360.56 180.488 361.257 181.695C361.845 182.713 332.826 197.859 333.512 199.047C334.292 200.398 361.388 181.489 362.022 182.587C362.679 183.725 332.998 198.294 333.727 199.556C334.437 200.785 361.648 181.732 362.385 183.01C362.983 184.045 333.241 198.847 333.936 200.052C334.569 201.148 362.042 182.342 362.684 183.454C363.33 184.572 333.725 199.837 334.37 200.956C335.115 202.247 362.547 183.155 363.211 184.304C363.885 185.471 333.849 200.035 334.533 201.218C335.294 202.536 362.668 183.343 363.374 184.566C364.099 185.821 335.406 202.376 336.025 203.448C336.653 204.535 363.925 185.873 364.56 186.973C365.287 188.232 335.925 202.928 336.636 204.16C337.294 205.3 364.218 186.609 364.922 187.829C365.517 188.859 337.206 204.274 337.914 205.502C338.607 206.703 364.648 188.359 365.388 189.64C366.026 190.745 337.914 204.956 338.555 206.066C339.149 207.096 364.92 189.298 365.589 190.458C366.265 191.629 338.921 205.762 339.546 206.845C340.161 207.91 365.076 190.611 365.723 191.731C366.23 192.61 341.495 207.418 342.023 208.332C342.582 209.301 365.135 193.471 365.792 194.609C366.368 195.606 342.18 207.711 342.748 208.696C343.332 209.707 365.208 194.506 365.737 195.423C366.232 196.28 344.435 208.606 344.95 209.498C345.434 210.337 364.776 196.773 365.33 197.732C365.783 198.518 344.761 208.75 345.246 209.589C345.741 210.446 364.828 197.264 365.27 198.028C365.751 198.861 345.546 208.943 346.008 209.744C346.476 210.555 364.561 197.929 365.039 198.756C365.415 199.407 346.699 209.211 347.14 209.975C347.543 210.673 364.16 199.006 364.654 199.863C365.026 200.507 351.068 209.465 351.418 210.071C351.722 210.597 362.362 203.073 362.656 203.583C362.82 203.866 356.081 208.683 356.235 208.949C356.348 209.146 359.126 207.026 359.236 207.216C359.296 207.32 356.356 208.747 356.425 208.868C356.528 209.046 359.027 207.126 359.131 207.306C359.179 207.39 357.035 208.515 357.079 208.592C357.155 208.725 358.694 207.484 358.77 207.616" stroke="#263238" stroke-width="0.72" stroke-linecap="round" stroke-linejoin="round"/>
<path d="M339.664 198.955C341.369 200.048 343.394 200.686 345.569 200.686C352.721 200.686 356.762 194.645 356.518 189.227C357.27 188.684 357.923 188.006 358.44 187.233C357.749 187.539 357.006 187.747 356.228 187.839C357.023 187.363 357.634 186.608 357.921 185.708C357.177 186.15 356.352 186.47 355.475 186.643C354.772 185.894 353.771 185.427 352.663 185.427C350.177 185.427 348.35 187.747 348.911 190.157C345.709 189.997 342.871 188.463 340.971 186.132C339.962 187.864 340.448 190.129 342.163 191.276C341.531 191.256 340.937 191.082 340.417 190.794C340.375 192.579 341.654 194.248 343.507 194.62C342.965 194.768 342.371 194.801 341.768 194.686C342.257 196.217 343.68 197.33 345.366 197.361C343.748 198.629 341.708 199.196 339.664 198.955Z" fill="white"/>
<path d="M292.25 148.781C292.319 148.9 293.863 147.664 293.943 147.803C294.133 148.133 287.164 154.078 287.356 154.41C287.702 155.009 301.16 145.561 301.541 146.221C301.928 146.891 286.497 154.971 286.806 155.507C287.18 156.154 302.294 145.515 302.748 146.303C303.137 146.976 286.116 155.547 286.487 156.189C286.896 156.897 303.044 145.53 303.52 146.355C303.931 147.068 285.034 159.053 285.461 159.793C285.966 160.668 306.605 146.334 307.146 147.273C307.63 148.112 284.586 161.773 285.163 162.773C285.755 163.798 309.247 147.417 309.875 148.505C310.545 149.665 284.768 164.595 285.378 165.651C286.092 166.888 311.55 148.93 312.248 150.138C312.935 151.328 284.769 164.795 285.436 165.95C286.14 167.17 311.861 149.274 312.476 150.339C313.026 151.293 284.782 164.887 285.467 166.073C286.188 167.322 311.83 149.136 312.573 150.423C313.146 151.416 285.332 167.177 286.042 168.406C286.735 169.606 313.535 150.823 314.275 152.105C314.908 153.202 285.672 168.015 286.404 169.283C287.098 170.486 314.171 151.572 314.898 152.832C315.515 153.901 286.293 169.47 287.002 170.7C287.62 171.771 315.061 152.787 315.803 154.072C316.411 155.126 286.737 170.281 287.402 171.433C288.126 172.687 315.505 153.502 316.243 154.781C316.852 155.837 286.958 170.648 287.543 171.66C288.301 172.974 315.739 153.891 316.384 155.008C317.061 156.181 288.4 172.778 288.984 173.789C289.622 174.894 316.791 156.093 317.502 157.324C318.134 158.419 289.304 173.808 289.929 174.89C290.639 176.12 317.248 157.387 317.997 158.685C318.631 159.783 289.385 173.922 289.976 174.945C290.622 176.063 317.311 157.537 318.015 158.757C318.728 159.992 290.254 174.692 290.951 175.899C291.537 176.915 317.644 158.875 318.342 160.085C319.015 161.25 290.861 175.239 291.543 176.42C292.121 177.421 317.821 159.614 318.528 160.84C319.1 161.831 290.991 175.357 291.668 176.531C292.248 177.535 317.821 159.729 318.558 161.006C319.137 162.009 292.394 176.484 292.967 177.477C293.661 178.678 318.04 161.502 318.689 162.627C319.206 163.523 293.266 177.088 293.826 178.057C294.501 179.226 318.162 162.597 318.772 163.654C319.329 164.619 296.29 178.559 296.784 179.414C297.3 180.308 317.898 165.881 318.479 166.888C318.97 167.738 297.254 178.926 297.724 179.741C298.293 180.726 317.715 166.9 318.277 167.875C318.754 168.702 299.329 179.407 299.795 180.215C300.241 180.988 317.205 169.115 317.659 169.901C318.038 170.558 302.773 179.859 303.122 180.463C303.447 181.026 315.874 172.256 316.24 172.89C316.529 173.391 304.362 179.84 304.651 180.34C304.922 180.809 315.126 173.659 315.4 174.134C315.557 174.405 309.866 178.66 309.997 178.886C310.079 179.027 311.609 177.772 311.688 177.91" stroke="#263238" stroke-width="0.72" stroke-linecap="round" stroke-linejoin="round"/>
<path d="M297.139 159H293.492V170.781H297.139V159Z" fill="white"/>
<path d="M295.297 157.458C296.488 157.458 297.454 156.484 297.454 155.284C297.454 154.084 296.489 153.11 295.297 153.11C294.106 153.11 293.141 154.083 293.141 155.284C293.141 156.484 294.106 157.458 295.297 157.458Z" fill="white"/>
<path d="M302.967 164.598C302.967 162.942 303.729 161.955 305.189 161.955C306.53 161.955 307.174 162.902 307.174 164.598C307.174 166.295 307.174 170.782 307.174 170.782H310.803C310.803 170.782 310.803 166.479 310.803 163.323C310.803 160.167 309.014 158.642 306.517 158.642C304.018 158.642 302.967 160.589 302.967 160.589V159.002H299.469V170.783H302.967C302.967 170.783 302.967 166.413 302.967 164.598Z" fill="white"/>
<path d="M302.595 224.892C302.673 225.027 304.217 223.792 304.288 223.914C304.39 224.091 300.265 226.684 300.375 226.874C300.564 227.201 307.097 222.526 307.299 222.876C307.544 223.301 297.865 229.384 298.111 229.81C298.412 230.331 310.671 221.711 311.038 222.347C311.39 222.956 296.278 232.072 296.673 232.757C297.144 233.573 313.88 221.753 314.344 222.555C314.739 223.238 296.104 232.645 296.484 233.303C296.981 234.163 314.445 221.876 314.903 222.669C315.332 223.412 295.767 233.129 296.252 233.97C296.783 234.89 315.08 221.935 315.584 222.808C316.06 223.632 295.109 236.423 295.615 237.301C296.245 238.392 318.272 222.972 318.813 223.908C319.323 224.791 295.042 237.513 295.543 238.381C296.12 239.38 319.142 223.296 319.775 224.391C320.319 225.333 295.102 239.494 295.613 240.379C296.177 241.356 320.886 224.393 321.49 225.439C322.171 226.619 295.303 241.594 295.938 242.694C296.679 243.977 322.628 225.69 323.319 226.886C323.915 227.919 295.758 243.357 296.357 244.396C296.966 245.451 323.929 227.065 324.541 228.124C325.179 229.23 296.195 244.503 296.858 245.651C297.507 246.776 324.716 227.925 325.427 229.157C326.135 230.383 296.868 246.049 297.458 247.071C298.246 248.436 325.655 229.309 326.297 230.421C326.905 231.474 297.373 246.865 297.98 247.918C298.71 249.182 326.176 230.149 326.821 231.267C327.438 232.335 298.545 248.614 299.201 249.752C299.98 251.1 327.151 232.183 327.771 233.257C328.497 234.514 299.731 249.966 300.443 251.2C301.086 252.314 327.649 233.744 328.406 235.056C329.018 236.117 301.172 251.426 301.732 252.395C302.404 253.558 328.156 235.595 328.824 236.753C329.442 237.823 301.415 251.592 302.03 252.657C302.689 253.799 328.238 235.985 328.905 237.141C329.475 238.129 302.478 252.33 303.135 253.468C303.718 254.477 328.46 237.56 329.017 238.525C329.534 239.421 304.52 253.589 305.14 254.662C305.8 255.805 328.548 239.95 329.066 240.848C329.633 241.83 307.368 254.869 307.901 255.792C308.389 256.637 328.09 242.818 328.661 243.806C329.15 244.652 310.071 255.594 310.54 256.405C310.986 257.178 327.478 245.714 327.873 246.398C328.292 247.125 311.003 255.853 311.368 256.485C311.763 257.168 327.127 246.393 327.557 247.138C327.816 247.587 317.124 255.511 317.413 256.013C317.627 256.384 324.022 251.768 324.208 252.09C324.294 252.24 320.25 254.833 320.344 254.995C320.413 255.115 321.956 253.881 322.035 254.019" stroke="#263238" stroke-width="0.72" stroke-linecap="round" stroke-linejoin="round"/>
<path d="M312.316 231.535C314.896 231.535 315.201 231.545 316.22 231.591C317.162 231.634 317.674 231.791 318.014 231.924C318.465 232.099 318.787 232.309 319.125 232.647C319.463 232.985 319.672 233.307 319.848 233.758C319.98 234.099 320.138 234.61 320.181 235.552C320.227 236.571 320.237 236.876 320.237 239.456C320.237 242.036 320.227 242.341 320.181 243.36C320.138 244.302 319.981 244.814 319.848 245.154C319.673 245.605 319.464 245.927 319.125 246.265C318.787 246.603 318.465 246.812 318.014 246.988C317.673 247.12 317.162 247.278 316.22 247.321C315.201 247.367 314.896 247.377 312.316 247.377C309.736 247.377 309.431 247.367 308.412 247.321C307.47 247.278 306.959 247.121 306.618 246.988C306.167 246.813 305.845 246.603 305.507 246.265C305.169 245.927 304.96 245.605 304.784 245.154C304.652 244.814 304.494 244.302 304.451 243.36C304.405 242.341 304.395 242.036 304.395 239.456C304.395 236.876 304.405 236.571 304.451 235.552C304.494 234.61 304.652 234.098 304.784 233.758C304.959 233.307 305.169 232.985 305.507 232.647C305.845 232.309 306.167 232.1 306.618 231.924C306.959 231.792 307.47 231.634 308.412 231.591C309.431 231.545 309.736 231.535 312.316 231.535ZM312.316 229.794C309.692 229.794 309.363 229.805 308.333 229.852C307.305 229.899 306.602 230.062 305.988 230.301C305.352 230.548 304.814 230.878 304.277 231.415C303.74 231.952 303.41 232.491 303.163 233.126C302.924 233.741 302.761 234.443 302.714 235.471C302.667 236.502 302.656 236.83 302.656 239.454C302.656 242.078 302.667 242.407 302.714 243.437C302.761 244.465 302.924 245.167 303.163 245.782C303.41 246.417 303.74 246.956 304.277 247.493C304.814 248.03 305.353 248.361 305.988 248.607C306.602 248.846 307.305 249.009 308.333 249.056C309.363 249.103 309.692 249.114 312.316 249.114C314.94 249.114 315.269 249.103 316.299 249.056C317.327 249.009 318.03 248.846 318.644 248.607C319.279 248.36 319.818 248.03 320.355 247.493C320.892 246.956 321.222 246.417 321.469 245.782C321.708 245.167 321.871 244.465 321.918 243.437C321.965 242.406 321.976 242.077 321.976 239.454C321.976 236.83 321.965 236.501 321.918 235.471C321.871 234.443 321.708 233.741 321.469 233.126C321.222 232.491 320.892 231.952 320.355 231.415C319.818 230.878 319.279 230.547 318.644 230.301C318.029 230.062 317.327 229.899 316.299 229.852C315.269 229.805 314.94 229.794 312.316 229.794Z" fill="white"/>
<path d="M312.316 234.494C309.576 234.494 307.355 236.715 307.355 239.455C307.355 242.195 309.576 244.416 312.316 244.416C315.056 244.416 317.277 242.195 317.277 239.455C317.277 236.715 315.056 234.494 312.316 234.494ZM312.316 242.676C310.537 242.676 309.096 241.234 309.096 239.456C309.096 237.677 310.538 236.235 312.316 236.235C314.094 236.235 315.536 237.677 315.536 239.456C315.536 241.234 314.095 242.676 312.316 242.676Z" fill="white"/>
<path d="M318.63 234.298C318.63 234.938 318.111 235.458 317.471 235.458C316.831 235.458 316.312 234.939 316.312 234.298C316.312 233.657 316.831 233.139 317.471 233.139C318.111 233.139 318.63 233.658 318.63 234.298Z" fill="white"/>
<path d="M371.723 193.452H385.876" stroke="#263238" stroke-miterlimit="10" stroke-linecap="round" stroke-linejoin="round"/>
<path d="M371.723 196.366H385.876" stroke="#263238" stroke-miterlimit="10" stroke-linecap="round" stroke-linejoin="round"/>
<path d="M371.723 199.28H385.876" stroke="#263238" stroke-miterlimit="10" stroke-linecap="round" stroke-linejoin="round"/>
<path d="M371.723 202.194H385.876" stroke="#263238" stroke-miterlimit="10" stroke-linecap="round" stroke-linejoin="round"/>
<path d="M326.352 159.32H369.226" stroke="#263238" stroke-miterlimit="10" stroke-linecap="round" stroke-linejoin="round"/>
<path d="M321.773 220.092L334.052 207.813" stroke="#263238" stroke-miterlimit="10" stroke-linecap="round" stroke-linejoin="round"/>
<path d="M399.609 185.127V216.346" stroke="#263238" stroke-miterlimit="10" stroke-linecap="round" stroke-linejoin="round"/>
<path d="M336.758 235.494H350.911" stroke="#263238" stroke-miterlimit="10" stroke-linecap="round" stroke-linejoin="round"/>
<path d="M336.758 238.407H350.911" stroke="#263238" stroke-miterlimit="10" stroke-linecap="round" stroke-linejoin="round"/>
<path d="M336.758 241.321H350.911" stroke="#263238" stroke-miterlimit="10" stroke-linecap="round" stroke-linejoin="round"/>
<path d="M336.758 244.235H350.911" stroke="#263238" stroke-miterlimit="10" stroke-linecap="round" stroke-linejoin="round"/>
<path d="M295.547 185.96H309.7" stroke="#263238" stroke-miterlimit="10" stroke-linecap="round" stroke-linejoin="round"/>
<path d="M295.547 188.874H309.7" stroke="#263238" stroke-miterlimit="10" stroke-linecap="round" stroke-linejoin="round"/>
<path d="M295.547 191.787H309.7" stroke="#263238" stroke-miterlimit="10" stroke-linecap="round" stroke-linejoin="round"/>
<path d="M295.547 194.701H309.7" stroke="#263238" stroke-miterlimit="10" stroke-linecap="round" stroke-linejoin="round"/>
<path d="M362.148 164.731H376.301" stroke="#263238" stroke-miterlimit="10" stroke-linecap="round" stroke-linejoin="round"/>
<path d="M362.148 167.646H376.301" stroke="#263238" stroke-miterlimit="10" stroke-linecap="round" stroke-linejoin="round"/>
<path d="M362.148 170.56H376.301" stroke="#263238" stroke-miterlimit="10" stroke-linecap="round" stroke-linejoin="round"/>
<path d="M362.148 173.473H376.301" stroke="#263238" stroke-miterlimit="10" stroke-linecap="round" stroke-linejoin="round"/>
<path d="M365.477 240.905H379.63" stroke="#263238" stroke-miterlimit="10" stroke-linecap="round" stroke-linejoin="round"/>
<path d="M365.477 243.819H379.63" stroke="#263238" stroke-miterlimit="10" stroke-linecap="round" stroke-linejoin="round"/>
<path d="M365.477 246.732H379.63" stroke="#263238" stroke-miterlimit="10" stroke-linecap="round" stroke-linejoin="round"/>
<path d="M365.477 249.646H379.63" stroke="#263238" stroke-miterlimit="10" stroke-linecap="round" stroke-linejoin="round"/>
<path d="M370.473 215.515L358.402 216.347V229.251L371.722 228.418L370.473 215.515Z" fill="#8D6F9F"/>
<path d="M360.824 220.035L368.601 219.479" stroke="#263238" stroke-miterlimit="10" stroke-linecap="round" stroke-linejoin="round"/>
<path d="M360.547 223.369L368.879 223.091" stroke="#263238" stroke-miterlimit="10" stroke-linecap="round" stroke-linejoin="round"/>
<path d="M323.259 172.464L311.188 173.297V186.2L324.507 185.368L323.259 172.464Z" fill="#8D6F9F"/>
<path d="M313.609 176.985L321.386 176.43" stroke="#263238" stroke-miterlimit="10" stroke-linecap="round" stroke-linejoin="round"/>
<path d="M313.332 180.318L321.664 180.04" stroke="#263238" stroke-miterlimit="10" stroke-linecap="round" stroke-linejoin="round"/>
<path d="M302.426 209.682L290.355 210.515V223.418L303.675 222.586L302.426 209.682Z" fill="#8D6F9F"/>
<path d="M292.777 214.202L300.554 213.647" stroke="#263238" stroke-miterlimit="10" stroke-linecap="round" stroke-linejoin="round"/>
<path d="M292.5 217.536L300.832 217.258" stroke="#263238" stroke-miterlimit="10" stroke-linecap="round" stroke-linejoin="round"/>
<path d="M285.607 238.245C285.607 238.245 287.873 242.4 287.873 244.289C287.873 246.178 277.297 269.03 277.108 269.786C276.919 270.541 278.241 274.696 277.486 277.718C276.731 280.74 273.897 283.951 273.897 283.951L270.309 268.464C270.309 268.464 274.275 264.498 272.387 259.021C270.498 253.544 270.498 241.834 270.498 241.834L285.607 238.245Z" fill="white" stroke="#263238" stroke-miterlimit="10" stroke-linecap="round" stroke-linejoin="round"/>
<path d="M267.288 410.475C267.288 410.475 266.346 420.06 267.102 420.626C267.857 421.193 271.708 421.11 274.368 420.626C278.001 419.966 279.981 420.791 282.625 420.791C285.269 420.791 290.934 421.514 291.543 420.296C292.699 417.984 285.797 415.763 282.02 413.497C278.243 411.231 274.654 409.342 274.654 409.342L267.288 410.475Z" fill="white" stroke="#263238" stroke-miterlimit="10" stroke-linecap="round" stroke-linejoin="round"/>
<path d="M238.579 266.573C238.579 266.573 235.179 284.704 234.991 288.103C234.802 291.503 225.359 406.507 225.359 406.507L234.047 407.262L255.766 298.301L257.277 297.923L267.287 410.472L275.408 408.961L275.786 284.891L273.331 266.193L238.579 266.573Z" fill="#263238" stroke="#263238" stroke-miterlimit="10" stroke-linecap="round" stroke-linejoin="round"/>
<path d="M247.268 208.781C247.268 208.781 232.159 205.57 228.57 204.626C224.982 203.682 224.037 212.182 222.904 215.014C221.771 217.847 211.005 237.488 211.761 239C212.516 240.511 215.349 244.477 221.015 240.511C226.681 236.545 230.08 229.934 230.08 229.934C230.08 229.934 237.635 251.276 238.012 253.731C238.39 256.186 237.068 266.386 238.012 268.463C238.956 270.54 248.399 271.862 256.143 271.674C263.886 271.485 272.385 271.296 273.518 268.463C274.651 265.63 273.329 244.666 273.329 244.666C273.329 244.666 285.039 242.587 286.927 239.755C288.816 236.922 284.661 232.957 280.883 225.591C277.106 218.225 276.161 209.349 273.328 207.649C270.495 205.949 251.986 209.16 250.287 209.16C248.588 209.16 247.268 208.781 247.268 208.781Z" fill="#8D6F9F" stroke="#263238" stroke-miterlimit="10" stroke-linecap="round" stroke-linejoin="round"/>
<path d="M250.1 213.881L252.744 220.68L249.156 262.042L257.843 276.773L262.943 259.775L255.388 220.114L259.543 211.993L253.877 209.538L249.533 212.937L250.1 213.881Z" fill="#263238" stroke="#263238" stroke-miterlimit="10" stroke-linecap="round" stroke-linejoin="round"/>
<path d="M243.114 207.649L242.547 219.736L255.201 213.504L266.344 220.114L260.3 207.46C260.3 207.46 256.145 205.005 251.046 205.005C245.947 205.005 243.114 207.649 243.114 207.649Z" fill="#8D6F9F" stroke="#263238" stroke-miterlimit="10" stroke-linecap="round" stroke-linejoin="round"/>
<path d="M245.758 194.428C245.758 194.428 246.513 198.772 246.324 204.06C246.135 209.348 246.891 208.215 249.346 212.181C251.801 216.147 253.501 217.658 255.579 215.392C257.656 213.126 257.656 208.404 258.034 207.46C258.412 206.516 258.789 195.562 258.789 195.562C258.789 195.562 256.146 197.45 245.758 194.428Z" fill="white" stroke="#263238" stroke-miterlimit="10" stroke-linecap="round" stroke-linejoin="round"/>
<path d="M259.328 172.15C259.328 172.15 261.763 178.967 261.763 187.244C261.763 195.521 261.763 198.281 259.004 199.741C256.245 201.202 252.025 201.364 249.428 199.741C246.831 198.118 244.072 196.008 242.287 194.06C240.502 192.112 235.632 186.107 234.983 182.049C234.334 177.991 242.124 172.798 248.617 170.201C255.109 167.606 259.328 172.15 259.328 172.15Z" fill="white" stroke="#263238" stroke-miterlimit="10" stroke-linecap="round" stroke-linejoin="round"/>
<path d="M250.965 182.899C251.144 183.842 250.885 184.683 250.386 184.777C249.887 184.872 249.337 184.185 249.158 183.242C248.979 182.299 249.238 181.458 249.737 181.364C250.236 181.27 250.786 181.957 250.965 182.899Z" fill="#263238"/>
<path d="M256.91 180.517C256.91 180.517 257.932 179.086 259.363 179.699" stroke="#263238" stroke-miterlimit="10" stroke-linecap="round" stroke-linejoin="round"/>
<path d="M256.91 191.757L259.567 189.918" stroke="#263238" stroke-miterlimit="10" stroke-linecap="round" stroke-linejoin="round"/>
<path d="M246.691 180.517C246.691 180.517 247.509 177.656 251.187 178.678" stroke="#263238" stroke-miterlimit="10" stroke-linecap="round" stroke-linejoin="round"/>
<path d="M254.66 178.268C254.66 178.268 254.864 176.224 257.726 176.224" stroke="#263238" stroke-miterlimit="10" stroke-linecap="round" stroke-linejoin="round"/>
<path d="M255.383 180.265C255.383 180.265 258.629 185.459 258.467 186.27C258.305 187.081 255.059 189.354 255.059 189.354" stroke="#263238" stroke-miterlimit="10" stroke-linecap="round" stroke-linejoin="round"/>
<path d="M239.853 189.841C239.853 189.841 241.314 189.516 241.314 187.569C241.314 185.621 240.34 184.485 240.34 181.726C240.34 178.967 248.942 174.585 253.324 175.072C257.706 175.559 261.764 175.559 264.198 173.124C266.632 170.689 267.119 167.93 266.146 168.093C265.172 168.255 262.738 169.391 262.738 169.391C262.738 169.391 264.199 164.36 260.79 159.491C257.382 154.622 256.57 157.868 257.057 158.679C257.544 159.491 259.005 163.223 259.005 163.223C259.005 163.223 253.649 159.165 250.241 159.49C246.833 159.815 235.958 164.684 233.361 168.417C230.764 172.15 230.602 177.993 231.251 181.239C231.9 184.485 233.848 184.81 233.848 184.81L238.23 190.328L239.853 189.841Z" fill="#263238" stroke="#263238" stroke-miterlimit="10" stroke-linecap="round" stroke-linejoin="round"/>
<path d="M233.988 181.179C233.988 181.179 234.601 176.07 239.302 174.435C244.003 172.8 248.295 172.8 254.221 172.8C260.148 172.8 257.082 167.078 254.834 166.669" stroke="#787878" stroke-miterlimit="10" stroke-linecap="round" stroke-linejoin="round"/>
<path d="M233.578 174.23C233.578 174.23 234.6 169.938 243.388 169.529" stroke="#787878" stroke-miterlimit="10" stroke-linecap="round" stroke-linejoin="round"/>
<path d="M242.287 191.464C242.287 191.464 240.177 186.433 236.769 187.893C233.361 189.354 237.094 196.17 240.664 196.008C244.235 195.846 244.722 193.736 244.722 193.736" fill="white"/>
<path d="M242.287 191.464C242.287 191.464 240.177 186.433 236.769 187.893C233.361 189.354 237.094 196.17 240.664 196.008C244.235 195.846 244.722 193.736 244.722 193.736" stroke="#263238" stroke-miterlimit="10" stroke-linecap="round" stroke-linejoin="round"/>
<path d="M242.808 215.462C242.808 215.462 242.808 205.408 243.866 203.468C244.924 201.528 248.275 199.94 250.216 198.882C252.156 197.824 253.038 198.882 252.156 200.469C251.274 202.056 248.981 204.173 248.981 204.173C248.981 204.173 258.329 199.763 259.211 200.998C260.093 202.233 260.269 203.82 259.211 204.702C258.153 205.584 257.095 206.113 256.565 206.819C256.036 207.524 257.094 212.816 256.036 214.58C254.978 216.344 250.216 218.284 247.746 219.871C245.276 221.458 227.639 240.86 222.877 243.153C218.115 245.446 215.293 246.857 212.824 243.682C210.355 240.507 210.884 237.332 214.059 233.452C217.234 229.572 242.808 215.462 242.808 215.462Z" fill="white" stroke="#263238" stroke-miterlimit="10" stroke-linecap="round" stroke-linejoin="round"/>
<path d="M225.361 406.509C225.361 406.509 222.528 411.986 220.639 413.875C218.75 415.764 214.87 419.518 215.248 420.462C215.626 421.406 233.414 420.462 233.414 420.462C233.414 420.462 234.9 421.123 234.427 416.708C234.205 414.642 234.049 407.265 234.049 407.265L225.361 406.509Z" fill="white" stroke="#263238" stroke-miterlimit="10" stroke-linecap="round" stroke-linejoin="round"/>
<path d="M273.331 244.666C273.331 244.666 273.52 223.324 272.387 220.68L273.331 244.666Z" fill="white"/>
<path d="M273.331 244.666C273.331 244.666 273.52 223.324 272.387 220.68" stroke="#263238" stroke-miterlimit="10" stroke-linecap="round" stroke-linejoin="round"/>
<path d="M122.061 415.445C122.061 412.887 119.987 410.812 117.429 410.812C114.871 410.812 112.797 412.887 112.797 415.445C112.797 418.003 114.871 420.077 117.429 420.077C119.987 420.077 122.061 418.004 122.061 415.445Z" fill="#263238" stroke="#263238" stroke-miterlimit="10" stroke-linecap="round" stroke-linejoin="round"/>
<path d="M117.429 417.761C118.708 417.761 119.745 416.724 119.745 415.445C119.745 414.166 118.708 413.129 117.429 413.129C116.15 413.129 115.113 414.166 115.113 415.445C115.113 416.724 116.15 417.761 117.429 417.761Z" fill="white" stroke="#263238" stroke-miterlimit="10" stroke-linecap="round" stroke-linejoin="round"/>
<path d="M171.67 415.445C171.67 412.887 169.596 410.812 167.038 410.812C164.48 410.812 162.406 412.887 162.406 415.445C162.406 418.003 164.48 420.077 167.038 420.077C169.596 420.077 171.67 418.004 171.67 415.445Z" fill="#263238" stroke="#263238" stroke-miterlimit="10" stroke-linecap="round" stroke-linejoin="round"/>
<path d="M169.355 415.445C169.355 414.166 168.318 413.129 167.039 413.129C165.76 413.129 164.723 414.166 164.723 415.445C164.723 416.724 165.76 417.761 167.039 417.761C168.318 417.761 169.355 416.725 169.355 415.445Z" fill="white" stroke="#263238" stroke-miterlimit="10" stroke-linecap="round" stroke-linejoin="round"/>
<path d="M183.249 420.077C185.807 420.077 187.881 418.003 187.881 415.445C187.881 412.886 185.807 410.812 183.249 410.812C180.691 410.812 178.617 412.886 178.617 415.445C178.617 418.003 180.691 420.077 183.249 420.077Z" fill="#263238" stroke="#263238" stroke-miterlimit="10" stroke-linecap="round" stroke-linejoin="round"/>
<path d="M183.25 417.761C184.529 417.761 185.566 416.724 185.566 415.445C185.566 414.166 184.529 413.129 183.25 413.129C181.97 413.129 180.934 414.166 180.934 415.445C180.934 416.724 181.97 417.761 183.25 417.761Z" fill="white" stroke="#263238" stroke-miterlimit="10" stroke-linecap="round" stroke-linejoin="round"/>
<path d="M159.859 410.15H150.062V342.7C150.062 342.68 150.078 342.664 150.098 342.664H159.824C159.844 342.664 159.859 342.68 159.859 342.7V410.15Z" fill="#263238" stroke="#263238" stroke-miterlimit="10" stroke-linecap="round" stroke-linejoin="round"/>
<path d="M162.468 374.73H147.453V410.149H162.468V374.73Z" fill="#263238" stroke="#263238" stroke-miterlimit="10" stroke-linecap="round" stroke-linejoin="round"/>
<path d="M144.923 334.266H132.399C132.379 334.266 132.363 334.25 132.363 334.23V307.281H144.959V334.23C144.959 334.25 144.943 334.266 144.923 334.266Z" fill="#263238" stroke="#263238" stroke-miterlimit="10" stroke-linecap="round" stroke-linejoin="round"/>
<path d="M163.463 307.293H114.419C109.587 307.293 105.704 303.312 105.823 298.482L107.007 250.599C107.122 245.934 110.937 242.213 115.603 242.213H156.1C160.344 242.213 163.954 245.31 164.599 249.505L171.962 297.388C172.763 302.596 168.733 307.293 163.463 307.293Z" fill="#8D6F9F" stroke="#263238" stroke-miterlimit="10" stroke-linecap="round" stroke-linejoin="round"/>
<path d="M147.44 344.413L125.922 358.584" stroke="#263238" stroke-miterlimit="10" stroke-linecap="round" stroke-linejoin="round"/>
<path d="M125.103 356.438L121.438 358.908C120.177 359.758 120.014 361.551 121.1 362.615L121.354 362.864C122.231 363.723 123.614 363.781 124.561 363.001L127.929 360.224C128.994 359.346 129.084 357.746 128.123 356.754C127.326 355.93 126.053 355.797 125.103 356.438Z" fill="#263238" stroke="#263238" stroke-miterlimit="10" stroke-linecap="round" stroke-linejoin="round"/>
<path d="M195.176 346.862H114.744C110.674 346.862 107.375 343.563 107.375 339.493V338.837C107.375 334.767 110.674 331.467 114.744 331.467H195.176C199.246 331.467 202.545 334.766 202.545 338.836V339.492C202.545 343.563 199.246 346.862 195.176 346.862Z" fill="#8D6F9F" stroke="#263238" stroke-miterlimit="10" stroke-linecap="round" stroke-linejoin="round"/>
<path d="M202.491 338.23C202.029 334.304 198.479 331.467 194.526 331.467H153.184C149.231 331.467 145.681 334.304 145.219 338.23C144.67 342.899 148.303 346.862 152.862 346.862H194.849C199.408 346.862 203.041 342.899 202.491 338.23Z" fill="#8D6F9F" stroke="#263238" stroke-miterlimit="10" stroke-linecap="round" stroke-linejoin="round"/>
<path d="M189.371 412.949H112.773V412.751C112.773 410.545 114.562 408.756 116.768 408.756H185.376C187.582 408.756 189.371 410.545 189.371 412.751V412.949Z" fill="#263238" stroke="#263238" stroke-miterlimit="10" stroke-linecap="round" stroke-linejoin="round"/>
<path d="M175.73 412.949H150.801V408.755H171.735C173.941 408.755 175.73 410.544 175.73 412.75V412.949Z" fill="#263238" stroke="#263238" stroke-miterlimit="10" stroke-linecap="round" stroke-linejoin="round"/>
<path d="M212.716 297.856H149.234V300.418H212.716V297.856Z" fill="white" stroke="#263238" stroke-miterlimit="10" stroke-linecap="round" stroke-linejoin="round"/>
<path d="M230.615 297.856H167.133V300.418H230.615V297.856Z" fill="white" stroke="#263238" stroke-miterlimit="10" stroke-linecap="round" stroke-linejoin="round"/>
<path d="M223.538 252.89H170.602V293.303H223.538V252.89Z" fill="white" stroke="#263238" stroke-miterlimit="10" stroke-linecap="round" stroke-linejoin="round"/>
<path d="M225.725 252.89H172.789V293.303H225.725V252.89Z" fill="#263238" stroke="#263238" stroke-miterlimit="10" stroke-linecap="round" stroke-linejoin="round"/>
<path d="M209.509 274.52H195.848V300.419H209.509V274.52Z" fill="white" stroke="#263238" stroke-miterlimit="10" stroke-linecap="round" stroke-linejoin="round"/>
<path d="M124.326 298.341C125.086 298.341 125.711 297.733 125.727 296.969L126.04 282.248L133.006 264.078L149.693 270.578C150.414 270.857 151.228 270.503 151.509 269.78C151.79 269.058 151.433 268.245 150.711 267.964L132.71 260.952C132.363 260.817 131.975 260.826 131.634 260.977C131.294 261.128 131.026 261.409 130.893 261.757L123.334 281.471C123.276 281.622 123.245 281.782 123.241 281.943L122.922 296.908C122.906 297.682 123.52 298.324 124.294 298.34C124.305 298.341 124.316 298.341 124.326 298.341Z" fill="#263238"/>
<path d="M115.138 299.591H133.512V294.283H115.138V299.591Z" fill="#263238" stroke="#263238" stroke-miterlimit="10" stroke-linecap="round" stroke-linejoin="round"/>
<path d="M128.934 262.259C128.934 260.455 130.396 258.993 132.2 258.993C134.004 258.993 135.466 260.456 135.466 262.259C135.466 264.063 134.004 265.525 132.2 265.525C130.396 265.525 128.934 264.063 128.934 262.259Z" fill="#263238"/>
<path d="M121.504 282.745C121.504 280.941 122.967 279.479 124.771 279.479C126.575 279.479 128.037 280.941 128.037 282.745C128.037 284.549 126.575 286.01 124.771 286.01C122.967 286.01 121.504 284.549 121.504 282.745Z" fill="#263238"/>
<path d="M151.275 266.226L163.596 265.461L155.891 282.38L148.379 272.583L151.275 266.226Z" fill="#263238"/>
<path d="M105.418 315.152L108.163 418.787C108.199 420.159 109.322 421.253 110.695 421.253C112.081 421.253 113.21 420.139 113.228 418.753L114.582 315.152H105.418Z" fill="white" stroke="#263238" stroke-miterlimit="10" stroke-linecap="round" stroke-linejoin="round"/>
<path d="M138.898 315.152L141.643 418.787C141.679 420.159 142.802 421.253 144.175 421.253C145.561 421.253 146.69 420.139 146.708 418.753L148.062 315.152H138.898Z" fill="white" stroke="#263238" stroke-miterlimit="10" stroke-linecap="round" stroke-linejoin="round"/>
<path d="M277.012 315.152L279.757 418.787C279.793 420.159 280.916 421.253 282.289 421.253C283.675 421.253 284.804 420.139 284.822 418.753L286.176 315.152H277.012Z" fill="white" stroke="#263238" stroke-miterlimit="10" stroke-linecap="round" stroke-linejoin="round"/>
<path d="M310.492 315.152L313.237 418.787C313.273 420.159 314.396 421.253 315.769 421.253C317.155 421.253 318.284 420.139 318.302 418.753L319.656 315.152H310.492Z" fill="white" stroke="#263238" stroke-miterlimit="10" stroke-linecap="round" stroke-linejoin="round"/>
<path d="M322.717 303.834H102.16V316.236H322.717V303.834Z" fill="white" stroke="#263238" stroke-miterlimit="10" stroke-linecap="round" stroke-linejoin="round"/>
<path d="M148.311 303.834H102.16V316.236H148.311V303.834Z" fill="white" stroke="#263238" stroke-miterlimit="10" stroke-linecap="round" stroke-linejoin="round"/>
<path d="M322.717 303.834H102.16V310.035H322.717V303.834Z" fill="#263238" stroke="#263238" stroke-miterlimit="10" stroke-linecap="round" stroke-linejoin="round"/>
<path d="M325.278 299.564H99.5977V306.395H325.278V299.564Z" fill="white" stroke="#263238" stroke-miterlimit="10" stroke-linecap="round" stroke-linejoin="round"/>
<path d="M325.277 299.564H151.375V306.395H325.277V299.564Z" fill="white" stroke="#263238" stroke-miterlimit="10" stroke-linecap="round" stroke-linejoin="round"/>
<path d="M166.972 190.412C172.652 176.553 166.021 160.714 152.162 155.034C138.303 149.354 122.464 155.985 116.784 169.844C111.104 183.703 117.735 199.543 131.594 205.222C145.453 210.902 161.293 204.271 166.972 190.412Z" stroke="#263238" stroke-miterlimit="10" stroke-linecap="round" stroke-linejoin="round"/>
<path d="M145.464 202.309C157.717 200.335 166.05 188.8 164.076 176.546C162.101 164.293 150.566 155.96 138.313 157.934C126.059 159.909 117.726 171.443 119.7 183.697C121.675 195.951 133.21 204.284 145.464 202.309Z" stroke="#263238" stroke-miterlimit="10" stroke-linecap="round" stroke-linejoin="round"/>
<path d="M127.543 180.12H141.878V200.802" stroke="#263238" stroke-miterlimit="10" stroke-linecap="round" stroke-linejoin="round"/>
<path d="M51.6992 421.085H453.699" stroke="#263238" stroke-miterlimit="10" stroke-linecap="round" stroke-linejoin="round"/>
</svg>
