<svg width="35" height="35" viewBox="0 0 35 35" fill="none" xmlns="http://www.w3.org/2000/svg">
<path d="M35 30.6667C35 31.7712 34.1046 32.6667 33 32.6667H2C0.89543 32.6667 0 31.7712 0 30.6667V5.5C0 4.39543 0.895431 3.5 2 3.5H33C34.1046 3.5 35 4.39543 35 5.5V30.6667ZM2.33333 28.3333C2.33333 29.4379 3.22876 30.3333 4.33333 30.3333H30.6667C31.7712 30.3333 32.6667 29.4379 32.6667 28.3333V7.83333C32.6667 6.72876 31.7712 5.83333 30.6667 5.83333H4.33333C3.22877 5.83333 2.33333 6.72876 2.33333 7.83333V28.3333Z" fill="white"/>
<path d="M1.16667 10.4999C1.16667 9.85559 1.68901 9.33325 2.33334 9.33325H32.6667C33.311 9.33325 33.8333 9.85559 33.8333 10.4999C33.8333 11.1443 33.311 11.6666 32.6667 11.6666H2.33334C1.68901 11.6666 1.16667 11.1443 1.16667 10.4999ZM12.5049 17.6487C12.0484 17.1928 12.0479 16.4532 12.5037 15.9967C12.9596 15.5402 13.6992 15.5396 14.1558 15.9955L22.5266 24.3547C22.9831 24.8105 22.9836 25.5502 22.5278 26.0067C22.0719 26.4632 21.3323 26.4637 20.8758 26.0078L12.5049 17.6487Z" fill="white"/>
<path d="M12.4921 25.9963C12.0362 25.5404 12.0362 24.8013 12.4921 24.3455L20.8513 15.9863C21.3071 15.5304 22.0462 15.5304 22.5021 15.9863C22.958 16.4422 22.958 17.1813 22.5021 17.6371L14.1429 25.9963C13.6871 26.4522 12.948 26.4522 12.4921 25.9963Z" fill="white"/>
</svg>
