<svg width="80" height="80" viewBox="0 0 80 80" fill="none" xmlns="http://www.w3.org/2000/svg">
<rect x="0.25" y="0.25" width="79.5" height="79.5" rx="11.75" fill="#FFEAE1" stroke="#F5F5F5" stroke-width="0.5"/>
<path d="M57 53.6667C57 54.7712 56.1046 55.6667 55 55.6667H24C22.8954 55.6667 22 54.7712 22 53.6667V28.5C22 27.3954 22.8954 26.5 24 26.5H55C56.1046 26.5 57 27.3954 57 28.5V53.6667ZM24.3333 51.3333C24.3333 52.4379 25.2288 53.3333 26.3333 53.3333H52.6667C53.7712 53.3333 54.6667 52.4379 54.6667 51.3333V30.8333C54.6667 29.7288 53.7712 28.8333 52.6667 28.8333H26.3333C25.2288 28.8333 24.3333 29.7288 24.3333 30.8333V51.3333Z" fill="#323232"/>
<path d="M23.1667 33.4999C23.1667 32.8556 23.689 32.3333 24.3333 32.3333H54.6667C55.311 32.3333 55.8333 32.8556 55.8333 33.4999V33.4999C55.8333 34.1443 55.311 34.6666 54.6667 34.6666H24.3333C23.689 34.6666 23.1667 34.1443 23.1667 33.4999V33.4999ZM34.5049 40.6487C34.0484 40.1928 34.0479 39.4532 34.5038 38.9967V38.9967C34.9596 38.5402 35.6992 38.5396 36.1558 38.9955L44.5266 47.3547C44.9831 47.8105 44.9836 48.5502 44.5278 49.0067V49.0067C44.0719 49.4632 43.3323 49.4637 42.8758 49.0078L34.5049 40.6487Z" fill="#323232"/>
<path d="M34.4921 48.9963C34.0362 48.5404 34.0362 47.8013 34.4921 47.3455L42.8513 38.9863C43.3071 38.5304 44.0462 38.5304 44.5021 38.9863V38.9863C44.958 39.4422 44.958 40.1813 44.5021 40.6371L36.1429 48.9963C35.6871 49.4522 34.948 49.4522 34.4921 48.9963V48.9963Z" fill="#323232"/>
</svg>
