<svg width="40" height="40" viewBox="0 0 40 40" fill="none" xmlns="http://www.w3.org/2000/svg">
<path d="M17.2746 11.3979C16.2806 11.9735 15.4756 12.8257 14.9574 13.8508C14.9349 13.8954 14.9214 13.9439 14.9176 13.9937C14.9139 14.0434 14.9199 14.0934 14.9355 14.1408C14.9511 14.1883 14.9759 14.2321 15.0084 14.27C15.0409 14.3078 15.0806 14.3389 15.1251 14.3614C15.1781 14.3883 15.2367 14.4024 15.2962 14.4024C15.3665 14.4024 15.4354 14.383 15.4954 14.3462C15.5553 14.3094 15.6039 14.2567 15.6357 14.194C16.0873 13.3 16.7892 12.5568 17.656 12.055C17.6998 12.0303 17.7383 11.9971 17.7693 11.9575C17.8002 11.9178 17.8229 11.8723 17.8362 11.8238C17.8494 11.7753 17.8528 11.7246 17.8463 11.6747C17.8398 11.6248 17.8234 11.5767 17.7982 11.5332C17.7729 11.4897 17.7393 11.4516 17.6992 11.4212C17.6591 11.3908 17.6134 11.3687 17.5647 11.3561C17.516 11.3435 17.4653 11.3407 17.4155 11.3479C17.3657 11.355 17.3178 11.372 17.2746 11.3979Z" fill="white"/>
<path d="M37.8804 1.83081H2.1196C1.49264 1.83081 0.983582 2.33995 0.983582 2.96683V5.52386C0.983582 6.15081 1.49272 6.65987 2.1196 6.65987H2.87186V28.826C2.87186 30.0609 3.87491 31.0678 5.11358 31.0678H19.62V32.8953C18.3358 33.0815 17.3479 34.1834 17.3479 35.517C17.3479 36.9798 18.5371 38.169 19.9999 38.169C21.4627 38.169 22.6519 36.9798 22.6519 35.517C22.6519 34.1834 21.664 33.0815 20.3798 32.8953V31.0678H34.8862C36.1249 31.0678 37.128 30.0609 37.128 28.826V6.65995H37.8802C38.5071 6.65995 39.0162 6.15081 39.0162 5.52394V2.9669C39.0164 2.33995 38.5072 1.83081 37.8804 1.83081ZM21.8921 35.5171C21.8921 36.5582 21.0448 37.4092 20 37.4092C18.9551 37.4092 18.1079 36.5581 18.1079 35.5171C18.1079 34.4722 18.9551 33.625 20 33.625C21.0448 33.6249 21.8921 34.4722 21.8921 35.5171ZM36.3682 28.8261C36.3682 29.643 35.7033 30.3079 34.8864 30.3079H5.11358C4.29671 30.3079 3.63178 29.643 3.63178 28.8261V6.65995H36.3682V28.8261ZM36.7367 4.4905H32.4927C32.392 4.49021 32.2956 4.45009 32.2244 4.3789C32.1532 4.30772 32.1131 4.21125 32.1128 4.11058C32.1131 4.0099 32.1532 3.91344 32.2244 3.84225C32.2956 3.77106 32.392 3.73094 32.4927 3.73065H36.7367C36.7866 3.73048 36.8361 3.74019 36.8823 3.75922C36.9285 3.77825 36.9704 3.80623 37.0057 3.84154C37.0411 3.87685 37.069 3.91881 37.0881 3.96498C37.1071 4.01115 37.1168 4.06064 37.1166 4.11058C37.1168 4.16052 37.1071 4.21 37.0881 4.25617C37.069 4.30235 37.0411 4.3443 37.0057 4.37961C36.9704 4.41493 36.9285 4.44291 36.8823 4.46194C36.8361 4.48097 36.7866 4.49067 36.7367 4.4905Z" fill="white"/>
<path d="M23.8907 22.1124C25.893 20.7978 27.0861 18.5826 27.0861 16.1928C27.0861 12.2831 23.9059 9.10677 20.0001 9.10677C16.0942 9.10677 12.9141 12.2831 12.9141 16.1928C12.9141 18.5826 14.1071 20.7978 16.1094 22.1124C16.4628 22.3479 16.6869 22.7165 16.7287 23.1154C16.231 23.2257 15.8587 23.6664 15.8587 24.1945V25.6535C15.8587 26.2652 16.3564 26.7591 16.9643 26.7591H17.1466L17.4582 27.538C17.7317 28.2143 18.3739 28.6513 19.1033 28.6513H20.8967C21.6262 28.6513 22.2721 28.2143 22.5419 27.538L22.8534 26.7591H23.0358C23.6437 26.7591 24.1414 26.2652 24.1414 25.6535V24.1945C24.1414 23.6664 23.7691 23.2257 23.2713 23.1154C23.3131 22.7165 23.5373 22.348 23.8907 22.1124ZM21.8351 27.2569C21.6794 27.6445 21.3146 27.8915 20.8966 27.8915H19.1033C18.6891 27.8915 18.3206 27.6445 18.1648 27.2569L17.9862 26.8048H22.0174L21.8351 27.2569ZM22.5115 23.0889H17.4886C17.443 22.443 17.0896 21.8503 16.5273 21.4779C14.7416 20.3038 13.6739 18.3281 13.6739 16.1928C13.6739 12.7049 16.5121 9.86661 20.0001 9.86661C23.488 9.86661 26.3262 12.7048 26.3262 16.1928C26.3262 18.3281 25.2585 20.3038 23.4728 21.4779C22.9104 21.8503 22.557 22.4429 22.5115 23.0889ZM24.6665 9.74021C24.7671 9.7454 24.8657 9.7104 24.9406 9.6429C25.0155 9.57541 25.0605 9.48095 25.0657 9.38029L25.0998 8.71615C25.1049 8.61553 25.0699 8.51701 25.0024 8.44222C24.9349 8.36742 24.8405 8.32247 24.7399 8.31724C24.5336 8.30146 24.3514 8.46747 24.3407 8.67716L24.3066 9.3413C24.3014 9.44191 24.3365 9.54044 24.404 9.61523C24.4715 9.69002 24.5659 9.73498 24.6665 9.74021ZM27.2545 10.7428L27.748 10.297C27.7864 10.2639 27.8177 10.2235 27.8402 10.1782C27.8627 10.1329 27.876 10.0835 27.8791 10.0329C27.8823 9.9824 27.8753 9.93175 27.8586 9.88396C27.8419 9.83616 27.8159 9.79218 27.7819 9.7546C27.748 9.71702 27.7069 9.6866 27.6611 9.66512C27.6152 9.64364 27.5655 9.63154 27.515 9.62953C27.4644 9.62752 27.4139 9.63564 27.3665 9.65341C27.3191 9.67119 27.2757 9.69825 27.2389 9.73302L26.7454 10.1788C26.707 10.2119 26.6757 10.2523 26.6532 10.2976C26.6307 10.343 26.6174 10.3923 26.6143 10.4429C26.6111 10.4934 26.6181 10.5441 26.6348 10.5919C26.6515 10.6396 26.6776 10.6836 26.7115 10.7212C26.7454 10.7588 26.7865 10.7892 26.8324 10.8107C26.8782 10.8322 26.9279 10.8443 26.9785 10.8463C27.029 10.8483 27.0795 10.8402 27.1269 10.8224C27.1743 10.8046 27.2177 10.7776 27.2545 10.7428ZM27.4787 12.855C27.4761 12.9048 27.4834 12.9547 27.5001 13.0017C27.5169 13.0488 27.5427 13.092 27.5762 13.1291C27.6096 13.1661 27.6501 13.1962 27.6952 13.2176C27.7402 13.239 27.7891 13.2514 27.839 13.2539L28.5031 13.2879C28.6037 13.293 28.7022 13.2579 28.777 13.1904C28.8518 13.123 28.8968 13.0285 28.902 12.9279C28.9046 12.8781 28.8973 12.8282 28.8805 12.7812C28.8638 12.7342 28.838 12.6909 28.8045 12.6538C28.7711 12.6168 28.7306 12.5867 28.6855 12.5653C28.6404 12.5439 28.5916 12.5316 28.5417 12.529L27.8776 12.4951C27.8277 12.4925 27.7779 12.4997 27.7309 12.5164C27.6838 12.5331 27.6406 12.5589 27.6035 12.5923C27.5665 12.6258 27.5364 12.6662 27.5149 12.7112C27.4935 12.7563 27.4812 12.8051 27.4787 12.855ZM15.3133 9.74075C15.3648 9.74079 15.4159 9.73033 15.4633 9.71002C15.5107 9.6897 15.5534 9.65996 15.589 9.62259C15.6245 9.58522 15.6521 9.54102 15.67 9.49266C15.6879 9.4443 15.6958 9.3928 15.6932 9.3413L15.6591 8.67716C15.6483 8.46755 15.4646 8.30115 15.2598 8.31724C15.1592 8.32247 15.0648 8.36742 14.9973 8.44222C14.9298 8.51701 14.8948 8.61553 14.8999 8.71615L14.9341 9.38029C14.9391 9.4775 14.9812 9.56909 15.0518 9.63616C15.1223 9.70323 15.2159 9.74066 15.3133 9.74075ZM12.7452 10.7428C12.7823 10.7762 12.8255 10.802 12.8725 10.8188C12.9195 10.8355 12.9694 10.8428 13.0192 10.8402C13.069 10.8377 13.1178 10.8253 13.1629 10.8039C13.208 10.7825 13.2484 10.7524 13.2818 10.7154C13.3152 10.6783 13.341 10.6351 13.3578 10.5881C13.3745 10.5411 13.3818 10.4912 13.3792 10.4414C13.3767 10.3916 13.3643 10.3427 13.3429 10.2977C13.3215 10.2526 13.2914 10.2122 13.2544 10.1788L12.7605 9.73302C12.7235 9.69954 12.6803 9.6737 12.6333 9.65695C12.5863 9.64021 12.5364 9.6329 12.4866 9.63545C12.4367 9.638 12.3879 9.65035 12.3428 9.6718C12.2978 9.69324 12.2574 9.72337 12.224 9.76044C12.1905 9.79747 12.1647 9.84072 12.148 9.88773C12.1313 9.93474 12.124 9.98458 12.1265 10.0344C12.1291 10.0842 12.1414 10.1331 12.1628 10.1781C12.1843 10.2232 12.2144 10.2636 12.2514 10.297L12.7452 10.7428ZM11.477 13.2883C11.4837 13.2883 11.49 13.2882 11.4967 13.2878L12.1608 13.2538C12.2107 13.2513 12.2596 13.239 12.3047 13.2175C12.3498 13.1961 12.3902 13.166 12.4237 13.129C12.4571 13.092 12.4829 13.0487 12.4997 13.0016C12.5164 12.9546 12.5237 12.9047 12.5212 12.8549C12.5104 12.6453 12.3305 12.4839 12.1223 12.495L11.4581 12.529C11.3596 12.5346 11.2671 12.5783 11.2003 12.6509C11.1334 12.7234 11.0974 12.8192 11.0998 12.9178C11.1023 13.0164 11.143 13.1103 11.2134 13.1794C11.2838 13.2486 11.3783 13.2876 11.477 13.2883Z" fill="white"/>
</svg>
