<svg width="40" height="40" viewBox="0 0 40 40" fill="none" xmlns="http://www.w3.org/2000/svg">
<path d="M30.9375 3.125C30.5063 3.125 30.1562 3.475 30.1562 3.90625C30.1562 4.3375 30.5063 4.6875 30.9375 4.6875C31.3687 4.6875 31.7188 4.3375 31.7188 3.90625C31.7188 3.475 31.3687 3.125 30.9375 3.125ZM30.9375 35.3125C30.5063 35.3125 30.1562 35.6625 30.1562 36.0938C30.1562 36.525 30.5063 36.875 30.9375 36.875C31.3687 36.875 31.7188 36.525 31.7188 36.0938C31.7188 35.6625 31.3687 35.3125 30.9375 35.3125ZM20 22.8125C19.5688 22.8125 19.2188 23.1625 19.2188 23.5938C19.2188 24.025 19.5688 24.375 20 24.375C20.4312 24.375 20.7812 24.025 20.7812 23.5938C20.7812 23.1625 20.4312 22.8125 20 22.8125ZM20 27.5C19.5688 27.5 19.2188 27.85 19.2188 28.2812C19.2188 28.7125 19.5688 29.0625 20 29.0625C20.4312 29.0625 20.7812 28.7125 20.7812 28.2812C20.7812 27.85 20.4312 27.5 20 27.5ZM20 32.1875C19.5688 32.1875 19.2188 32.5375 19.2188 32.9688C19.2188 33.4 19.5688 33.75 20 33.75C20.4312 33.75 20.7812 33.4 20.7812 32.9688C20.7812 32.5375 20.4312 32.1875 20 32.1875ZM9.0625 3.125C8.63125 3.125 8.28125 3.475 8.28125 3.90625C8.28125 4.3375 8.63125 4.6875 9.0625 4.6875C9.49375 4.6875 9.84375 4.3375 9.84375 3.90625C9.84375 3.475 9.49375 3.125 9.0625 3.125ZM9.0625 35.3125C8.63125 35.3125 8.28125 35.6625 8.28125 36.0938C8.28125 36.525 8.63125 36.875 9.0625 36.875C9.49375 36.875 9.84375 36.525 9.84375 36.0938C9.84375 35.6625 9.49375 35.3125 9.0625 35.3125Z" fill="white"/>
<path d="M32.5 0H7.5C6.20766 0 5.15625 1.05141 5.15625 2.34375V37.6562C5.15625 38.9486 6.20766 40 7.5 40H32.5C33.7923 40 34.8438 38.9486 34.8438 37.6562V2.34375C34.8438 1.05141 33.7923 0 32.5 0ZM33.2812 37.6562C33.2812 38.087 32.9308 38.4375 32.5 38.4375H7.5C7.06922 38.4375 6.71875 38.087 6.71875 37.6562V2.34375C6.71875 1.91297 7.06922 1.5625 7.5 1.5625H32.5C32.9308 1.5625 33.2812 1.91297 33.2812 2.34375V37.6562Z" fill="white"/>
<path d="M27.8125 6.71875H12.1875C10.8952 6.71875 9.84375 7.77016 9.84375 9.0625V16.875C9.84375 18.1673 10.8952 19.2188 12.1875 19.2188H27.8125C29.1045 19.2188 30.1558 18.1678 30.1562 16.8759V9.0625C30.1562 7.77016 29.1048 6.71875 27.8125 6.71875ZM12.1875 17.6563C11.7567 17.6563 11.4062 17.3058 11.4062 16.875V15.6362L15.3125 11.7299L21.2388 17.6563H12.1875ZM27.8125 17.6562H23.4487L21.8862 16.0938L24.6875 13.2923L28.5434 17.1483C28.4323 17.4445 28.147 17.6562 27.8125 17.6562ZM28.5938 14.9888L25.2399 11.635C24.9348 11.3299 24.4402 11.3299 24.135 11.635L20.7812 14.9888L15.8649 10.0725C15.5598 9.76742 15.0652 9.76742 14.76 10.0725L11.4062 13.4263V9.0625C11.4062 8.63172 11.7567 8.28125 12.1875 8.28125H27.8125C28.2433 8.28125 28.5938 8.63172 28.5938 9.0625V14.9888ZM16.875 22.8125H10.625C10.1936 22.8125 9.84375 23.1623 9.84375 23.5938C9.84375 24.0252 10.1936 24.375 10.625 24.375H16.875C17.3064 24.375 17.6562 24.0252 17.6562 23.5938C17.6562 23.1623 17.3064 22.8125 16.875 22.8125ZM16.875 27.5H10.625C10.1936 27.5 9.84375 27.8498 9.84375 28.2812C9.84375 28.7127 10.1936 29.0625 10.625 29.0625H16.875C17.3064 29.0625 17.6562 28.7127 17.6562 28.2812C17.6562 27.8498 17.3064 27.5 16.875 27.5ZM16.875 32.1875H10.625C10.1936 32.1875 9.84375 32.5373 9.84375 32.9688C9.84375 33.4002 10.1936 33.75 10.625 33.75H16.875C17.3064 33.75 17.6562 33.4002 17.6562 32.9688C17.6562 32.5373 17.3064 32.1875 16.875 32.1875ZM29.375 22.8125H23.125C22.6936 22.8125 22.3438 23.1623 22.3438 23.5938C22.3438 24.0252 22.6936 24.375 23.125 24.375H29.375C29.8064 24.375 30.1562 24.0252 30.1562 23.5938C30.1562 23.1623 29.8064 22.8125 29.375 22.8125ZM29.375 27.5H23.125C22.6936 27.5 22.3438 27.8498 22.3438 28.2812C22.3438 28.7127 22.6936 29.0625 23.125 29.0625H29.375C29.8064 29.0625 30.1562 28.7127 30.1562 28.2812C30.1562 27.8498 29.8064 27.5 29.375 27.5ZM29.375 32.1875H23.125C22.6936 32.1875 22.3438 32.5373 22.3438 32.9688C22.3438 33.4002 22.6936 33.75 23.125 33.75H29.375C29.8064 33.75 30.1562 33.4002 30.1562 32.9688C30.1562 32.5373 29.8064 32.1875 29.375 32.1875Z" fill="white"/>
</svg>
