<svg width="88" height="88" viewBox="0 0 88 88" fill="none" xmlns="http://www.w3.org/2000/svg">
<rect x="0.5" y="0.5" width="87" height="87" rx="9.5" fill="url(#paint0_linear_7_5270)"/>
<rect x="0.5" y="0.5" width="87" height="87" rx="9.5" fill="url(#paint1_linear_7_5270)" fill-opacity="0.2"/>
<rect x="0.5" y="0.5" width="87" height="87" rx="9.5" stroke="url(#paint2_linear_7_5270)"/>
<path d="M43.6374 60.6598C43.9041 60.6598 44.3209 60.5596 44.7377 60.343C54.2238 55.3748 57.2748 52.8907 57.2748 46.9057V34.3353C57.2748 32.6181 56.5411 32.0679 55.1408 31.4844C53.1902 30.6842 46.9551 28.4169 45.0211 27.75C44.571 27.6 44.1042 27.5166 43.6374 27.5166C43.1706 27.5166 42.7038 27.6166 42.2703 27.75C40.3197 28.3835 34.0845 30.7009 32.134 31.4844C30.7502 32.0513 30 32.6181 30 34.3353V46.9057C30 52.8907 33.2176 55.0914 42.537 60.343C42.9705 60.5764 43.3706 60.6598 43.6374 60.6598ZM36.1185 44.6383C36.1185 44.4382 36.2185 44.1881 36.4019 43.9715L45.8213 32.1513C46.5382 31.251 47.7386 31.8512 47.3052 32.9682L44.2042 41.304H50.0226C50.4727 41.304 50.8061 41.6207 50.8061 42.071C50.8061 42.271 50.7061 42.5211 50.5228 42.7378L41.1033 54.5579C40.3864 55.4582 39.2027 54.858 39.6195 53.7577L42.7371 45.4052H36.902C36.4686 45.4052 36.1185 45.0884 36.1185 44.6383Z" fill="#FEFEFE"/>
<defs>
<linearGradient id="paint0_linear_7_5270" x1="44" y1="0" x2="44" y2="88" gradientUnits="userSpaceOnUse">
<stop stop-color="#242424"/>
<stop offset="1" stop-color="#242424" stop-opacity="0"/>
</linearGradient>
<linearGradient id="paint1_linear_7_5270" x1="204" y1="-87.5" x2="8.27014e-06" y2="88" gradientUnits="userSpaceOnUse">
<stop offset="0.224072" stop-color="#9EFF00"/>
<stop offset="0.687143" stop-color="#9EFF00" stop-opacity="0"/>
</linearGradient>
<linearGradient id="paint2_linear_7_5270" x1="44" y1="0" x2="44" y2="88" gradientUnits="userSpaceOnUse">
<stop stop-color="#2E2E2E"/>
<stop offset="1" stop-color="#2E2E2E" stop-opacity="0"/>
</linearGradient>
</defs>
</svg>
