<svg width="512" height="512" viewBox="0 0 512 512" fill="none" xmlns="http://www.w3.org/2000/svg">
<path d="M84.3125 114.909C141.195 41.6746 246.667 28.4264 319.892 85.3184C391.007 140.572 405.545 241.661 354.214 314.525L453.817 414.145L453.873 414.2L453.927 414.256C464.691 425.401 464.691 443.072 453.928 454.218C442.893 465.645 424.686 465.962 413.261 454.926L413.204 454.871L413.148 454.815L313.552 355.203C285.345 375.095 251.622 385.831 216.979 385.831L216.979 385.832L216.977 385.831L216.975 385.832V385.831C180.23 385.849 144.511 373.811 115.286 351.588L113.899 350.521C40.6759 293.63 27.4303 188.143 84.3125 114.909ZM295.047 139.854C251.929 96.7313 182.024 96.7325 138.907 139.856H138.906L138.292 140.471C95.8589 183.247 95.7853 252.122 137.881 294.99L138.884 295.999L138.908 296.023C182.026 339.147 251.931 339.146 295.048 296.021C338.165 252.897 338.165 182.979 295.047 139.854Z" fill="#8D6A9F" stroke="#8D6A9F" stroke-width="18"/>
</svg>
