<svg width="512" height="512" viewBox="0 0 512 512" fill="none" xmlns="http://www.w3.org/2000/svg">
<g clip-path="url(#clip0_61_2)">
<path d="M206.064 411.951C251.827 411.952 296.282 396.683 332.386 368.563L468.594 504.771C478.769 514.598 494.983 514.316 504.81 504.141C514.396 494.215 514.396 478.48 504.81 468.555L368.602 332.347C438.381 242.522 422.132 113.138 332.307 43.3582C242.482 -26.4212 113.099 -10.172 43.3194 79.6529C-26.46 169.478 -10.2108 298.862 79.6141 368.642C115.777 396.735 160.271 411.974 206.064 411.951ZM96.6221 96.5822C157.066 36.1372 255.065 36.1361 315.51 96.5799C375.955 157.024 375.956 255.023 315.512 315.468C255.068 375.913 157.069 375.914 96.6243 315.47L96.6221 315.468C36.1782 255.464 35.8221 157.823 95.8255 97.3787L96.6221 96.5822Z" fill="#8D6A9F"/>
</g>
<defs>
<clipPath id="clip0_61_2">
<rect width="512" height="512" fill="white"/>
</clipPath>
</defs>
</svg>
