<svg width="35" height="35" viewBox="0 0 35 35" fill="none" xmlns="http://www.w3.org/2000/svg">
<path d="M32.6983 12.2755H2.30166C1.0325 12.2755 0 13.3081 0 14.5772V20.4227C0 21.6918 1.03257 22.7243 2.30166 22.7243H32.6983C33.9675 22.7243 35 21.6917 35 20.4227V14.5772C35 13.3081 33.9674 12.2755 32.6983 12.2755ZM24.5511 21.6283H2.30166C1.63687 21.6283 1.09601 21.0874 1.09601 20.4227V14.5772C1.09601 13.9124 1.63687 13.3715 2.30166 13.3715H24.5511V21.6283ZM33.904 20.4227C33.904 21.0875 33.3631 21.6284 32.6983 21.6284H25.6472V13.3716H32.6983C33.3631 13.3716 33.904 13.9124 33.904 14.5772V20.4227Z" fill="white"/>
<path d="M32.5012 19.4506L31.1588 18.1082C31.3777 17.7488 31.4932 17.3361 31.4927 16.9153C31.4927 15.6461 30.4601 14.6136 29.191 14.6136C27.9218 14.6136 26.8893 15.6462 26.8893 16.9153C26.8893 18.1844 27.9219 19.217 29.191 19.217C29.6118 19.2175 30.0245 19.1019 30.3839 18.8831L31.7263 20.2255C31.8333 20.3325 31.9736 20.386 32.1138 20.386C32.254 20.386 32.3942 20.3326 32.5012 20.2255C32.5521 20.1747 32.5925 20.1143 32.62 20.0478C32.6476 19.9813 32.6617 19.91 32.6617 19.8381C32.6617 19.7661 32.6476 19.6949 32.62 19.6284C32.5925 19.5619 32.5521 19.5015 32.5012 19.4506ZM29.191 18.121C28.5262 18.121 27.9853 17.5802 27.9853 16.9154C27.9853 16.2506 28.5262 15.7097 29.191 15.7097C29.8558 15.7097 30.3966 16.2506 30.3966 16.9154C30.3966 17.5802 29.8558 18.121 29.191 18.121ZM2.88617 14.6137C2.74082 14.6137 2.60143 14.6715 2.49865 14.7742C2.39587 14.877 2.33813 15.0164 2.33813 15.1618V19.8381C2.33813 19.9835 2.39587 20.1229 2.49865 20.2257C2.60143 20.3284 2.74082 20.3862 2.88617 20.3862C3.03152 20.3862 3.17092 20.3284 3.27369 20.2257C3.37647 20.1229 3.43421 19.9835 3.43421 19.8381V15.1618C3.43421 15.0164 3.37647 14.877 3.27369 14.7742C3.17092 14.6715 3.03152 14.6137 2.88617 14.6137Z" fill="white"/>
</svg>
