<svg width="35" height="35" viewBox="0 0 35 35" fill="none" xmlns="http://www.w3.org/2000/svg">
<g clip-path="url(#clip0_102_26)">
<path d="M27.6952 23.3379C27.619 23.2617 27.5286 23.2013 27.4291 23.1601C27.3295 23.1188 27.2229 23.0976 27.1151 23.0976C27.0074 23.0976 26.9007 23.1188 26.8012 23.1601C26.7017 23.2013 26.6113 23.2617 26.5351 23.3379L26.4507 23.4224L24.9012 21.873C26.8311 19.2201 27.7507 15.9655 27.4945 12.695C27.2384 9.42443 25.8232 6.35272 23.5039 4.03267C18.1356 -1.3356 9.40081 -1.3356 4.03254 4.03267C-1.33572 9.40093 -1.33572 18.1358 4.03254 23.504C6.35447 25.8197 9.42561 27.2322 12.6949 27.4881C15.9642 27.744 19.2177 26.8265 21.8717 24.9003L23.4222 26.4508L23.3378 26.5352C23.2616 26.6114 23.2012 26.7018 23.1599 26.8013C23.1187 26.9009 23.0975 27.0075 23.0975 27.1153C23.0975 27.223 23.1187 27.3297 23.1599 27.4292C23.2012 27.5287 23.2616 27.6192 23.3378 27.6953L29.7431 34.1006C30.3226 34.6702 31.1037 34.9878 31.9162 34.9843C32.7288 34.9808 33.5071 34.6564 34.0817 34.0818C34.6563 33.5072 34.9806 32.7289 34.984 31.9163C34.9875 31.1037 34.6698 30.3227 34.1001 29.7432L27.6952 23.3379ZM5.1926 22.3439C0.464048 17.6153 0.464048 9.92135 5.1926 5.19252C9.92116 0.463691 17.6153 0.463965 22.344 5.19252C24.6184 7.46693 25.8961 10.5517 25.8961 13.7682C25.8961 16.9847 24.6184 20.0695 22.344 22.3439C20.0696 24.6183 16.9848 25.896 13.7683 25.896C10.5518 25.896 7.46701 24.6183 5.1926 22.3439ZM23.1427 23.851C23.2645 23.7377 23.3853 23.6226 23.5039 23.504C23.6225 23.3854 23.7375 23.2648 23.851 23.1429L25.2905 24.5824L24.5823 25.2907L23.1427 23.851ZM27.1152 25.078L27.8463 25.8094L25.8092 27.8465L25.0781 27.1154L27.1152 25.078ZM32.9401 32.9402C32.6697 33.2099 32.3034 33.3613 31.9215 33.3613C31.5397 33.3613 31.1734 33.2099 30.903 32.9402L26.9693 29.0065L29.0064 26.9694L32.9401 30.9031C33.2098 31.1735 33.3612 31.5398 33.3612 31.9217C33.3612 32.3035 33.2098 32.6698 32.9401 32.9402ZM21.9147 12.1598C21.9402 12.3758 21.8787 12.5932 21.7439 12.7639C21.6091 12.9347 21.412 13.0449 21.1959 13.0703C21.1638 13.0741 21.1314 13.076 21.099 13.076C20.8982 13.0757 20.7045 13.0018 20.5546 12.8682C20.4047 12.7347 20.309 12.5508 20.2855 12.3514L20.1254 10.991L15.8381 16.0633C15.7202 16.2027 15.5593 16.2988 15.3807 16.3365C15.202 16.3741 15.016 16.3511 14.8519 16.271L11.0481 14.4156L7.0716 19.2797C6.93385 19.4482 6.73483 19.555 6.51832 19.5768C6.3018 19.5985 6.08553 19.5333 5.91708 19.3955C5.74862 19.2578 5.64178 19.0588 5.62007 18.8423C5.59835 18.6258 5.66353 18.4095 5.80127 18.241L10.1888 12.8742C10.3058 12.7311 10.4677 12.6317 10.6482 12.5921C10.8288 12.5525 11.0174 12.5751 11.1835 12.6561L14.9971 14.5163L18.9725 9.81314C18.9754 9.80965 18.9787 9.80664 18.9817 9.80322L17.3069 10.0002C17.1994 10.0139 17.0902 10.0061 16.9857 9.97738C16.8812 9.94862 16.7835 9.89943 16.6981 9.83267C16.6127 9.7659 16.5414 9.68287 16.4883 9.58839C16.4352 9.4939 16.4013 9.38983 16.3887 9.28219C16.3761 9.17454 16.3849 9.06546 16.4146 8.96124C16.4444 8.85702 16.4945 8.75973 16.5621 8.67499C16.6297 8.59025 16.7134 8.51975 16.8084 8.46755C16.9033 8.41536 17.0077 8.3825 17.1155 8.37089L20.595 7.96148C20.8111 7.93606 21.0284 7.99751 21.1991 8.13231C21.3699 8.26711 21.4801 8.46422 21.5055 8.68028L21.9147 12.1598Z" fill="white"/>
</g>
<defs>
<clipPath id="clip0_102_26">
<rect width="35" height="35" fill="white"/>
</clipPath>
</defs>
</svg>
