<svg width="35" height="35" viewBox="0 0 35 35" fill="none" xmlns="http://www.w3.org/2000/svg">
<path d="M17.3614 20.0484C17.3614 19.7932 17.3104 19.5343 17.2192 19.3046C16.8073 18.2838 15.6406 17.788 14.6234 18.1963L14.4557 18.2619L13.4531 15.7645C13.3437 15.4948 13.1104 15.2906 12.8297 15.2213C12.5489 15.152 12.2463 15.2213 12.0057 15.4255L8.38903 18.9364L5.42132 20.125C4.1234 20.65 3.23017 21.8859 3.14997 23.2823C3.13903 23.4828 3.29215 23.6578 3.49267 23.6687C3.54058 23.6717 3.58861 23.6652 3.634 23.6496C3.67939 23.634 3.72125 23.6096 3.75716 23.5777C3.79308 23.5459 3.82234 23.5072 3.84327 23.464C3.8642 23.4208 3.87639 23.3739 3.87913 23.326C3.94476 22.2104 4.65934 21.2224 5.69476 20.8031L8.38903 19.7239L8.9833 21.2078L10.551 25.1125L7.85309 26.1953C6.97445 26.5453 5.97913 26.4468 5.18799 25.9328C5.02028 25.8234 4.79424 25.8708 4.68486 26.0385C4.57549 26.2062 4.62288 26.4323 4.79059 26.5416C5.58068 27.0573 6.54029 27.2455 7.46663 27.0666L9.88017 30.4645C10.2448 30.9786 10.8281 31.2666 11.4297 31.2666C11.6666 31.2666 11.9073 31.2229 12.1406 31.1281L12.7677 30.8765C13.0265 30.7708 13.2234 30.5593 13.3 30.2895C13.3802 30.0198 13.3291 29.7354 13.1687 29.5057L10.5948 25.8781L11.0942 25.6776L16.1328 25.714H16.1547C16.4463 25.6958 16.7125 25.539 16.8692 25.2948C17.026 25.0468 17.0552 24.7406 16.9458 24.4708L15.9432 21.9734L16.1109 21.9041C16.4822 21.7566 16.8005 21.5007 17.0242 21.1697C17.2479 20.8387 17.3667 20.4479 17.3651 20.0484H17.3614ZM9.89476 26.1588L12.5708 29.9286C12.6145 29.9906 12.6073 30.0526 12.5963 30.0817C12.589 30.1145 12.5599 30.1692 12.4906 30.1984L11.8635 30.45C11.3567 30.6505 10.7843 30.4828 10.4708 30.0416L8.1958 26.8406L9.89111 26.1588H9.89476ZM16.2494 24.9046C16.2312 24.9338 16.1911 24.9812 16.1182 24.9885L11.2692 24.952L9.64684 20.9161L9.01611 19.3411L12.4906 15.9687C12.5526 15.9177 12.6182 15.9213 12.651 15.9323C12.6838 15.9395 12.7458 15.9651 12.775 16.0416L16.2677 24.7479C16.2968 24.8208 16.2677 24.8828 16.2531 24.9119L16.2494 24.9046ZM14.7218 18.9401L14.8895 18.8744C15.5385 18.6156 16.2786 18.9328 16.5411 19.5817C16.5994 19.7239 16.6323 19.888 16.6323 20.0484C16.6323 20.5625 16.3114 21.0364 15.8375 21.226L15.6698 21.2953L14.7255 18.9401H14.7218ZM4.31663 25.0468C4.42601 25.2145 4.37861 25.4406 4.20726 25.55C4.14528 25.5901 4.07965 25.6083 4.01038 25.6083C3.89007 25.6083 3.7734 25.55 3.70413 25.4406C3.59111 25.2619 3.48903 25.0651 3.40153 24.8536C3.40153 24.85 3.38694 24.8135 3.3833 24.8099C3.31403 24.6239 3.40517 24.4015 3.59111 24.3323C3.77705 24.2593 3.98122 24.3359 4.05413 24.5218C4.05413 24.5255 4.06872 24.5583 4.06872 24.5619C4.14528 24.7479 4.22549 24.9046 4.31663 25.0468ZM18.9 18.9948C18.7541 18.9948 18.6192 18.9073 18.5609 18.7651C18.5428 18.7206 18.5338 18.6729 18.5343 18.6249C18.5348 18.5769 18.5449 18.5295 18.5639 18.4854C18.5829 18.4413 18.6104 18.4014 18.645 18.3681C18.6795 18.3347 18.7203 18.3085 18.7651 18.2911L20.2817 17.6823C20.3262 17.664 20.3739 17.6548 20.4219 17.6552C20.47 17.6556 20.5175 17.6656 20.5617 17.6846C20.6058 17.7037 20.6457 17.7313 20.679 17.7659C20.7124 17.8006 20.7384 17.8416 20.7557 17.8864C20.7738 17.9309 20.7828 17.9785 20.7823 18.0266C20.7818 18.0746 20.7717 18.122 20.7527 18.1661C20.7337 18.2102 20.7062 18.2501 20.6716 18.2834C20.6371 18.3168 20.5963 18.3429 20.5515 18.3604L19.0349 18.9692C18.9911 18.9875 18.9437 18.9948 18.9 18.9948ZM18.2838 15.327L17.4343 16.7234C17.4019 16.7766 17.3564 16.8206 17.3022 16.8513C17.2479 16.8819 17.1867 16.8981 17.1244 16.8984C17.0574 16.8983 16.9917 16.8794 16.9349 16.8437C16.8941 16.8189 16.8586 16.7863 16.8305 16.7477C16.8023 16.7091 16.7821 16.6654 16.7709 16.619C16.7597 16.5726 16.7578 16.5244 16.7653 16.4772C16.7728 16.4301 16.7895 16.3849 16.8145 16.3442L17.664 14.9479C17.7698 14.7765 17.9922 14.7218 18.1635 14.8276C18.3349 14.9333 18.3896 15.1557 18.2838 15.327ZM20.5515 22.1484L18.9729 21.7255C18.7797 21.6744 18.663 21.4739 18.714 21.2807C18.7651 21.0875 18.9656 20.9671 19.1588 21.0218L20.7375 21.4448C20.9307 21.4958 21.0474 21.6963 20.9963 21.8895C20.9526 22.0536 20.8067 22.1593 20.6427 22.1593C20.6135 22.1593 20.5807 22.1557 20.5479 22.1484H20.5515ZM25.9437 22.2395C22.9286 22.2395 20.475 24.6932 20.475 27.7083C20.475 30.7234 22.9286 33.177 25.9437 33.177C28.9588 33.177 31.4125 30.7234 31.4125 27.7083C31.4125 24.6932 28.9588 22.2395 25.9437 22.2395ZM25.9437 32.4479C23.3297 32.4479 21.2041 30.3224 21.2041 27.7083C21.2041 25.0942 23.3297 22.9687 25.9437 22.9687C28.5578 22.9687 30.6833 25.0942 30.6833 27.7083C30.6833 30.3224 28.5578 32.4479 25.9437 32.4479ZM27.5698 24.9885H24.3177C23.7161 24.9885 23.2239 25.4807 23.2239 26.0823V29.3343C23.2239 29.9359 23.7161 30.4281 24.3177 30.4281H27.5698C28.1713 30.4281 28.6635 29.9359 28.6635 29.3343V26.0823C28.6635 25.4807 28.1713 24.9885 27.5698 24.9885ZM27.9343 29.3343C27.9343 29.5349 27.7703 29.6989 27.5698 29.6989H24.3177C24.1172 29.6989 23.9531 29.5349 23.9531 29.3343V26.0823C23.9531 25.8817 24.1172 25.7177 24.3177 25.7177H27.5698C27.7703 25.7177 27.9343 25.8817 27.9343 26.0823V29.3343ZM25.9437 26.5599C25.3093 26.5599 24.7953 27.0776 24.7953 27.7083C24.7953 28.339 25.3093 28.8567 25.9437 28.8567C26.5781 28.8567 27.0922 28.339 27.0922 27.7083C27.0922 27.0776 26.5781 26.5599 25.9437 26.5599ZM25.9437 28.1276C25.7104 28.1276 25.5244 27.938 25.5244 27.7083C25.5244 27.4786 25.714 27.289 25.9437 27.289C26.1734 27.289 26.363 27.4786 26.363 27.7083C26.363 27.938 26.1734 28.1276 25.9437 28.1276ZM26.5343 19.0421C29.5494 19.0421 32.0031 16.5885 32.0031 13.5734C32.0031 10.5583 29.5494 8.10465 26.5343 8.10465C23.5192 8.10465 21.0656 10.5583 21.0656 13.5734C21.0656 16.5885 23.5192 19.0421 26.5343 19.0421ZM26.5343 8.83381C29.1484 8.83381 31.2739 10.9593 31.2739 13.5734C31.2739 16.1875 29.1484 18.313 26.5343 18.313C23.9203 18.313 21.7948 16.1875 21.7948 13.5734C21.7948 10.9593 23.9203 8.83381 26.5343 8.83381ZM24.7953 13.0812C24.7953 12.8807 24.9593 12.7166 25.1599 12.7166H25.9765V12.0458C25.9765 11.2255 26.6437 10.5583 27.464 10.5583H27.9125C28.113 10.5583 28.2771 10.7224 28.2771 10.9229C28.2771 11.1234 28.113 11.2875 27.9125 11.2875H27.464C27.0448 11.2875 26.7057 11.6265 26.7057 12.0458V12.7166H27.5187C27.7192 12.7166 27.8833 12.8807 27.8833 13.0812C27.8833 13.2817 27.7192 13.4458 27.5187 13.4458H26.7057V16.2239C26.7057 16.4244 26.5416 16.5885 26.3411 16.5885C26.1406 16.5885 25.9765 16.4244 25.9765 16.2239V13.4458H25.1599C24.9593 13.4458 24.7953 13.2817 24.7953 13.0812ZM12.9682 1.82288C9.95309 1.82288 7.49944 4.27652 7.49944 7.29163C7.49944 10.3067 9.95309 12.7604 12.9682 12.7604C15.9833 12.7604 18.4369 10.3067 18.4369 7.29163C18.4369 4.27652 15.9833 1.82288 12.9682 1.82288ZM12.9682 12.0312C10.3541 12.0312 8.22861 9.90569 8.22861 7.29163C8.22861 4.67756 10.3541 2.55204 12.9682 2.55204C15.5823 2.55204 17.7078 4.67756 17.7078 7.29163C17.7078 9.90569 15.5823 12.0312 12.9682 12.0312ZM14.6672 6.29996L12.7203 5.17704C12.363 4.96923 11.9328 4.96923 11.5755 5.17704C11.2182 5.38486 11.0031 5.75308 11.0031 6.16871V8.41819C11.0031 8.83017 11.2182 9.20204 11.5755 9.40986C11.7541 9.51194 11.951 9.56663 12.1479 9.56663C12.3448 9.56663 12.5416 9.51558 12.7203 9.4135L14.6672 8.29058C15.0244 8.08277 15.2395 7.71454 15.2395 7.29892C15.2395 6.88329 15.0244 6.51506 14.6672 6.30725V6.29996ZM14.3026 7.64892L12.3557 8.77183C12.1698 8.88121 12.002 8.80829 11.9401 8.77183C11.8781 8.73538 11.7323 8.62965 11.7323 8.41454V6.16506C11.7323 5.94996 11.8781 5.84058 11.9401 5.80777C11.9765 5.7859 12.0531 5.74944 12.1479 5.74944C12.2099 5.74944 12.2791 5.76402 12.352 5.80777L14.2989 6.93069C14.4849 7.04006 14.5067 7.21871 14.5067 7.28798C14.5067 7.35725 14.4849 7.53954 14.2989 7.64527L14.3026 7.64892Z" fill="white"/>
</svg>
