<svg width="35" height="35" viewBox="0 0 35 35" fill="none" xmlns="http://www.w3.org/2000/svg">
<path d="M20.6788 3.87669L22.0856 1.4431C22.1302 1.36147 22.1906 1.28958 22.2633 1.23165C22.3361 1.17373 22.4197 1.13094 22.5092 1.1058C22.5987 1.08066 22.6924 1.07368 22.7846 1.08528C22.8769 1.09687 22.9659 1.1268 23.0464 1.17331C23.1269 1.21982 23.1973 1.28196 23.2535 1.35609C23.3096 1.43021 23.3504 1.51481 23.3734 1.60492C23.3963 1.69503 23.401 1.78882 23.3872 1.88078C23.3734 1.97273 23.3413 2.06099 23.2928 2.14036L21.8899 4.57396C21.8283 4.68019 21.7398 4.76833 21.6334 4.82953C21.5269 4.89073 21.4062 4.92283 21.2834 4.92259C21.1615 4.92344 21.0417 4.89129 20.9366 4.82955C20.776 4.73736 20.6587 4.58519 20.6104 4.4065C20.562 4.22781 20.5866 4.03724 20.6788 3.87669ZM24.0272 8.38581H26.8253C27.0103 8.38581 27.1878 8.45931 27.3186 8.59013C27.4494 8.72095 27.5229 8.89838 27.5229 9.08339C27.5229 9.26839 27.4494 9.44583 27.3186 9.57665C27.1878 9.70747 27.0103 9.78096 26.8253 9.78096H24.0274C23.8424 9.78096 23.6649 9.70747 23.5341 9.57665C23.4033 9.44583 23.3298 9.26839 23.3298 9.08339C23.3298 8.89838 23.4033 8.72095 23.5341 8.59013C23.6649 8.45931 23.8424 8.38581 24.0274 8.38581H24.0272ZM22.787 5.76765L25.2247 4.37278C25.3042 4.3269 25.3921 4.29721 25.4831 4.28539C25.5742 4.27357 25.6667 4.27987 25.7553 4.30392C25.844 4.32797 25.927 4.3693 25.9996 4.42553C26.0722 4.48176 26.1329 4.55178 26.1784 4.63157C26.2238 4.71137 26.2531 4.79936 26.2644 4.89048C26.2757 4.98161 26.269 5.07408 26.2444 5.16258C26.2199 5.25108 26.1782 5.33386 26.1215 5.40616C26.0649 5.47847 25.9946 5.53887 25.9146 5.5839L23.4829 6.97905C23.3224 7.06964 23.1326 7.09311 22.9548 7.04434C22.7771 6.99557 22.6258 6.87852 22.534 6.71869C22.4422 6.55887 22.4173 6.36924 22.4648 6.19114C22.5122 6.01304 22.6281 5.86092 22.7873 5.76792L22.787 5.76765ZM16.7318 5.05487L21.08 12.585L15.5788 13.0345L13.5963 9.59694L16.7318 5.05487ZM16.5977 17.8498C16.5705 17.9572 16.5032 18.0502 16.4097 18.1096C16.2915 18.1658 15.9757 18.2704 15.7955 17.9584L14.2127 15.2183L14.9742 14.7784L16.5554 17.5203C16.5847 17.5694 16.6036 17.624 16.6109 17.6806C16.6182 17.7373 16.6139 17.7949 16.5981 17.8498L16.5977 17.8498ZM11.3871 15.2377C11.2198 15.3318 11.0355 15.3916 10.8448 15.4136C10.6541 15.4355 10.461 15.4192 10.2767 15.3656C9.79488 15.2225 9.38601 14.9006 9.13393 14.4657C8.88185 14.0308 8.80566 13.516 8.92097 13.0267C8.96746 12.8391 9.05064 12.6625 9.16572 12.5072C9.28079 12.3519 9.42548 12.2209 9.59144 12.1218L12.4806 10.4534L14.2767 13.5694L12.9106 14.358L11.3871 15.2377ZM8.89362 10.9146C8.56809 11.1052 8.28364 11.3585 8.05679 11.6599C7.82993 11.9613 7.66518 12.3047 7.5721 12.6702C7.36252 13.5165 7.48963 14.4111 7.92665 15.1655C8.36367 15.9198 9.07646 16.4751 9.91484 16.7143C10.1682 16.7825 10.4295 16.817 10.6919 16.8168C11.1808 16.8188 11.6616 16.6911 12.0851 16.4468L13.0037 15.9158L14.5888 18.6597C14.7453 18.9363 14.9726 19.1663 15.2474 19.3261C15.5223 19.4858 15.8346 19.5694 16.1525 19.5684C16.4683 19.566 16.779 19.489 17.0594 19.3437C17.0714 19.338 17.083 19.3315 17.0942 19.3243C17.5138 19.0799 17.8197 18.6796 17.9453 18.2106C18.0709 17.7416 18.006 17.242 17.7647 16.8207L16.3501 14.3714L22.2912 13.885C22.4085 13.8758 22.5215 13.8371 22.6198 13.7724C22.718 13.7077 22.7983 13.6191 22.853 13.515C22.9078 13.4109 22.9353 13.2946 22.9329 13.177C22.9306 13.0594 22.8985 12.9443 22.8396 12.8425L17.3868 3.40207C17.3276 3.30055 17.2439 3.21545 17.1434 3.15456C17.0429 3.09366 16.9287 3.0589 16.8113 3.05344C16.693 3.04711 16.575 3.07164 16.469 3.12463C16.363 3.17763 16.2726 3.25726 16.2067 3.35573L12.3854 8.89769L8.89362 10.9146ZM29.8503 25.0948C29.8491 25.7627 29.5831 26.4028 29.1104 26.8747C28.6378 27.3466 27.9972 27.6118 27.3293 27.6119H7.66917C7.00142 27.6118 6.36103 27.3466 5.88866 26.8746C5.41628 26.4027 5.15056 25.7625 5.14985 25.0948V24.5348H29.8503V25.0948ZM20.0647 32.5108H14.9354L16.9585 29.0093H18.0436L20.0647 32.5108ZM31.2455 9.50971C31.2455 7.59907 29.8115 5.9365 27.9126 5.64392C27.7296 5.61565 27.5429 5.66123 27.3936 5.77061C27.2442 5.88 27.1444 6.04424 27.1161 6.2272C27.0879 6.41015 27.1335 6.59685 27.2428 6.74621C27.3522 6.89556 27.5165 6.99535 27.6994 7.02362C28.2942 7.1164 28.8368 7.41717 29.2306 7.87241C29.6244 8.32765 29.844 8.90785 29.8503 9.50978V23.1397H5.14985V9.50971C5.15056 8.84201 5.41625 8.20189 5.88856 7.72994C6.36087 7.25798 7.0012 6.99278 7.6689 6.99258H11.6064C11.7917 6.99258 11.9693 6.91898 12.1004 6.78798C12.2314 6.65697 12.305 6.47929 12.305 6.29402C12.305 6.10875 12.2314 5.93106 12.1004 5.80006C11.9693 5.66905 11.7917 5.59545 11.6064 5.59545H7.6689C6.6311 5.59652 5.63611 6.00926 4.90228 6.74309C4.16844 7.47693 3.75571 8.47191 3.75464 9.50971V23.7386C3.75562 23.7555 3.75756 23.7723 3.76045 23.789C3.75756 23.805 3.75562 23.8212 3.75464 23.8374V25.0952C3.75603 26.1329 4.16887 27.1277 4.90264 27.8615C5.6364 28.5953 6.6312 29.0081 7.6689 29.0095H15.3443L13.1217 32.8598C13.06 32.9656 13.0273 33.0859 13.0269 33.2085C13.0266 33.331 13.0586 33.4515 13.1198 33.5577C13.1809 33.6639 13.2691 33.752 13.3752 33.8132C13.4814 33.8745 13.6018 33.9066 13.7244 33.9063H21.2758C21.3982 33.9062 21.5186 33.874 21.6247 33.8128C21.7308 33.7516 21.819 33.6636 21.8803 33.5576C21.9421 33.4519 21.9747 33.3315 21.9747 33.209C21.9747 33.0865 21.9421 32.9662 21.8803 32.8604L19.6518 29.0101H27.3293C28.3673 29.0091 29.3625 28.5965 30.0967 27.8627C30.8309 27.1289 31.244 26.1338 31.2455 25.0959V23.838C31.2455 23.8225 31.2378 23.8051 31.2378 23.7896C31.2378 23.7721 31.2455 23.7566 31.2455 23.7392V9.50971Z" fill="white"/>
</svg>
