<svg width="40" height="40" viewBox="0 0 40 40" fill="none" xmlns="http://www.w3.org/2000/svg">
<g clip-path="url(#clip0_39_2)">
<path d="M30 3.33333C33.6767 3.33333 36.6667 6.32333 36.6667 10V30C36.6667 33.6767 33.6767 36.6667 30 36.6667H10C6.32333 36.6667 3.33333 33.6767 3.33333 30V10C3.33333 6.32333 6.32333 3.33333 10 3.33333H30ZM30 0H10C7.34783 0 4.8043 1.05357 2.92893 2.92893C1.05357 4.8043 0 7.34783 0 10L0 30C0 32.6522 1.05357 35.1957 2.92893 37.0711C4.8043 38.9464 7.34783 40 10 40H30C32.6522 40 35.1957 38.9464 37.0711 37.0711C38.9464 35.1957 40 32.6522 40 30V10C40 7.34783 38.9464 4.8043 37.0711 2.92893C35.1957 1.05357 32.6522 0 30 0Z" fill="white"/>
<path d="M20 30C19.558 30 19.1341 29.8244 18.8215 29.5118C18.5089 29.1993 18.3333 28.7754 18.3333 28.3333V11.6667C18.3333 11.2246 18.5089 10.8007 18.8215 10.4882C19.1341 10.1756 19.558 10 20 10C20.442 10 20.866 10.1756 21.1785 10.4882C21.4911 10.8007 21.6667 11.2246 21.6667 11.6667V28.3333C21.6667 28.7754 21.4911 29.1993 21.1785 29.5118C20.866 29.8244 20.442 30 20 30Z" fill="white"/>
<path d="M10 20C10 19.558 10.1756 19.1341 10.4882 18.8215C10.8007 18.509 11.2246 18.3334 11.6667 18.3334H28.3333C28.7754 18.3334 29.1993 18.509 29.5118 18.8215C29.8244 19.1341 30 19.558 30 20C30 20.4421 29.8244 20.866 29.5118 21.1786C29.1993 21.4911 28.7754 21.6667 28.3333 21.6667H11.6667C11.2246 21.6667 10.8007 21.4911 10.4882 21.1786C10.1756 20.866 10 20.4421 10 20Z" fill="white"/>
</g>
<defs>
<clipPath id="clip0_39_2">
<rect width="40" height="40" fill="white"/>
</clipPath>
</defs>
</svg>
