<svg width="180" height="100" viewBox="0 0 255 94" fill="none" xmlns="http://www.w3.org/2000/svg">
<path d="M76.32 0H17.18C7.69176 0 0 7.69174 0 17.18V76.32C0 85.8082 7.69176 93.5 17.18 93.5H76.32C85.8083 93.5 93.5 85.8082 93.5 76.32V17.18C93.5 7.69174 85.8083 0 76.32 0Z" fill="#8D6A9F"/>
<path d="M26.22 39.63C26.22 39.63 31.81 44.29 37.39 74.55L35.68 78.12L38.63 85.72C38.63 85.72 39.72 88.98 43.6 85.72C43.6 85.72 47.01 86.81 50.58 85.72C50.58 85.72 53.37 89.76 55.24 85.72L58.96 77.5L56.94 73.62C56.94 73.62 62.99 46.31 68.42 39.64C68.42 39.64 74.57 38.43 76.12 41.22C76.12 41.22 92.93 22.87 77.73 12.79C77.73 12.79 74.16 11.7 71.83 14.65C71.83 14.65 63.13 15.73 63.13 9.67C63.13 9.67 58.95 17.44 62.21 20.85C62.21 20.85 54.92 21.16 51.97 19.45C51.97 19.45 53.4 17.4 55.61 17.77C55.26 16.96 52.74 14.61 48.8 14.96C48.8 14.96 49.33 11.85 46.85 10.76C46.85 10.76 44.52 12.78 45.3 14.95C45.3 14.95 39.63 14.24 37.56 18.2C37.56 18.2 40.92 18.36 42.16 19.75C42.16 19.75 34.75 21 31.49 20.69C31.49 20.69 35.41 15.79 33.39 8.34999C33.39 8.34999 32.58 11.85 23.42 14.33C23.42 14.33 20.47 9.52 14.57 15.11C14.57 15.11 3.40001 27.99 18.91 41.8C18.91 41.8 21.7 39.47 26.2 39.63H26.22Z" fill="#231F20"/>
<path d="M28.46 32.69C29.55 32.57 30.84 32.83 31.94 34.14C31.94 34.14 33.63 32.36 34.76 33.25C35.2 33.6 35.33 34.22 35.15 34.76C34.66 36.28 33.37 40.11 32.54 40.84L33.88 49.61C33.88 49.61 39.49 52.9 37.66 63.62L39.73 65.69L40.22 76.17C40.22 76.17 36.2 79.09 40.22 80.07L45.76 82.14C45.76 82.14 46.07 72.27 47.9 82.14L53.99 79.58C53.99 79.58 57.28 78 52.89 76.41L54.11 65.2L56.06 63.01C56.06 63.01 53.99 51.31 60.81 50.46L61.54 40.83C61.54 40.83 60.25 37.97 59.53 34.23C59.37 33.38 59.87 32.5 60.71 32.32C61.31 32.19 61.96 32.41 62.37 33.65C62.37 33.65 63.03 33 65.14 33.03C66.55 33.05 67.87 33.74 68.84 34.77C70.09 36.09 72.78 38.07 75.45 34.55C75.99 33.84 76.38 33.04 76.67 32.19C77.78 28.93 80.48 19.26 74.33 16.94C74.33 16.94 72.75 16.33 71.28 18.04C71.28 18.04 67.38 19.2 63.24 15.73C63.24 15.73 63.12 25.17 71.65 24.44C71.65 24.44 72.26 28.95 67.39 26.75C67.39 26.75 65.32 26.02 64.47 23.83C64.47 23.83 61.18 24.68 58.62 22.37C58.62 22.37 53.87 22.86 49.97 21.15C49.97 21.15 50.6 17.02 53.28 17.14C53.28 17.14 52.38 15.73 48.6 17.19L47.17 13.47L45.76 17.13C45.76 17.13 42.57 14.45 40.62 17.37C40.62 17.37 44.98 18.47 44.12 21.27C44.49 21.25 39.59 23.28 35.47 22C35.47 22 33.89 24.19 29.25 23.71C29.25 23.71 26.56 26.14 24.11 26.9C23.21 27.18 22.22 26.92 21.64 26.18C21.2 25.62 20.87 24.8 21.21 23.72C21.21 23.72 32.05 24.94 29.98 15.19C29.98 15.19 28.15 17.87 21.81 17.99C21.81 17.99 20.1 14.21 16.81 18.35C16.81 18.35 12.12 24.45 18.85 34.92C19.37 35.72 20.2 36.32 21.15 36.42C22.22 36.53 23.68 36.15 25.4 34.3C26.2 33.43 27.26 32.8 28.44 32.67L28.46 32.69Z" fill="white"/>
<path d="M51.71 29.5L48.5 29.57L48.41 44.53L49.97 45.51L46.88 48.93L43.64 45.51L45.19 44.67V29.64H41.98L40.76 31.32L39.02 26.99H54.47L52.84 31.32L51.71 29.5Z" fill="#231F20"/>
<path d="M116.6 23.61V30.63H122.04V72.02L129.06 66.87V30.48H134.94V23.61H116.6Z" fill="white"/>
<path fill-rule="evenodd" clip-rule="evenodd" d="M136.79 54.4L143.68 59.85V47.82H148.25V59.85L155.13 53.83V26.33L152.84 23.61H139.81L136.79 26.33V54.4ZM148.4 30.63H143.82V40.8H148.4V30.63Z" fill="white"/>
<path fill-rule="evenodd" clip-rule="evenodd" d="M156.41 54.12L162.87 59.85V43.09L167.46 45.95V59.85L174.47 54.26V41.73L170.18 39.65L174.47 37.07V26.04L171.75 23.61H158.29L156.41 25.33V54.12ZM167.46 33.35L163.59 35.71V29.91H167.46V33.35Z" fill="white"/>
<path d="M176.47 23.61H183.35V49.39L187.65 53.4V46.67H194.66V53.98L184.93 60.99L176.47 54.26V23.61Z" fill="white"/>
<path fill-rule="evenodd" clip-rule="evenodd" d="M196.68 53.98V26.47L199.69 23.61H212.44L215 26.04V53.98L205.13 60.99L196.68 53.98ZM207.98 52.69L203.84 49.82V30.63H207.98V52.69Z" fill="white"/>
<path d="M215.87 39.36V25.3L217.78 23.61H232.63L234.38 26.18V32.2L226.44 32.25L226.38 29.66H222.97V36.67L234.38 42.3V54.05L224.4 61.23L215.87 54.27V48.15L222.91 48.09L227.38 52.69L227.44 45.5L215.87 39.36Z" fill="white"/>
<path d="M236.15 54.07V26.12L238.65 23.61H252.01L254.51 26.2V34.82H247.59L247.66 30.63H243.07V36.59L246.69 36.57V43.69L243.18 43.71L243.19 50.71L247.56 53.37L247.6 46.32L254.51 46.35V54.21L244.97 61.23H244.13L236.15 54.07Z" fill="white"/>
</svg>
