<svg width="73" height="50" viewBox="0 0 513 500" fill="none" xmlns="http://www.w3.org/2000/svg">
<path d="M208.309 167.691H207.879L181.429 256.651H235.619L208.309 167.691ZM208.309 167.691H207.879L181.429 256.651H235.619L208.309 167.691ZM421.639 0.441406H90.9786C40.8386 0.441406 0.308594 40.9714 0.308594 91.1114V408.971C0.308594 459.111 40.8386 499.641 90.9786 499.641H421.639C471.779 499.641 512.309 459.111 512.309 408.971V91.1114C512.309 40.9714 471.779 0.441406 421.639 0.441406ZM313.909 353.081H269.319C267.829 353.291 266.339 352.231 265.909 350.731L248.419 299.961H169.059L152.839 350.091C152.419 352.011 150.709 353.291 148.789 353.081H108.679C106.339 353.081 105.699 351.801 106.339 349.241L175.029 151.481C175.669 149.351 176.309 147.001 177.159 144.441C178.019 139.961 178.439 135.271 178.439 130.571C178.229 129.511 179.079 128.441 180.149 128.231H235.399C237.109 128.231 237.959 128.871 238.179 129.931L316.039 349.671C316.679 352.011 316.039 353.081 313.909 353.081ZM386.439 349.881C386.439 352.231 385.589 353.291 383.669 353.291H341.859C339.719 353.291 338.659 352.011 338.659 349.881V185.611C338.659 183.481 339.509 182.631 341.429 182.631H383.669C385.589 182.631 386.439 183.691 386.439 185.611V349.881ZM381.959 157.241C377.059 162.361 369.799 165.131 362.549 164.711C355.509 164.921 348.679 162.151 343.559 157.241C338.659 151.911 336.099 144.871 336.309 137.611C336.099 130.361 338.869 123.531 343.989 118.631C349.109 113.721 355.939 111.161 362.979 111.161C371.299 111.161 377.699 113.721 382.389 118.631C387.113 123.803 389.638 130.61 389.429 137.611C389.639 144.871 387.079 151.911 381.959 157.241ZM207.879 167.691L181.429 256.651H235.619L208.309 167.691H207.879Z" fill="white"/>
</svg>
