<svg width="73" height="50" viewBox="0 0 513 500" fill="none" xmlns="http://www.w3.org/2000/svg">
<path d="M232.24 185.714C235.65 191.484 237.36 198.093 237.14 204.703C237.14 214.093 235.01 221.343 230.53 226.682C225.84 232.012 219.861 236.062 213.041 237.982C205.141 240.542 196.821 241.822 188.502 241.822H177.192C174.632 241.822 171.862 241.612 168.873 241.402V169.715C170.373 169.505 173.352 169.295 177.622 169.505C181.672 169.295 186.582 169.295 192.132 169.295C200.881 169.075 209.411 170.355 217.301 173.554C223.49 175.904 228.61 180.174 232.24 185.714Z" fill="white"/>
<path d="M422.103 0.331055H91.4355C41.3075 0.331055 0.769043 40.8695 0.769043 90.9975V408.865C0.769043 458.993 41.3075 499.532 91.4355 499.532H422.103C472.231 499.532 512.769 458.993 512.769 408.865V90.9975C512.769 40.8695 472.231 0.331055 422.103 0.331055ZM270.848 248.861C251.879 275.42 219.301 282.14 188.502 282.14C183.382 282.14 179.972 282.14 177.832 281.93C175.702 281.72 172.712 281.72 168.662 281.72V350.197C168.872 351.687 167.813 352.967 166.313 353.187H124.934C123.224 353.187 122.374 352.327 122.374 350.407V130.896C122.374 129.396 123.014 128.546 124.504 128.546C128.134 128.546 131.544 128.546 136.454 128.336L190.642 127.266C208.131 127.266 222.64 129.396 234.58 133.876C254.539 141.366 271.188 155.395 278.738 175.694C287.318 198.733 285.348 228.572 270.848 248.861ZM416.343 223.262C416.343 224.972 415.273 225.612 412.923 225.612C405.243 225.402 397.354 226.042 389.884 227.742C383.722 229.015 377.714 230.946 371.965 233.502C367.915 235.422 364.075 237.982 361.085 241.402V350.197C361.085 352.327 360.235 353.187 358.315 353.187H316.287C314.577 353.397 313.087 352.327 312.877 350.627V231.582C312.877 226.462 312.877 221.132 312.657 215.583C312.447 210.043 312.447 204.493 312.237 198.943C312.237 194.044 311.807 189.344 311.377 184.444C311.167 183.374 311.807 182.304 312.877 182.094C312.877 181.874 313.297 181.874 313.517 182.094H350.845C352.985 182.094 354.685 183.584 355.325 185.504C355.965 187.214 356.395 188.924 356.605 190.844C357.035 192.974 357.465 195.323 357.675 197.453C357.885 199.803 358.105 202.363 358.105 205.133C364.505 197.663 372.185 191.484 380.924 186.784C390.744 181.234 402.043 178.464 413.353 178.464C414.843 178.254 416.123 179.314 416.343 180.814V223.262Z" fill="white"/>
</svg>
