<svg width="73" height="50" viewBox="0 0 513 385" fill="none" xmlns="http://www.w3.org/2000/svg">
<path d="M235.534 0.587891H288.867V53.9212H235.534V0.587891Z" fill="white"/>
<path d="M235.534 48.5879H288.867V53.9212H235.534V48.5879Z" fill="#010101" fill-opacity="0.0627451"/>
<path opacity="0.2" d="M235.534 0.587891H288.867V5.92122H235.534V0.587891Z" fill="white"/>
<path d="M235.534 64.5879H288.867V117.921H235.534V64.5879Z" fill="white"/>
<path opacity="0.1" d="M235.534 112.588H288.867V117.921H235.534V112.588Z" fill="#010101"/>
<path opacity="0.2" d="M235.534 64.5879H288.867V69.9212H235.534V64.5879Z" fill="white"/>
<path d="M235.534 128.588H288.867V181.921H235.534V128.588Z" fill="white"/>
<path opacity="0.1" d="M235.534 176.588H288.867V181.921H235.534V176.588Z" fill="#010101"/>
<path opacity="0.2" d="M235.534 128.588H288.867V133.921H235.534V128.588Z" fill="white"/>
<path d="M171.534 64.5879H224.867V117.921H171.534V64.5879Z" fill="white"/>
<path opacity="0.1" d="M171.534 112.588H224.867V117.921H171.534V112.588Z" fill="#010101"/>
<path opacity="0.2" d="M171.534 64.5879H224.867V69.9212H171.534V64.5879Z" fill="white"/>
<path d="M171.534 128.588H224.867V181.921H171.534V128.588Z" fill="white"/>
<path opacity="0.1" d="M171.534 176.588H224.867V181.921H171.534V176.588Z" fill="#010101"/>
<path opacity="0.2" d="M171.534 128.588H224.867V133.921H171.534V128.588Z" fill="white"/>
<path d="M107.534 64.5879H160.867V117.921H107.534V64.5879Z" fill="white"/>
<path opacity="0.1" d="M107.534 112.588H160.867V117.921H107.534V112.588Z" fill="#010101"/>
<path opacity="0.2" d="M107.534 64.5879H160.867V69.9212H107.534V64.5879Z" fill="white"/>
<path d="M107.534 128.588H160.867V181.921H107.534V128.588Z" fill="white"/>
<path opacity="0.1" d="M107.534 176.588H160.867V181.921H107.534V176.588Z" fill="#010101"/>
<path opacity="0.2" d="M107.534 128.588H160.867V133.921H107.534V128.588Z" fill="white"/>
<path d="M43.5337 128.588H96.867V181.921H43.5337V128.588Z" fill="white"/>
<path opacity="0.1" d="M43.5337 176.588H96.867V181.921H43.5337V176.588Z" fill="#010101"/>
<path opacity="0.2" d="M43.5337 128.588H96.867V133.921H43.5337V128.588Z" fill="white"/>
<path d="M299.534 128.588H352.867V181.921H299.534V128.588Z" fill="white"/>
<path opacity="0.1" d="M299.534 176.588H352.867V181.921H299.534V176.588Z" fill="#010101"/>
<path opacity="0.2" d="M299.534 128.588H352.867V133.921H299.534V128.588Z" fill="white"/>
<path d="M504.227 176.012C502.734 175.052 472.27 155.809 443.449 160.396C436.473 131.169 409.678 112.993 408.377 112.118L400.953 107.19L394.766 113.59C393.312 115.201 392.051 116.977 391.011 118.881C386.211 127.244 379.278 145.953 383.118 180.534C383.318 182.106 383.182 183.703 382.719 185.218C382.256 186.733 381.475 188.133 380.43 189.324C379.51 190.36 378.38 191.187 377.114 191.75C375.848 192.313 374.477 192.599 373.091 192.588H0.867188V203.254C0.867188 366.924 120.227 384.588 171.534 384.588C303.651 384.588 395.491 304.332 435.577 233.612C488.398 225.185 506.681 192.012 507.641 190.433L512.867 181.58L504.227 176.012Z" fill="white"/>
<path opacity="0.2" d="M373.091 192.588H0.867188V197.921H373.091C374.477 197.932 375.848 197.647 377.114 197.084C378.38 196.521 379.51 195.693 380.43 194.657C381.472 193.469 382.251 192.073 382.714 190.561C383.178 189.05 383.315 187.458 383.118 185.889C382.99 184.78 383.011 183.905 382.905 182.838C382.815 185.213 381.945 187.493 380.43 189.324C379.51 190.36 378.38 191.187 377.114 191.75C375.848 192.313 374.477 192.599 373.091 192.588ZM504.227 176.012C502.734 175.052 472.27 155.809 443.449 160.396C436.473 131.169 409.678 112.993 408.377 112.118L400.953 107.19L394.766 113.59C394.339 114.038 393.422 115.084 392.249 116.876C388.238 123.062 381.369 137.889 382.137 165.878C382.393 133.814 392.974 120.78 394.766 118.945L400.953 112.524L408.377 117.452C409.678 118.326 436.473 136.524 443.449 165.729C472.249 161.142 512.867 181.58 512.867 181.58L504.227 176.012Z" fill="white"/>
<path opacity="0.1" d="M507.641 185.1C506.681 186.679 488.398 219.873 435.577 228.279C395.491 298.999 303.651 379.255 171.534 379.255C120.227 379.255 0.867188 361.591 0.867188 197.921V203.255C0.867188 366.924 120.227 384.588 171.534 384.588C303.651 384.588 395.491 304.332 435.577 233.612C488.398 225.185 506.681 192.012 507.641 190.433L512.867 181.58L510.585 180.108L507.641 185.1Z" fill="#010101"/>
<path d="M288.867 64.5879H235.534V117.921H288.867V64.5879ZM288.867 128.588H235.534V181.921H288.867V128.588ZM352.867 128.588H299.534V181.921H352.867V128.588ZM288.867 0.587891H235.534V53.9212H288.867V0.587891ZM224.867 64.5879H171.534V117.921H224.867V64.5879ZM96.8672 128.588H43.5339V181.921H96.8672V128.588ZM504.227 176.012C502.734 175.052 472.27 155.809 443.449 160.396C436.473 131.169 409.678 112.993 408.377 112.119L400.953 107.191L394.766 113.591C393.312 115.201 392.051 116.977 391.011 118.881C386.211 127.244 379.278 145.953 383.118 180.535C383.318 182.106 383.182 183.703 382.719 185.218C382.256 186.734 381.475 188.133 380.43 189.324C379.51 190.36 378.38 191.188 377.114 191.751C375.848 192.314 374.477 192.599 373.091 192.588H0.867188V203.255C0.867188 366.924 120.227 384.588 171.534 384.588C303.651 384.588 395.491 304.332 435.577 233.612C488.398 225.185 506.681 192.012 507.641 190.433L512.867 181.58L504.227 176.012ZM224.867 128.588H171.534V181.921H224.867V128.588ZM160.867 64.5879H107.534V117.921H160.867V64.5879ZM160.867 128.588H107.534V181.921H160.867V128.588Z" fill="url(#paint0_linear_95_34)"/>
<defs>
<linearGradient id="paint0_linear_95_34" x1="37.6885" y1="113.655" x2="454.009" y2="307.788" gradientUnits="userSpaceOnUse">
<stop stop-color="white" stop-opacity="0.2"/>
<stop offset="1" stop-color="white" stop-opacity="0"/>
</linearGradient>
</defs>
</svg>
