<svg width="73" height="50" viewBox="0 0 357 513" fill="none" xmlns="http://www.w3.org/2000/svg">
<path d="M312.987 176.87C339.067 159.73 356.317 130.22 356.317 96.7602C356.317 43.9402 313.337 0.970215 260.517 0.970215H96.1574C43.3374 0.970215 0.357422 43.9402 0.357422 96.7602C0.357422 130.22 17.6074 159.73 43.6874 176.87C17.6074 194 0.357422 223.51 0.357422 256.97C0.357422 290.43 17.6074 319.94 43.6874 337.08C17.6074 354.2 0.357422 383.72 0.357422 417.18C0.357422 470 43.5674 512.97 96.6674 512.97C150.347 512.97 194.027 469.53 194.027 416.14V327.8C211.047 343.31 233.657 352.76 258.437 352.76H260.517C313.337 352.76 356.317 309.79 356.317 256.97C356.317 223.51 339.067 194 312.987 176.87ZM194.027 32.3502H260.517C296.037 32.3502 324.937 61.2402 324.937 96.7602C324.937 132.28 296.037 161.18 260.517 161.18H194.027V32.3502ZM31.7374 96.7602C31.7374 61.2402 60.6374 32.3502 96.1574 32.3502H162.647V161.18H96.1574C60.6374 161.18 31.7374 132.28 31.7374 96.7602ZM31.7374 256.97C31.7374 221.45 60.6374 192.56 96.1574 192.56H162.647V321.39H95.7474C60.4174 321.17 31.7374 292.35 31.7374 256.97ZM162.647 416.14C162.647 452.23 133.047 481.59 96.6674 481.59C60.8674 481.59 31.7374 452.7 31.7374 417.18C31.7374 381.66 60.6374 352.76 96.1574 352.76H162.647V416.14ZM260.517 321.39H258.437C222.917 321.39 194.027 292.49 194.027 256.97C194.027 221.45 222.917 192.56 258.437 192.56H260.517C296.037 192.56 324.937 221.45 324.937 256.97C324.937 292.49 296.037 321.39 260.517 321.39Z" fill="white"/>
<path d="M111.848 212.93C111.708 212.93 111.578 212.93 111.438 212.94H178.338V212.93H111.848Z" fill="white"/>
</svg>
