<svg width="73" height="50" viewBox="0 0 237 211" fill="none" xmlns="http://www.w3.org/2000/svg">
<path d="M204.384 10.1248C179.864 -5.19518 147.584 -1.54517 118.794 16.5448C90.0936 -1.54517 57.7936 -5.19518 33.3036 10.1248C-5.43636 34.3348 -10.1464 96.6848 22.7936 149.395C47.0736 188.255 85.0436 211.025 118.844 210.605C152.644 211.025 190.614 188.255 214.894 149.395C247.794 96.6848 243.124 34.3348 204.384 10.1248ZM40.6036 138.265C33.8115 127.497 28.6869 115.765 25.4036 103.465C22.4866 92.7878 21.3713 81.6989 22.1036 70.6548C23.5736 51.1748 31.5036 36.0048 44.4236 27.9348C57.3436 19.8648 74.4236 19.3748 92.6136 26.5948C95.3436 27.6848 98.0436 28.9448 100.724 30.3348C90.6155 39.5516 81.8261 50.1177 74.6036 61.7348C54.6036 93.7348 48.5036 129.345 55.4836 157.735C49.918 151.731 44.9356 145.212 40.6036 138.265ZM212.294 103.455C209.006 115.753 203.882 127.485 197.094 138.255C192.758 145.211 187.776 151.744 182.214 157.765C188.454 132.315 184.214 101.135 168.914 71.8948C168.669 71.4133 168.327 70.9883 167.908 70.6475C167.489 70.3066 167.003 70.0575 166.482 69.9161C165.961 69.7747 165.416 69.7443 164.882 69.8267C164.348 69.9092 163.838 70.1027 163.384 70.3948L115.684 100.195C115.249 100.466 114.871 100.821 114.573 101.238C114.276 101.656 114.063 102.128 113.948 102.628C113.833 103.127 113.817 103.645 113.902 104.151C113.987 104.656 114.171 105.14 114.444 105.575L121.444 116.765C121.714 117.2 122.068 117.577 122.484 117.874C122.901 118.172 123.372 118.385 123.871 118.5C124.37 118.615 124.887 118.631 125.392 118.546C125.897 118.461 126.38 118.277 126.814 118.005L157.734 98.6848C158.734 101.685 159.734 104.685 160.484 107.685C163.4 118.348 164.519 129.423 163.794 140.455C162.324 159.925 154.394 175.095 141.474 183.175C134.81 187.249 127.174 189.46 119.364 189.575H118.374C110.563 189.462 102.927 187.252 96.2636 183.175C83.3336 175.095 75.4036 159.925 73.9336 140.455C73.2058 129.411 74.321 118.323 77.2336 107.645C83.9355 82.9411 97.789 60.7691 117.054 43.9148C125.361 36.6227 134.824 30.7628 145.054 26.5748C163.194 19.3548 180.304 19.8348 193.234 27.9148C206.164 35.9948 214.084 51.1548 215.554 70.6348C216.295 81.6799 215.194 92.7715 212.294 103.455Z" fill="white"/>
</svg>
