<svg width="73" height="50" viewBox="0 0 437 512" fill="none" xmlns="http://www.w3.org/2000/svg">
<path d="M300.811 224.664C289.395 214.993 274.441 209.666 258.703 209.666C254.772 209.666 250.784 209.999 246.851 210.654L143.5 227.879V90H113.5V263.293L251.782 240.246C254.113 239.854 256.473 239.655 258.837 239.651C267.507 239.651 275.316 242.384 281.419 247.554C289.21 254.154 293.5 264.109 293.5 275.586V422H323.5V275.586C323.5 255.439 315.229 236.878 300.811 224.664Z" fill="white"/>
<path d="M377 0H60C26.916 0 0 26.916 0 60V452C0 485.084 26.916 512 60 512H377C410.084 512 437 485.084 437 452V60C437 26.916 410.084 0 377 0ZM83.5 454V304L183.5 379L83.5 454ZM353.5 452H263.5V275.586C263.5 272.711 262.707 271.02 262.028 270.444C261.164 269.714 259.035 269.45 256.715 269.838L83.5 298.707V60H173.5V192.465L241.919 181.062C247.466 180.137 253.079 179.67 258.702 179.666C281.533 179.666 303.374 187.517 320.202 201.773C341.363 219.699 353.5 246.603 353.5 275.586V452ZM353.5 75C353.5 96.633 351.069 118.234 346.276 139.201L343.611 150.858H249.333L255.172 131.522C260.702 113.191 263.508 94.1469 263.5 75V60H353.5V75Z" fill="white"/>
<path d="M113.5 364V394L133.5 379L113.5 364ZM293.003 90C292.317 100.371 290.914 110.681 288.804 120.858H319.41C321.247 110.655 322.467 100.35 323.065 90H293.003Z" fill="white"/>
</svg>
