<svg width="73" height="50" viewBox="0 0 512 512" fill="none" xmlns="http://www.w3.org/2000/svg">
<g clip-path="url(#clip0_992_475)">
<path fill-rule="evenodd" clip-rule="evenodd" d="M426.991 356.301C438.016 361.028 442.59 370.227 444.638 380.843C446.839 392.175 450.219 402.773 458.786 411.068C459.93 412.16 460.749 413.628 461.636 414.993C472.183 431.019 469.777 442.334 453.274 451.891C445.884 456.192 438.067 459.759 430.438 463.599C418.967 469.187 408.726 477.008 400.316 486.605C389.461 499.063 376.2 508.04 359.492 511.164C339.507 514.901 321.946 506.163 313.412 487.492C311.586 483.499 309.521 482.287 305.22 482.065C294.622 481.433 284.023 480.358 273.51 478.805C254.993 476.075 237.21 480.631 219.17 483.277C212.036 484.318 207.07 486.673 202.342 492.749C193.024 504.712 178.927 507.784 164.727 505.907C153.207 504.371 141.38 501.47 130.935 496.537C115.712 489.404 99.9594 486.11 83.5754 484.335C77.3647 483.72 71.1898 482.786 65.0751 481.536C48.6399 477.969 40.8405 467.302 45.2095 451.174C48.8106 437.879 49.3055 425.216 47.5989 411.648C45.1583 392.277 51.0293 383.181 70.2634 377.719C85.6575 373.35 91.5114 360.021 100.932 349.952C101.666 349.15 101.53 347.289 101.41 345.958C98.7306 319.659 106.581 295.663 117.606 272.452C129.69 247.023 145.886 224.239 163.447 202.342C182.545 178.534 190.276 151.142 188.331 120.815C186.88 97.9796 184.934 75.1102 190.43 52.4457C197.598 22.7497 218.01 3.90811 248.354 1.04091C261.308 -0.187891 274.91 -0.734025 287.522 1.80891C316.996 7.71398 330.957 29.3374 337.544 56.8148C342.716 78.387 343.381 100.386 342.426 122.351C341.487 143.548 346.368 162.713 359.134 179.678C368.316 191.88 378.385 203.417 386.987 216.013C397.773 231.851 408.73 247.757 417.28 264.823C431.514 293.205 436.941 321.536 426.991 356.301ZM193.365 420.403C200.789 432.896 209.271 442.999 223.334 447.829C254.686 458.632 283.238 452.096 310.306 435.2C313.327 433.34 316.45 429.534 317.064 426.206C319.932 410.112 321.963 393.847 324.267 377.6C326.417 362.359 329.523 347.665 345.139 339.729C346.487 339.029 347.153 336.555 347.682 334.797C350.549 325.427 355.157 320.921 364.595 322.389C383.437 325.325 402.142 329.523 408.576 352.495C412.433 346.095 410.487 340.599 406.46 336.486C401.886 331.793 396.561 327.287 390.707 324.523C383.266 321.058 380.621 317.662 381.303 308.463C383.642 277.026 368.998 252.023 348.006 230.076C347.563 229.615 346.743 229.478 346.095 229.205C367.428 254.447 381.542 281.293 371.575 315.46C360.38 314.624 360.226 314.658 359.219 309.76C355.021 289.365 346.709 270.592 337.562 252.023C330.044 236.443 323.149 220.57 316.894 204.441C311.347 190.379 306.893 175.804 302.08 161.843C296.823 165.308 291.891 168.977 286.583 172.015C279.859 175.855 272.742 178.944 266.018 182.784C249.003 192.444 235.179 191.147 220.296 178.347C216.218 174.814 211.695 171.81 206.438 167.885C203.895 194.816 194.833 218.044 184.695 240.964C180.121 251.315 175.439 261.618 170.65 271.872C161.57 291.277 156.706 311.74 154.829 334.541C146.654 322.713 144.384 311.04 145.186 298.615C146.21 282.556 152.03 268.015 159.454 253.986C162.27 248.644 164.762 243.183 167.424 237.739L165.871 237.039C154.112 255.607 143.479 274.773 139.213 296.636C133.649 325.103 143.104 343.842 167.868 358.536C183.415 367.735 197.615 378.999 205.978 395.742C212.719 409.139 208.367 417.468 193.365 420.403ZM160.631 490.035C175.019 488.96 185.327 487.031 191.232 476.501C197.137 466.005 195.174 455.799 188.843 446.242C184.849 440.183 180.19 434.534 176.162 428.476C168.619 417.075 161.229 405.538 153.941 393.984C148.685 385.621 144.401 376.576 138.462 368.776C129.638 357.171 114.381 351.88 102.758 370.005C96.8597 379.527 87.6022 386.489 76.817 389.512C65.1093 393.045 61.9178 399.974 62.8906 412.313C63.6074 421.649 65.0069 431.582 62.7541 440.388C57.5487 460.749 61.0133 467.251 81.8858 469.384C100.83 471.347 119.313 474.351 136.704 483.277C144.93 487.475 154.795 488.465 160.631 490.035ZM353.109 357.7C350.327 361.233 346.795 364.237 345.276 368.06C342.723 374.028 341.078 380.344 340.395 386.799C338.756 406.528 336.845 426.103 330.155 444.894C328.789 448.734 328.004 452.761 327.27 456.755C324.983 469.026 326.195 480.461 336.64 488.96C346.931 497.391 358.724 497.664 369.971 492.22C378.231 488.26 386.594 483.055 392.755 476.382C403.678 464.555 416.375 455.987 430.729 449.28C436.241 446.72 441.685 443.819 446.703 440.405C452.488 436.48 453.615 431.838 450.543 425.506C448.547 421.28 445.974 417.351 442.897 413.832C437.47 407.859 434.654 400.896 432.981 393.233C431.923 388.471 430.814 383.624 428.817 379.238C424.072 368.64 410.368 366.302 401.032 373.111C394.974 377.484 388.287 380.914 381.201 383.283C372.326 386.287 364.51 382.788 359.919 374.647C357.171 369.8 355.669 364.271 353.109 357.7ZM245.896 178.841C248.542 178.142 253.252 177.681 257.28 175.735C267.725 170.837 277.896 165.342 288.102 159.932C290.014 158.925 291.755 157.525 293.393 156.092C304.35 146.329 302.592 135.492 289.229 129.587C279.652 125.405 270.128 121.104 260.659 116.685C248.2 110.916 236.151 110.592 224.836 119.245C217.549 124.808 210.432 130.611 203.332 136.414C199.083 139.844 198.076 144.213 200.243 149.316C203.674 157.355 231.185 177.442 240.077 178.347C241.357 178.517 242.654 178.585 245.896 178.841ZM282.709 121.344C285.235 122.436 287.215 123.119 288.956 124.143C294.707 127.573 298.581 125.269 299.639 119.569C301.192 111.07 303.275 102.195 302.165 93.8324C300.339 79.8719 289.894 70.3657 278.989 69.8025C265.882 69.1711 254.976 80.0084 252.604 95.9316C250.778 108.168 251.102 108.629 263.031 111.428C264.311 106.325 264.806 100.83 267.179 96.3241C268.715 93.3887 273.032 90.1289 276.002 90.2313C278.972 90.2996 282.982 93.8324 284.501 96.8703C288.495 104.823 287.147 113.015 282.709 121.344ZM362.718 349.167C363.127 355.993 364.578 363.503 372.002 367.001C379.051 370.364 385.382 366.609 391.117 362.428C392.533 361.387 393.847 360.124 394.991 358.792C399.07 354.099 399.019 348.484 393.899 344.951C389.075 341.594 383.808 338.923 378.248 337.015C367.855 333.568 362.65 337.698 362.718 349.167ZM224.58 113.442C227.994 110.745 233.301 108.612 233.608 105.881C234.769 95.7439 232.141 86.0841 224.273 78.7796C217.395 72.4137 209.186 73.3865 203.23 80.8446C193.655 92.7743 195.208 115.78 206.575 126.976L212.616 122.47C206.984 116.275 205.858 109.175 207.531 102.007C208.247 98.9695 211.661 96.6143 213.845 93.9348C216.32 96.034 219.631 97.7065 221.03 100.369C222.891 103.919 223.266 108.22 224.58 113.442Z" fill="white"/>
<path fill-rule="evenodd" clip-rule="evenodd" d="M218.265 182.545C219.682 183.74 221.116 184.883 222.481 186.146C235.929 198.605 246.46 200.073 262.673 191.505C267.349 189.03 271.838 186.163 276.514 183.637C278.317 182.706 280.344 182.293 282.368 182.443C269.039 189.44 257.587 201.216 240.674 198.878C230.57 197.478 223.641 191.01 217.037 184.183C217.454 183.643 217.864 183.097 218.265 182.545Z" fill="white"/>
</g>
<defs>
<clipPath id="clip0_992_475">
<rect width="512" height="512" fill="white"/>
</clipPath>
</defs>
</svg>
