<svg width="73" height="50" viewBox="0 0 513 200" fill="none" xmlns="http://www.w3.org/2000/svg">
<path d="M293.212 4.23383C283.067 9.54783 279.288 18.5258 279.288 43.3248C279.288 43.3248 284.425 38.3558 292.044 35.5948C297.6 33.5818 302.343 30.5188 305.088 28.5088C313.661 22.2298 314.986 14.1398 314.987 0.52683C314.987 0.52783 301.007 0.15083 293.212 4.23383ZM233.042 10.0438C224.767 17.3388 222.351 28.9608 222.351 28.9608L194.958 135.091L172.175 48.2318C169.956 38.9978 165.954 27.5808 159.627 19.8618C151.566 10.0278 135.177 9.41083 133.432 9.41083C131.686 9.41083 115.298 10.0278 107.237 19.8618C100.909 27.5808 96.9072 38.9978 94.6892 48.2318L71.9052 135.09L44.5122 28.9598C44.5122 28.9598 42.0952 17.3378 33.8212 10.0428C20.4032 -1.78516 0.285156 0.745824 0.285156 0.745824L52.7412 199.087C52.7412 199.087 70.0482 200.332 78.7062 195.919C90.0792 190.121 95.4932 185.648 102.377 158.663C108.514 134.603 125.669 63.9328 127.271 58.9028C128.063 56.4158 129.066 50.4738 133.431 50.4738C137.894 50.4738 138.813 56.4118 139.591 58.9028C141.165 63.9418 158.348 134.603 164.485 158.663C171.368 185.649 176.782 190.121 188.156 195.919C196.815 200.333 214.121 199.087 214.121 199.087L266.577 0.745824C266.577 0.745824 246.459 -1.78517 233.042 10.0438ZM314.972 33.1288C314.972 33.1288 311.691 38.2018 304.204 42.3878C299.396 45.0758 294.783 46.8968 289.832 49.2718C281.536 53.2518 279.289 57.6858 279.289 64.4498V199.087C279.289 199.087 292.525 200.76 301.184 196.346C312.329 190.664 314.89 185.188 314.988 160.521L314.972 33.1288ZM445.727 100.398L512.285 1.40383C512.285 1.40383 484.194 -3.37817 470.284 9.28283C461.384 17.3838 451.432 31.9528 451.432 31.9528L426.943 67.2548C425.756 69.0898 424.198 71.0878 421.716 71.0878C419.234 71.0878 417.676 69.0898 416.489 67.2548L392.001 31.9528C392.001 31.9528 382.048 17.3848 373.148 9.28283C359.239 -3.37817 331.147 1.40383 331.147 1.40383L397.705 100.398L331.322 199.087C331.322 199.087 360.576 202.779 374.485 190.118C383.385 182.017 392 168.844 392 168.844L416.489 133.542C417.676 131.707 419.234 129.709 421.716 129.709C424.198 129.709 425.756 131.707 426.943 133.542L451.432 168.844C451.432 168.844 460.552 182.017 469.452 190.118C483.361 202.779 512.107 199.087 512.107 199.087L445.727 100.398Z" fill="white"/>
</svg>
