<svg width="482" height="202" viewBox="0 0 482 202" fill="none" xmlns="http://www.w3.org/2000/svg">
<g filter="url(#filter0_iif_121_375)">
<rect x="1" y="1" width="200" height="200" rx="15" fill="#8122B1"/>
</g>
<g filter="url(#filter1_f_121_375)">
<path d="M78.4295 78.2399C78.1749 77.047 79.3672 76.0517 80.5238 76.4917L149.001 102.541C150.295 103.034 150.344 104.816 149.077 105.376L116.5 119.5C116.231 119.619 116.163 119.758 116 120L96.3199 149.313C95.5527 150.448 93.7723 150.112 93.4875 148.778L78.4295 78.2399Z" fill="#C8C8C8"/>
<path d="M59.8242 106.388C58.842 105.271 58.967 103.583 60.1032 102.618L68.7414 95.2798C69.8777 94.3145 71.595 94.4373 72.5772 95.554C73.5594 96.6708 73.4345 98.3586 72.2982 99.3238L63.66 106.662C62.5238 107.627 60.8064 107.505 59.8242 106.388Z" fill="#C8C8C8"/>
<path d="M99.0344 73.8461C98.0522 72.7294 98.1771 71.0416 99.3134 70.0763L107.952 62.7381C109.088 61.7728 110.805 61.8956 111.787 63.0123C112.77 64.129 112.645 65.8168 111.508 66.7821L102.87 74.1203C101.734 75.0856 100.017 74.9628 99.0344 73.8461Z" fill="#C8C8C8"/>
<path d="M87.329 67.5355C85.8305 67.4363 84.6975 66.162 84.7984 64.6893L85.5657 53.4932C85.6667 52.0204 86.9633 50.907 88.4618 51.0061C89.9604 51.1053 91.0934 52.3796 90.9924 53.8524L90.2251 65.0485C90.1242 66.5212 88.8276 67.6347 87.329 67.5355Z" fill="#C8C8C8"/>
<path d="M52.0011 82.4707C51.9592 83.9462 53.1424 85.1757 54.6437 85.2168L66.0572 85.5296C67.5586 85.5708 68.8096 84.408 68.8515 82.9325C68.8933 81.457 67.7102 80.2275 66.2088 80.1863L54.7953 79.8735C53.294 79.8324 52.0429 80.9952 52.0011 82.4707Z" fill="#C8C8C8"/>
<path d="M74.7569 71.5922C73.6313 72.5694 71.9127 72.4647 70.9184 71.3584L63.3595 62.9481C62.3652 61.8418 62.4717 60.1528 63.5973 59.1756C64.723 58.1984 66.4416 58.3031 67.4359 59.4094L74.9948 67.8197C75.9891 68.926 75.8826 70.615 74.7569 71.5922Z" fill="#C8C8C8"/>
</g>
<path d="M78.4295 78.2399C78.1749 77.047 79.3672 76.0517 80.5238 76.4917L149.001 102.541C150.295 103.034 150.344 104.816 149.077 105.376L116.5 119.5C116.231 119.619 116.163 119.758 116 120L96.3199 149.313C95.5527 150.448 93.7723 150.112 93.4875 148.778L78.4295 78.2399Z" fill="black"/>
<path d="M59.8242 106.388C58.842 105.271 58.967 103.583 60.1032 102.618L68.7414 95.2798C69.8777 94.3145 71.595 94.4373 72.5772 95.554C73.5594 96.6708 73.4345 98.3586 72.2982 99.3238L63.66 106.662C62.5238 107.627 60.8064 107.505 59.8242 106.388Z" fill="black"/>
<path d="M99.0344 73.8461C98.0522 72.7294 98.1771 71.0416 99.3134 70.0763L107.952 62.7381C109.088 61.7728 110.805 61.8956 111.787 63.0123C112.77 64.129 112.645 65.8168 111.508 66.7821L102.87 74.1203C101.734 75.0856 100.017 74.9628 99.0344 73.8461Z" fill="black"/>
<path d="M87.329 67.5355C85.8305 67.4363 84.6975 66.162 84.7984 64.6893L85.5657 53.4932C85.6667 52.0204 86.9633 50.907 88.4618 51.0061C89.9604 51.1053 91.0934 52.3796 90.9924 53.8524L90.2251 65.0485C90.1242 66.5212 88.8276 67.6347 87.329 67.5355Z" fill="black"/>
<path d="M52.0011 82.4707C51.9592 83.9462 53.1424 85.1757 54.6437 85.2168L66.0572 85.5296C67.5586 85.5708 68.8096 84.408 68.8515 82.9325C68.8933 81.457 67.7102 80.2275 66.2088 80.1863L54.7953 79.8735C53.294 79.8324 52.0429 80.9952 52.0011 82.4707Z" fill="black"/>
<path d="M74.7569 71.5922C73.6313 72.5694 71.9127 72.4647 70.9184 71.3584L63.3595 62.9481C62.3652 61.8418 62.4717 60.1528 63.5973 59.1756C64.723 58.1984 66.4416 58.3031 67.4359 59.4094L74.9948 67.8197C75.9891 68.926 75.8826 70.615 74.7569 71.5922Z" fill="black"/>
<g filter="url(#filter2_dii_121_375)">
<path d="M270.728 89.7202C267.464 89.7202 264.296 89.3602 261.224 88.6402C258.152 87.8722 255.368 86.5282 252.872 84.6082C250.424 82.6882 248.48 80.0242 247.04 76.6162C245.6 73.2082 244.88 68.8402 244.88 63.5122C244.88 58.5682 245.6 54.4162 247.04 51.0562C248.48 47.6962 250.4 45.0082 252.8 42.9922C255.2 40.9762 257.816 39.5362 260.648 38.6722C263.528 37.7602 266.408 37.3042 269.288 37.3042C271.736 37.3042 274.112 37.4962 276.416 37.8802C278.768 38.2642 280.472 38.6962 281.528 39.1762L289.52 45.7282L283.04 56.1682L270.728 49.8322C267.32 49.8322 264.44 50.9602 262.088 53.2162C259.736 55.4242 258.56 58.8562 258.56 63.5122C258.56 66.8242 259.136 69.5122 260.288 71.5762C261.488 73.6402 263.12 75.1522 265.184 76.1122C267.248 77.0722 269.6 77.5522 272.24 77.5522C275.024 77.5522 277.4 77.3362 279.368 76.9042C281.336 76.4242 283.064 75.8722 284.552 75.2482C286.04 74.5762 287.456 73.9282 288.8 73.3042V85.4002C287.12 86.4562 284.888 87.4402 282.104 88.3522C279.32 89.2642 275.528 89.7202 270.728 89.7202Z" fill="#8122B1"/>
<path d="M305.672 89.7202C302.792 89.7202 300.56 89.1682 298.976 88.0642C297.44 86.9602 296.36 85.3762 295.736 83.3122C295.16 81.2002 294.872 78.6802 294.872 75.7522V54.9442H307.832V73.8802C307.832 75.6562 308.168 77.0482 308.84 78.0562C309.56 79.0642 310.616 79.5682 312.008 79.5682C313.304 79.5682 314.48 79.0162 315.536 77.9122C316.64 76.8082 317.192 75.2002 317.192 73.0882V54.9442H330.152V77.4082L331.664 84.6082L330.152 89.0002H317.984V85.4722L317.264 85.1122C316.64 85.7362 315.728 86.4082 314.528 87.1282C313.376 87.8482 312.032 88.4722 310.496 89.0002C309.008 89.4802 307.4 89.7202 305.672 89.7202Z" fill="#8122B1"/>
<path d="M338.642 89.0002V66.4642L337.13 59.2642L338.642 54.9442H348.434L349.874 56.6002C349.874 56.6002 350.21 56.4082 350.882 56.0242C351.554 55.5922 352.49 55.1842 353.69 54.8002C354.938 54.4162 356.378 54.2242 358.01 54.2242C358.97 54.2242 359.93 54.2962 360.89 54.4402C361.85 54.5842 362.594 54.7762 363.122 55.0162L367.802 58.9762L363.122 68.1922L353.618 64.2322L351.458 64.9522V89.0002H338.642Z" fill="#8122B1"/>
<path d="M386.149 89.7202C382.645 89.7202 379.549 89.3602 376.861 88.6402C374.173 87.9202 372.085 87.1762 370.597 86.4082V76.4002C372.565 77.2642 374.581 77.9362 376.645 78.4162C378.757 78.8962 380.653 79.2322 382.333 79.4242C384.013 79.5682 385.213 79.6402 385.933 79.6402C386.749 79.6402 387.325 79.5202 387.661 79.2802C387.997 78.9922 388.165 78.6562 388.165 78.2722C388.165 77.7442 387.733 77.3122 386.869 76.9762C386.005 76.5922 384.373 76.1122 381.973 75.5362C380.005 75.0562 378.085 74.4562 376.213 73.7362C374.389 72.9682 372.877 71.9122 371.677 70.5682C370.525 69.2242 369.949 67.4242 369.949 65.1682C369.949 62.3842 370.597 60.2002 371.893 58.6162C373.189 57.0322 375.037 55.9282 377.437 55.3042C379.837 54.6322 382.645 54.2962 385.861 54.2962C387.685 54.2962 389.389 54.3922 390.973 54.5842C392.557 54.7762 393.685 54.9202 394.357 55.0162L401.053 59.3362L397.813 67.0402L385.213 64.3042C383.677 64.3042 382.909 64.8082 382.909 65.8162C382.909 66.8722 384.013 67.6642 386.221 68.1922C387.949 68.5762 389.725 69.0082 391.549 69.4882C393.373 69.9202 395.029 70.4962 396.517 71.2162C398.053 71.9362 399.277 72.8962 400.189 74.0962C401.149 75.2962 401.629 76.8802 401.629 78.8482C401.629 82.4962 400.309 85.2322 397.669 87.0562C395.077 88.8322 391.237 89.7202 386.149 89.7202Z" fill="#8122B1"/>
<path d="M424.021 89.7202C418.165 89.7202 413.629 88.3282 410.413 85.5442C407.197 82.7602 405.589 78.2482 405.589 72.0082C405.589 65.7202 407.197 61.2082 410.413 58.4722C413.629 55.6882 418.165 54.2962 424.021 54.2962C430.021 54.2962 434.557 55.6882 437.629 58.4722C440.749 61.2082 442.309 65.7202 442.309 72.0082C442.309 78.2482 440.749 82.7602 437.629 85.5442C434.557 88.3282 430.021 89.7202 424.021 89.7202ZM424.021 80.3602C425.989 80.3602 427.357 79.6402 428.125 78.2002C428.893 76.7122 429.277 74.6482 429.277 72.0082C429.277 69.3202 428.893 67.2562 428.125 65.8162C427.357 64.3762 425.989 63.6562 424.021 63.6562C422.005 63.6562 420.589 64.3762 419.773 65.8162C419.005 67.2562 418.621 69.3202 418.621 72.0082C418.621 74.6482 419.005 76.7122 419.773 78.2002C420.589 79.6402 422.005 80.3602 424.021 80.3602Z" fill="#8122B1"/>
<path d="M448.47 89.0002V66.4642L446.958 59.2642L448.47 54.9442H458.262L459.702 56.6002C459.702 56.6002 460.038 56.4082 460.71 56.0242C461.382 55.5922 462.318 55.1842 463.518 54.8002C464.766 54.4162 466.206 54.2242 467.838 54.2242C468.798 54.2242 469.758 54.2962 470.718 54.4402C471.678 54.5842 472.422 54.7762 472.95 55.0162L477.63 58.9762L472.95 68.1922L463.446 64.2322L461.286 64.9522V89.0002H448.47Z" fill="#8122B1"/>
<path d="M270.728 167.72C267.464 167.72 264.296 167.36 261.224 166.64C258.152 165.872 255.368 164.528 252.872 162.608C250.424 160.688 248.48 158.024 247.04 154.616C245.6 151.208 244.88 146.84 244.88 141.512C244.88 136.568 245.6 132.416 247.04 129.056C248.48 125.696 250.4 123.008 252.8 120.992C255.2 118.976 257.816 117.536 260.648 116.672C263.528 115.76 266.408 115.304 269.288 115.304C271.736 115.304 274.112 115.496 276.416 115.88C278.768 116.264 280.472 116.696 281.528 117.176L289.52 123.728L283.04 134.168L270.728 127.832C267.32 127.832 264.44 128.96 262.088 131.216C259.736 133.424 258.56 136.856 258.56 141.512C258.56 144.824 259.136 147.512 260.288 149.576C261.488 151.64 263.12 153.152 265.184 154.112C267.248 155.072 269.6 155.552 272.24 155.552C275.024 155.552 277.4 155.336 279.368 154.904C281.336 154.424 283.064 153.872 284.552 153.248C286.04 152.576 287.456 151.928 288.8 151.304V163.4C287.12 164.456 284.888 165.44 282.104 166.352C279.32 167.264 275.528 167.72 270.728 167.72Z" fill="#8122B1"/>
<path d="M296.384 167V144.464L294.872 137.264L296.384 132.944H306.176L307.616 134.6C307.616 134.6 307.952 134.408 308.624 134.024C309.296 133.592 310.232 133.184 311.432 132.8C312.68 132.416 314.12 132.224 315.752 132.224C316.712 132.224 317.672 132.296 318.632 132.44C319.592 132.584 320.336 132.776 320.864 133.016L325.544 136.976L320.864 146.192L311.36 142.232L309.2 142.952V167H296.384Z" fill="#8122B1"/>
<path d="M337.032 167.72C334.968 167.72 333.048 167.432 331.272 166.856C329.544 166.232 328.152 165.176 327.096 163.688C326.04 162.2 325.512 160.136 325.512 157.496C325.512 155.096 326.112 153.104 327.312 151.52C328.512 149.936 330.144 148.76 332.208 147.992C334.272 147.224 336.6 146.84 339.192 146.84C341.688 146.84 343.56 147.128 344.808 147.704C346.056 148.232 347.136 148.784 348.048 149.36L348.552 148.928C348.552 147.488 348.432 146.288 348.192 145.328C347.952 144.368 347.4 143.648 346.536 143.168C345.672 142.64 344.328 142.376 342.504 142.376C340.728 142.376 338.832 142.544 336.816 142.88C334.848 143.168 333.024 143.552 331.344 144.032C329.712 144.464 328.488 144.896 327.672 145.328V134.528C329.16 134 331.272 133.52 334.008 133.088C336.792 132.608 340.2 132.368 344.232 132.368C348.552 132.368 351.96 132.92 354.456 134.024C357 135.08 358.824 136.64 359.928 138.704C361.032 140.72 361.584 143.144 361.584 145.976V155.552L363.024 162.824L361.584 167.072H349.272V163.544L348.552 163.184C348.168 163.568 347.496 164.12 346.536 164.84C345.576 165.56 344.304 166.232 342.72 166.856C341.136 167.432 339.24 167.72 337.032 167.72ZM343.152 158.288C344.448 158.288 345.552 158.168 346.464 157.928C347.424 157.688 348.12 157.472 348.552 157.28V155.912C348.552 155.288 348.096 154.688 347.184 154.112C346.32 153.536 344.952 153.248 343.08 153.248C340.488 153.248 339.192 154.16 339.192 155.984C339.192 156.752 339.48 157.328 340.056 157.712C340.632 158.096 341.664 158.288 343.152 158.288Z" fill="#8122B1"/>
<path d="M371.147 167V143.672L367.331 136.472L371.147 133.016C370.907 132.2 370.715 131.12 370.571 129.776C370.475 128.384 370.427 127.256 370.427 126.392C370.427 123.656 371.051 121.256 372.299 119.192C373.595 117.128 375.371 115.52 377.627 114.368C379.883 113.168 382.427 112.568 385.259 112.568C386.603 112.568 388.019 112.64 389.507 112.784C391.043 112.88 392.363 113.072 393.467 113.36L401.171 117.752L395.627 127.76L387.347 122.72C385.715 122.72 384.515 123.32 383.747 124.52C382.979 125.672 382.595 126.968 382.595 128.408C382.595 129.464 382.763 130.4 383.099 131.216C383.435 132.032 383.771 132.632 384.107 133.016H395.627V141.656H384.107V155.336L384.827 162.608L384.107 167H371.147Z" fill="#8122B1"/>
<path d="M415.081 167.72C411.817 167.72 409.201 166.76 407.233 164.84C405.265 162.92 404.281 160.496 404.281 157.568V141.872H399.025V135.032L403.561 131.504L408.673 122.576H417.169V133.016H427.249V142.376H417.169V157.784L427.249 157.712V165.56C427.249 165.56 426.673 165.752 425.521 166.136C424.417 166.472 422.953 166.808 421.129 167.144C419.305 167.528 417.289 167.72 415.081 167.72Z" fill="#8122B1"/>
</g>
<defs>
<filter id="filter0_iif_121_375" x="-3" y="-3" width="208" height="208" filterUnits="userSpaceOnUse" color-interpolation-filters="sRGB">
<feFlood flood-opacity="0" result="BackgroundImageFix"/>
<feBlend mode="normal" in="SourceGraphic" in2="BackgroundImageFix" result="shape"/>
<feColorMatrix in="SourceAlpha" type="matrix" values="0 0 0 0 0 0 0 0 0 0 0 0 0 0 0 0 0 0 127 0" result="hardAlpha"/>
<feOffset dx="-10" dy="-10"/>
<feGaussianBlur stdDeviation="2"/>
<feComposite in2="hardAlpha" operator="arithmetic" k2="-1" k3="1"/>
<feColorMatrix type="matrix" values="0 0 0 0 0 0 0 0 0 0 0 0 0 0 0 0 0 0 0.25 0"/>
<feBlend mode="normal" in2="shape" result="effect1_innerShadow_121_375"/>
<feColorMatrix in="SourceAlpha" type="matrix" values="0 0 0 0 0 0 0 0 0 0 0 0 0 0 0 0 0 0 127 0" result="hardAlpha"/>
<feOffset dx="10" dy="10"/>
<feGaussianBlur stdDeviation="2"/>
<feComposite in2="hardAlpha" operator="arithmetic" k2="-1" k3="1"/>
<feColorMatrix type="matrix" values="0 0 0 0 0 0 0 0 0 0 0 0 0 0 0 0 0 0 0.25 0"/>
<feBlend mode="normal" in2="effect1_innerShadow_121_375" result="effect2_innerShadow_121_375"/>
<feGaussianBlur stdDeviation="0.3" result="effect3_foregroundBlur_121_375"/>
</filter>
<filter id="filter1_f_121_375" x="7.5" y="6.5" width="187" height="188" filterUnits="userSpaceOnUse" color-interpolation-filters="sRGB">
<feFlood flood-opacity="0" result="BackgroundImageFix"/>
<feBlend mode="normal" in="SourceGraphic" in2="BackgroundImageFix" result="shape"/>
<feGaussianBlur stdDeviation="22.25" result="effect1_foregroundBlur_121_375"/>
</filter>
<filter id="filter2_dii_121_375" x="240.88" y="33.3042" width="240.75" height="142.416" filterUnits="userSpaceOnUse" color-interpolation-filters="sRGB">
<feFlood flood-opacity="0" result="BackgroundImageFix"/>
<feColorMatrix in="SourceAlpha" type="matrix" values="0 0 0 0 0 0 0 0 0 0 0 0 0 0 0 0 0 0 127 0" result="hardAlpha"/>
<feOffset dy="4"/>
<feGaussianBlur stdDeviation="2"/>
<feComposite in2="hardAlpha" operator="out"/>
<feColorMatrix type="matrix" values="0 0 0 0 0 0 0 0 0 0 0 0 0 0 0 0 0 0 0.25 0"/>
<feBlend mode="normal" in2="BackgroundImageFix" result="effect1_dropShadow_121_375"/>
<feBlend mode="normal" in="SourceGraphic" in2="effect1_dropShadow_121_375" result="shape"/>
<feColorMatrix in="SourceAlpha" type="matrix" values="0 0 0 0 0 0 0 0 0 0 0 0 0 0 0 0 0 0 127 0" result="hardAlpha"/>
<feOffset dx="4" dy="4"/>
<feGaussianBlur stdDeviation="2"/>
<feComposite in2="hardAlpha" operator="arithmetic" k2="-1" k3="1"/>
<feColorMatrix type="matrix" values="0 0 0 0 0 0 0 0 0 0 0 0 0 0 0 0 0 0 0.25 0"/>
<feBlend mode="normal" in2="shape" result="effect2_innerShadow_121_375"/>
<feColorMatrix in="SourceAlpha" type="matrix" values="0 0 0 0 0 0 0 0 0 0 0 0 0 0 0 0 0 0 127 0" result="hardAlpha"/>
<feOffset dx="-4" dy="-4"/>
<feGaussianBlur stdDeviation="2"/>
<feComposite in2="hardAlpha" operator="arithmetic" k2="-1" k3="1"/>
<feColorMatrix type="matrix" values="0 0 0 0 0 0 0 0 0 0 0 0 0 0 0 0 0 0 0.25 0"/>
<feBlend mode="normal" in2="effect2_innerShadow_121_375" result="effect3_innerShadow_121_375"/>
</filter>
</defs>
</svg>
